<?xml version="1.0" standalone="no"?>
<!DOCTYPE svg PUBLIC "-//W3C//DTD SVG 1.1//EN" "http://www.w3.org/Graphics/SVG/1.1/DTD/svg11.dtd" >
<svg xmlns="http://www.w3.org/2000/svg" xmlns:xlink="http://www.w3.org/1999/xlink" version="1.1">
<metadata>
Created by FontForge 20200511 at Mon Apr 19 21:23:57 2021
 By convertio
Copyright (c) 2019 by Mathieu Desjardins. All rights reserved.
</metadata>
<defs>
<font id="PPHatton-Bold" horiz-adv-x="0" >
  <font-face 
    font-family="PP Hatton"
    font-weight="700"
    font-stretch="normal"
    units-per-em="1000"
    panose-1="0 0 8 0 0 0 0 0 0 0"
    ascent="800"
    descent="-200"
    x-height="489"
    cap-height="800"
    bbox="-484 -538.375 2467 1060"
    underline-thickness="24"
    underline-position="-84"
    unicode-range="U+0020-2265"
  />
<missing-glyph horiz-adv-x="550" 
d="M102 800h349v-1100h-349v1100zM366 690v36h-181v-36h71v-41h-72v-36h182v36h-72v41h72zM294 507v77h-110v-114h182v37h-72zM220 547h36v-40h-36v40zM366 404v36h-182v-36h72v-41h-72v-36h110v77h72zM366 264v110h-36v-72h-146v-38h182zM366 116v124h-110v-61h38v25h36
v-52h-110v88h-36v-124h182zM366 -74v124h-182v-124h182zM220 14h110v-52h-110v52zM366 -136v36h-182v-36h77l-77 -52v-36h182v36h-112l77 52h35z" />
    <glyph glyph-name="f_f" unicode="ff" horiz-adv-x="752" 
d="M644 820q91 0 208 -49q0 -46 -27 -70t-71 -3q-20 10 -42.5 36t-45.5 44t-54 18q-45 0 -62 -31t-2.5 -95.5t63.5 -154.5l2 -26h145v-25h-145v-241q0 -123 12 -223h-203q12 100 12 223v241h-145v-241q0 -123 12 -223h-203q12 100 12 223v241h-90v25h90v23q1 268 216 268
q71 0 142 -49q24 49 66 69t110 20zM434 489v32q0 119 24 187q-65 48 -117 48q-45 0 -72.5 -29t-25 -88t43.5 -133l2 -17h145z" />
    <glyph glyph-name="f_f_i" unicode="ffi" horiz-adv-x="1027" 
d="M961 489q-12 -92 -12 -213v-63q0 -121 12 -213h-203q13 92 13 213v63q0 112 -10 188h-148v-241q0 -123 12 -223h-203q12 100 12 223v241h-145v-241q0 -123 12 -223h-203q12 100 12 223v241h-90v25h90v23q1 268 216 268q35 0 67.5 -11t47.5 -20.5t44 -30.5q68 102 200 102
q200 0 286 -151l-111 -83l-111 83q2 66 -18.5 96.5t-70.5 30.5q-76 0 -89.5 -80t41.5 -202l1 -25h348zM434 489v26q0 107 39 182q-77 59 -132 59q-45 0 -72.5 -29t-25 -88t43.5 -133l2 -17h145z" />
    <glyph glyph-name="f_i" unicode="fi" horiz-adv-x="703" 
d="M637 489q-12 -92 -12 -213v-63q0 -121 12 -213h-203q13 92 13 213v63q0 112 -10 188h-148v-241q0 -123 12 -223h-203q12 100 12 223v241h-90v25h90v26q1 158 73 231.5t178 73.5q200 0 286 -151l-111 -83l-111 83q2 66 -18.5 96.5t-70.5 30.5q-76 0 -89.5 -80t41.5 -202
l1 -25h348z" />
    <glyph glyph-name=".notdef" horiz-adv-x="550" 
d="M102 800h349v-1100h-349v1100zM366 690v36h-181v-36h71v-41h-72v-36h182v36h-72v41h72zM294 507v77h-110v-114h182v37h-72zM220 547h36v-40h-36v40zM366 404v36h-182v-36h72v-41h-72v-36h110v77h72zM366 264v110h-36v-72h-146v-38h182zM366 116v124h-110v-61h38v25h36
v-52h-110v88h-36v-124h182zM366 -74v124h-182v-124h182zM220 14h110v-52h-110v52zM366 -136v36h-182v-36h77l-77 -52v-36h182v36h-112l77 52h35z" />
    <glyph glyph-name=".null" 
 />
    <glyph glyph-name="nonmarkingreturn" horiz-adv-x="333" 
 />
    <glyph glyph-name="space" unicode=" " horiz-adv-x="294" 
 />
    <glyph glyph-name="exclam" unicode="!" horiz-adv-x="306" 
d="M163 230h-20q-15 312 -67 486l77 84l76 -84q-25 -84 -40.5 -190t-25.5 -296zM236 63l-83 -83l-83 83l83 83z" />
    <glyph glyph-name="quotedbl" unicode="&#x22;" horiz-adv-x="359" 
d="M118 477h-21q-2 158 -27 323h74q-22 -160 -26 -323zM263 477h-21q-2 158 -27 323h74q-22 -148 -26 -323z" />
    <glyph glyph-name="numbersign" unicode="#" horiz-adv-x="983" 
d="M246 -152h-50l62 238h-188v48h201l75 292h-218v48h231l61 238h50l-62 -238h268l61 238h50l-62 -238h188v-48h-201l-75 -292h218v-48h-231l-61 -238h-50l62 238h-268zM395 426l-75 -292h268l75 292h-268z" />
    <glyph glyph-name="dollar" unicode="$" horiz-adv-x="790" 
d="M440 512q85 -48 130 -76.5t83.5 -64t52.5 -71t14 -83.5q0 -96 -74.5 -150.5t-181.5 -54.5q-14 0 -40 2q0 -18 0.5 -52.5t1.5 -51.5h-35q1 17 1.5 53t0.5 54q-178 28 -323 226l130 79q77 -204 193 -264q2 170 2 271l-17 9q-152 82 -204 135t-52 135q0 88 70 135.5
t169 47.5q21 0 32 -1q0 17 -0.5 50.5t-1.5 49.5h35q-1 -17 -1.5 -51t-0.5 -52q77 -11 142 -52t136 -121l-130 -65q-21 54 -36.5 87t-45 68t-66.5 50q-1 -37 -1.5 -115t-0.5 -117zM233 682q0 -34 30.5 -60.5t130.5 -83.5q0 154 -1 226q-18 3 -38 3q-53 0 -87.5 -24t-34.5 -61
zM485 36q57 0 90.5 26t33.5 66q0 48 -42.5 88t-144.5 97q0 -45 0.5 -135t1.5 -132q27 -10 61 -10z" />
    <glyph glyph-name="percent" unicode="%" horiz-adv-x="1454" 
d="M581 0l-41 10q181 393 327 774q-96 -7 -220.5 15.5t-214.5 16.5q101 -14 165.5 -69t64.5 -144q0 -103 -87 -160t-209 -57t-209 57t-87 160q0 81 54.5 135.5t142.5 71.5q310 68 648 -20q-194 -424 -334 -790zM366 410q117 0 117 193t-117 193q-116 0 -116 -193t116 -193z
M1088 -20q-122 0 -209 57t-87 160t87 160t209 57t209 -57t87 -160t-87 -160t-209 -57zM1088 4q117 0 117 193t-117 193q-116 0 -116 -193t116 -193z" />
    <glyph glyph-name="ampersand" unicode="&#x26;" horiz-adv-x="1030" 
d="M826 221l140 -62q-7 -44 -24.5 -77.5t-39 -52t-49 -30.5t-50 -15.5t-46.5 -3.5q-80 0 -157 47q-81 -47 -187 -47q-155 0 -259 60t-104 177q0 85 46.5 135.5t136.5 92.5q-74 124 -74 201q0 74 50 124t166 50q97 0 151.5 -41.5t54.5 -110.5q0 -42 -15.5 -75.5t-48.5 -59.5
t-61 -42t-74 -37l-11 -5q46 -75 132 -192q87 -115 110 -143q36 67 32 157t-47 171l148 87q43 -140 18 -263t-109 -199q63 -63 110 -63t64.5 55t-3.5 162zM375 796q-44 0 -68.5 -31.5t-24.5 -85.5q0 -69 62 -184q114 61 114 192q0 109 -83 109zM422 4q85 0 141 48
q-74 56 -157 156q-80 97 -132 172q-59 -64 -59 -157q0 -94 56.5 -156.5t150.5 -62.5z" />
    <glyph glyph-name="quotesingle" unicode="'" horiz-adv-x="214" 
d="M118 477h-21q-2 158 -27 323h74q-22 -160 -26 -323z" />
    <glyph glyph-name="parenleft" unicode="(" horiz-adv-x="470" 
d="M451 -79v-21q-162 46 -271.5 175t-109.5 305q0 88 32 166t86.5 134.5t122 97t144.5 62.5v-21q-96 -67 -150.5 -184.5t-54.5 -254.5q0 -144 51.5 -269t149.5 -190z" />
    <glyph glyph-name="parenright" unicode=")" horiz-adv-x="470" 
d="M20 -100v21q98 65 149.5 190.5t51.5 268.5q0 136 -54.5 254t-150.5 185v21q76 -22 143.5 -62.5t122 -97t86.5 -134.5t32 -166q0 -176 -109 -305t-271 -175z" />
    <glyph glyph-name="asterisk" unicode="*" horiz-adv-x="624" 
d="M349 316h-74q23 119 27 216q-63 -66 -135 -171l-52 52q109 76 171 135q-86 -3 -216 -27v74q119 -23 215 -27q-61 60 -170 135l52 52q73 -108 135 -172q-4 98 -27 217h74q-23 -119 -27 -216q62 64 135 171l52 -52q-109 -75 -171 -135q90 2 216 27v-74q-118 24 -217 26
q64 -60 172 -134l-52 -52q-70 103 -135 170q4 -96 27 -215z" />
    <glyph glyph-name="plus" unicode="+" horiz-adv-x="596" 
d="M546 296v-72q-138 7 -219 7q0 -81 7 -219h-71q5 106 7 219q-82 0 -220 -7v72q138 -7 220 -7q-2 112 -7 218h71q-7 -138 -7 -218q81 0 219 7z" />
    <glyph glyph-name="comma" unicode="," horiz-adv-x="306" 
d="M236 63l-157 -257l-9 8l83 166l-83 83l83 83z" />
    <glyph glyph-name="hyphen" unicode="-" horiz-adv-x="710" 
d="M70 224v72q286 -16 570 0v-72q-284 16 -570 0z" />
    <glyph glyph-name="period" unicode="." horiz-adv-x="306" 
d="M236 63l-83 -83l-83 83l83 83z" />
    <glyph glyph-name="slash" unicode="/" horiz-adv-x="569" 
d="M108 -169l-38 14q89 197 203.5 477t187.5 481l38 -14q-89 -197 -203.5 -477t-187.5 -481z" />
    <glyph glyph-name="zero" unicode="0" horiz-adv-x="935" 
d="M468 -20q-175 0 -292 117t-117 303t117.5 303t291.5 117q173 0 291 -117.5t118 -302.5q0 -186 -117.5 -303t-291.5 -117zM468 4q50 0 86 19.5t58 52.5t35 85.5t17.5 108t4.5 130.5t-4.5 130.5t-17.5 107.5t-35 85t-58 53t-86 20t-86.5 -20t-58.5 -52.5t-34.5 -85
t-17 -108t-4.5 -130.5q0 -95 7.5 -160.5t28.5 -122.5t62 -85t103 -28z" />
    <glyph glyph-name="one" unicode="1" horiz-adv-x="539" 
d="M463 0h-202q12 100 12 223v526q-25 -194 -108 -368l-135 60q171 164 235 359h198q-12 -103 -12 -223v-354q0 -123 12 -223z" />
    <glyph glyph-name="two" unicode="2" horiz-adv-x="754" 
d="M663 0h-610q8 77 27 133.5t58 100.5t65.5 66t86.5 63l6 4.5t5 3.5l6 4q99 69 144 124.5t45 132.5q0 74 -36.5 119t-99.5 45t-103 -37.5t-40 -92.5q0 -91 100 -127l-128 -102q-127 67 -127 184q0 93 96.5 146t219.5 53q81 0 152 -21t122.5 -72.5t51.5 -124.5
q0 -55 -21 -96.5t-69.5 -72t-79.5 -44.5t-97 -38q-11 -4 -16 -6q-103 -33 -158 -58.5t-96.5 -67t-66.5 -105.5l310 4q101 1 160 14.5t151 65.5z" />
    <glyph glyph-name="three" unicode="3" horiz-adv-x="743" 
d="M397 -20q-152 0 -244 70.5t-110 214.5h21q22 -120 94.5 -172.5t170.5 -52.5q92 0 139.5 54t47.5 140q0 87 -63 134t-168 22l-4 24q103 59 142.5 125.5t39.5 143.5q0 53 -24 83t-70 30q-60 0 -94.5 -53t-56.5 -160l-139 63q36 75 114.5 124.5t183.5 49.5
q111 0 188.5 -44.5t77.5 -132.5q0 -134 -193 -198q114 5 187 -46.5t73 -164.5q0 -117 -92.5 -185.5t-220.5 -68.5z" />
    <glyph glyph-name="four" unicode="4" horiz-adv-x="824" 
d="M630 0h-202q12 107 12 196v19h-400v24q149 146 255.5 303.5t137.5 257.5h197q-12 -103 -12 -223v-238q73 14 176 70l-55 -194h-121v-19q0 -99 12 -196zM419 329h21v421q-36 -88 -112 -201t-166 -209q86 -9 257 -11z" />
    <glyph glyph-name="five" unicode="5" horiz-adv-x="725" 
d="M346 -20q-287 0 -313 262h21q22 -216 213 -216q89 0 141 71.5t52 186.5q0 98 -41.5 154t-115.5 56q-97 0 -202 -99l-13 12l57 393h457l55 -195q-100 54 -165.5 67.5t-199.5 13.5h-141l-36 -254q106 97 257 97q55 0 107.5 -14t99.5 -42.5t75.5 -80.5t28.5 -120
q0 -76 -30 -134.5t-80 -91.5t-107.5 -49.5t-119.5 -16.5z" />
    <glyph glyph-name="six" unicode="6" horiz-adv-x="847" 
d="M432 -20q-177 0 -275 102t-98 288q0 209 112.5 329.5t289.5 120.5q174 0 296 -142l-140 -63q-13 35 -20.5 54t-22 47t-29 42.5t-36.5 26t-48 11.5q-167 0 -178 -335q91 68 205 68q38 0 77 -8.5t79.5 -28.5t72 -50t51.5 -77t20 -104q0 -60 -21 -109t-56 -80.5t-82 -52.5
t-96 -30t-101 -9zM432 4q68 0 101 60.5t33 189.5q0 131 -31.5 187t-93.5 56q-79 0 -159 -61q0 -71 1.5 -117.5t5 -96t10.5 -80.5t17.5 -60t26.5 -44.5t38 -24.5t51 -9z" />
    <glyph glyph-name="seven" unicode="7" horiz-adv-x="715" 
d="M347 0h-210q52 60 108 150l330 536h-176q-166 0 -267 -66l-122 180h655v-24l-268 -621q-28 -64 -50 -155z" />
    <glyph glyph-name="eight" unicode="8" horiz-adv-x="814" 
d="M408 -20q-73 0 -133.5 12.5t-111 39t-79 73.5t-28.5 111q0 97 63 155t168 78q-81 20 -127.5 69t-46.5 113q0 86 77 137.5t218 51.5q140 0 217 -51.5t77 -137.5q0 -64 -47 -113t-128 -69q105 -20 168.5 -78t63.5 -155q0 -64 -28.5 -111t-79 -73.5t-111 -39t-132.5 -12.5z
M408 458q60 0 87 51.5t27 121.5q0 69 -27 117t-87 48q-42 0 -69 -26t-36.5 -61t-9.5 -78q0 -71 27 -122t88 -51zM408 4q71 0 107 58t36 154t-36 157t-107 61q-72 0 -108 -60.5t-36 -157.5q0 -96 36 -154t108 -58z" />
    <glyph glyph-name="nine" unicode="9" horiz-adv-x="841" 
d="M409 820q177 0 275 -102t98 -288q0 -209 -112.5 -329.5t-289.5 -120.5q-175 0 -296 143l140 62q13 -35 20.5 -54t22 -47t29 -42.5t36.5 -26t48 -11.5q167 0 178 335q-89 -67 -205 -67q-38 0 -77 8.5t-79.5 28.5t-72 49.5t-51.5 76.5t-20 104q0 60 21 109t56 80.5t82 52.5
t96 30t101 9zM409 796q-68 0 -101 -60.5t-33 -189.5q0 -130 31.5 -186.5t93.5 -56.5q79 0 159 61q0 71 -1.5 117.5t-5 96t-10.5 80.5t-17.5 60t-26.5 44.5t-38 24.5t-51 9z" />
    <glyph glyph-name="colon" unicode=":" horiz-adv-x="306" 
d="M236 426l-83 -83l-83 83l83 83zM236 63l-83 -83l-83 83l83 83z" />
    <glyph glyph-name="semicolon" unicode=";" horiz-adv-x="306" 
d="M236 426l-83 -83l-83 83l83 83zM236 63l-157 -257l-9 8l83 166l-83 83l83 83z" />
    <glyph glyph-name="less" unicode="&#x3c;" horiz-adv-x="450" 
d="M400 118l-46 -67q-155 118 -304 209q149 91 304 209l46 -67q-147 -85 -286 -142q139 -57 286 -142z" />
    <glyph glyph-name="equal" unicode="=" horiz-adv-x="586" 
d="M50 304v72q248 -14 496 0v-72q-248 14 -496 0zM50 144v72q248 -14 496 0v-72q-248 14 -496 0z" />
    <glyph glyph-name="greater" unicode="&#x3e;" horiz-adv-x="450" 
d="M96 51l-46 67q147 85 286 142q-139 57 -286 142l46 67q162 -122 304 -209q-142 -87 -304 -209z" />
    <glyph glyph-name="question" unicode="?" horiz-adv-x="656" 
d="M303 233h-21q0 98 18.5 177.5t40 121t40 89t18.5 90.5q0 38 -17 61.5t-54 23.5q-55 0 -77 -52t-34 -166l-147 62q97 180 286 180q56 0 105.5 -13.5t87 -48.5t37.5 -86q0 -40 -21 -73.5t-52.5 -56t-68 -51.5t-68 -59.5t-52.5 -82t-21 -116.5zM376 63l-83 -83l-83 83l83 83
z" />
    <glyph glyph-name="at" unicode="@" horiz-adv-x="973" 
d="M489 -123q-219 0 -340.5 124t-93.5 336q23 179 148 293t316 114q202 0 313.5 -126t85.5 -316q-16 -105 -66.5 -173.5t-137.5 -68.5q-78 0 -107 36t-29 94q-28 -61 -75 -97t-108 -36q-107 0 -160.5 73.5t-32.5 183.5q22 116 97 179.5t171 63.5q60 0 93 -22.5t60 -61.5
l14 84h121l-55 -309q-1 -4 -3.5 -19t-4 -23t-3.5 -23.5t-2 -25t0.5 -22.5t4 -20.5t8 -15.5t13 -11.5t19.5 -3.5q53 0 98 58.5t60 159.5q27 178 -76 297.5t-300 119.5q-181 0 -298.5 -107t-139.5 -275q-27 -205 87.5 -320t324.5 -115q81 0 146 18.5t140 63.5l12 -20
q-78 -46 -144.5 -66.5t-155.5 -20.5zM412 81q67 0 111 53.5t64 141.5l31 174q-52 83 -113 83q-121 0 -166 -226q-21 -91 -3.5 -158.5t76.5 -67.5z" />
    <glyph glyph-name="A" unicode="A" horiz-adv-x="784" 
d="M501 800l184 -674q19 -71 49 -126h-246q-3 53 -23 126l-43 157h-261l-45 -170q-20 -75 -22 -113h-44q25 51 41 112l163 607q12 46 1 81h246zM290 764l-122 -457h247z" />
    <glyph glyph-name="B" unicode="B" horiz-adv-x="821" 
d="M447 0h-377q12 96 12 223v354q0 127 -12 223h359q63 0 109.5 -7t88 -25.5t63.5 -56t22 -93.5q0 -72 -41 -114.5t-128 -58.5q228 -38 228 -223q0 -222 -324 -222zM289 776v-318h62q82 0 117.5 39t35.5 121q0 79 -43 118.5t-115 39.5h-57zM289 434v-410h67q86 0 139 45.5
t53 149.5q0 215 -187 215h-72z" />
    <glyph glyph-name="C" unicode="C" horiz-adv-x="927" 
d="M496 -20q-197 0 -316.5 117.5t-119.5 312.5q0 126 59.5 220.5t156.5 142t215 47.5q251 0 365 -242l-190 -53q-33 271 -175 271q-99 0 -154 -105t-55 -267q0 -110 28 -194.5t91 -137t155 -52.5q113 0 194 77.5t116 226.5h21q-88 -364 -391 -364z" />
    <glyph glyph-name="D" unicode="D" horiz-adv-x="885" 
d="M373 0h-303q12 96 12 223v354q0 127 -12 223h303q213 0 332.5 -100t119.5 -300q0 -194 -119.5 -297t-332.5 -103zM289 776v-752h77q110 0 173.5 96.5t63.5 279.5q0 189 -63 282.5t-174 93.5h-77z" />
    <glyph glyph-name="E" unicode="E" horiz-adv-x="702" 
d="M631 0h-561q13 104 13 223v354q0 119 -13 223h583l-65 -94q-94 70 -216 70h-83v-344h48q107 0 200 10v-44q-93 10 -200 10h-48v-384h75q86 0 145 12t163 55z" />
    <glyph glyph-name="F" unicode="F" horiz-adv-x="703" 
d="M302 0h-232q13 104 13 223v354q0 119 -13 223h603l-65 -94q-94 70 -216 70h-103v-373h56q107 0 200 10v-44q-93 10 -200 10h-56v-156q0 -119 13 -223z" />
    <glyph glyph-name="G" unicode="G" horiz-adv-x="945" 
d="M479 -20q-186 0 -302.5 118t-116.5 312q0 126 59.5 220.5t157 142t217.5 47.5q129 0 221.5 -61t147.5 -167l-189 -53q-36 257 -180 257q-101 0 -156.5 -105t-55.5 -267q0 -168 68 -275.5t196 -107.5q116 0 185 90.5t77 246.5h-50q-122 0 -215 -70l-66 94h448v-24h-79
v-156q0 -117 14 -222h-66q14 105 14 222v28q-65 -270 -329 -270z" />
    <glyph glyph-name="H" unicode="H" horiz-adv-x="880" 
d="M798 577v-354q0 -115 12 -223h-231q12 96 12 223v165h-302v-165q0 -127 12 -223h-231q12 96 12 223v354q0 127 -12 223h231q-12 -96 -12 -223v-165h302v165q0 127 -12 223h231q-12 -108 -12 -223z" />
    <glyph glyph-name="I" unicode="I" horiz-adv-x="371" 
d="M301 0h-231q12 96 12 223v354q0 127 -12 223h231q-12 -96 -12 -223v-354q0 -127 12 -223z" />
    <glyph glyph-name="J" unicode="J" horiz-adv-x="405" 
d="M25 -220l-5 15q64 30 84 66t20 124v592q0 119 -13 223h231q-12 -108 -12 -223v-543q0 -59 -19 -104.5t-47.5 -71.5t-71 -43.5t-81 -24.5t-86.5 -10z" />
    <glyph glyph-name="K" unicode="K" horiz-adv-x="917" 
d="M473 517l307 -409q47 -63 107 -108h-300q-12 27 -23.5 45.5t-44.5 62.5l-199 263l-31 -34v-114q0 -127 12 -223h-231q12 96 12 223v354q0 127 -12 223h231q-12 -96 -12 -223v-206l326 323q64 61 95 106h58q-57 -42 -119 -104z" />
    <glyph glyph-name="L" unicode="L" horiz-adv-x="702" 
d="M621 0h-551q14 112 14 223v354q0 127 -12 223h231q-12 -96 -12 -223v-553h63q86 0 145 12t163 55z" />
    <glyph glyph-name="M" unicode="M" horiz-adv-x="1063" 
d="M473 -20h-38l-329 769v-526q0 -119 13 -223h-49q12 96 12 223v354q0 127 -12 223h245l236 -544l218 544h224q-12 -108 -12 -223v-354q0 -115 12 -223h-230q12 108 12 223v529z" />
    <glyph glyph-name="N" unicode="N" horiz-adv-x="819" 
d="M115 0h-45q12 96 12 223v354q0 127 -12 223h250l389 -749l7 -1v527q0 115 -12 223h45q-12 -96 -12 -223v-354q0 -127 12 -223h-250l-389 749l-7 1v-527q0 -127 12 -223z" />
    <glyph glyph-name="O" unicode="O" horiz-adv-x="1095" 
d="M548 -20q-215 0 -351.5 112t-136.5 308q0 195 137 307.5t351 112.5q213 0 350 -112.5t137 -307.5q0 -196 -137 -308t-350 -112zM548 4q88 0 149.5 56t88.5 143t27 197q0 109 -27 196t-88.5 143.5t-149.5 56.5q-89 0 -150.5 -56.5t-88.5 -143.5t-27 -196q0 -110 27 -197
t88.5 -143t150.5 -56z" />
    <glyph glyph-name="P" unicode="P" horiz-adv-x="778" 
d="M301 0h-231q12 96 12 223v354q0 127 -12 223h280q65 0 116.5 -5t102.5 -19t84.5 -37t54 -62t20.5 -92t-20.5 -92t-54 -62t-84.5 -37t-102.5 -19t-116.5 -5h-61v-147q0 -127 12 -223zM289 776v-382h58q80 0 126.5 43t46.5 148t-46.5 148t-126.5 43h-58z" />
    <glyph glyph-name="Q" unicode="Q" horiz-adv-x="1095" 
d="M1035 400q0 -157 -90 -261.5t-242 -140.5q1 -2 4 -6.5t4 -6.5q27 -49 64 -73t96 -24v-25q-89 0 -152.5 19.5t-95.5 75.5q-8 13 -12 25q-31 -3 -63 -3q-215 0 -351.5 112t-136.5 308q0 195 137 307.5t351 112.5q213 0 350 -112.5t137 -307.5zM673 41q69 46 104.5 142
t35.5 217q0 109 -27 196t-88.5 143.5t-149.5 56.5q-89 0 -150.5 -56.5t-88.5 -143.5t-27 -196q0 -130 40 -229.5t118 -140.5q47 68 117 68q69 0 116 -57zM548 4q25 0 52 5q-9 23 -14.5 33.5t-17.5 20.5t-28 10q-23 0 -45 -15.5t-34 -37.5q42 -16 87 -16z" />
    <glyph glyph-name="R" unicode="R" horiz-adv-x="903" 
d="M691 184q38 -90 76.5 -126.5t102.5 -36.5v-21q-58 0 -98 2t-84 8t-74 18t-58 31.5t-47.5 48.5t-32.5 69q-39 123 -71.5 158t-101.5 35h-14v-147q0 -127 12 -223h-231q12 96 12 223v354q0 127 -12 223h280q65 0 116.5 -5t102.5 -19t84.5 -37t54 -62t20.5 -92
q0 -105 -74 -153t-206 -59q175 -30 243 -189zM289 776v-382h58q80 0 126.5 43t46.5 148t-46.5 148t-126.5 43h-58z" />
    <glyph glyph-name="S" unicode="S" horiz-adv-x="727" 
d="M433 -20q-132 0 -226.5 57.5t-166.5 190.5l140 81q31 -136 101 -220.5t167 -84.5q59 0 92.5 30t33.5 81q0 25 -13 48t-44.5 50t-69.5 53.5t-102 69.5q-11 7 -17 11q-140 92 -191 149.5t-51 138.5q0 89 70 137t175 48q102 0 185 -46t158 -151l-139 -60q-15 50 -30.5 86.5
t-40.5 72.5t-61.5 55t-83.5 19q-55 0 -87.5 -25t-32.5 -62q0 -39 35.5 -72t155.5 -108q60 -38 92 -59.5t72.5 -51.5t60 -51.5t39 -50t26.5 -58t7 -64.5q0 -104 -72.5 -159t-181.5 -55z" />
    <glyph glyph-name="T" unicode="T" horiz-adv-x="819" 
d="M525 0h-231q12 96 12 223v553h-13q-113 0 -207 -70l-66 94h779l-66 -94q-93 70 -207 70h-13v-553q0 -127 12 -223z" />
    <glyph glyph-name="U" unicode="U" horiz-adv-x="797" 
d="M447 -20q-86 0 -150.5 16t-117 55t-80 111.5t-27.5 177.5v237q0 127 -12 223h231q-12 -96 -12 -223v-237q0 -176 44.5 -248t160.5 -72q112 0 164.5 72.5t52.5 247.5v237q0 115 -12 223h48q-12 -108 -12 -223v-237q0 -194 -65.5 -277t-212.5 -83z" />
    <glyph glyph-name="V" unicode="V" horiz-adv-x="784" 
d="M529 0h-246l-183 674q-20 72 -50 126h246q3 -53 23 -126l175 -638l174 651q19 66 23 113h43q-25 -51 -41 -112l-163 -607q-12 -46 -1 -81z" />
    <glyph glyph-name="W" unicode="W" horiz-adv-x="1269" 
d="M1168 800h44q-25 -51 -41 -112l-164 -607q-10 -47 0 -81h-246l-127 467l-104 -386q-12 -46 -1 -81h-246l-183 674q-20 72 -50 126h246q3 -53 23 -126l175 -638l127 476l-44 162q-19 71 -49 126h246q3 -53 23 -126l175 -638l174 651q20 75 22 113z" />
    <glyph glyph-name="X" unicode="X" horiz-adv-x="723" 
d="M110 0h-44q30 40 56 91l140 270l-166 348q-22 47 -56 91h259q6 -42 31 -91l117 -242l121 231q31 59 45 102h44q-29 -37 -61 -102l-136 -259l166 -348q24 -48 57 -91h-259q-11 50 -31 91l-118 243l-126 -243q-21 -41 -39 -91z" />
    <glyph glyph-name="Y" unicode="Y" horiz-adv-x="779" 
d="M520 0h-231q12 108 12 223v105l-188 378q-27 55 -63 94h259q12 -41 38 -94l160 -320l147 320q24 50 35 94h40q-23 -35 -49 -93l-173 -379v-105q0 -119 13 -223z" />
    <glyph glyph-name="Z" unicode="Z" horiz-adv-x="803" 
d="M711 0h-661v41l441 735h-146q-126 0 -215 -67l-66 91h663v-41l-442 -735h167q75 0 137.5 12.5t163.5 54.5z" />
    <glyph glyph-name="bracketleft" unicode="[" horiz-adv-x="429" 
d="M413 -100h-343v940h343v-21h-179v-898h179v-21z" />
    <glyph glyph-name="backslash" unicode="\" horiz-adv-x="569" 
d="M499 -155l-38 -14q-73 201 -187.5 481t-203.5 477l38 14q73 -201 187.5 -481t203.5 -477z" />
    <glyph glyph-name="bracketright" unicode="]" horiz-adv-x="429" 
d="M359 840v-940h-343v21h179v898h-179v21h343z" />
    <glyph glyph-name="asciicircum" unicode="^" horiz-adv-x="534" 
d="M313 746q23 -50 67.5 -94.5t92.5 -72.5q-4 -15 -17.5 -22.5t-31 -6t-37.5 14.5t-35 35q-15 1 -23.5 6t-14 13t-22 31.5t-37.5 48.5q35 24 58 47zM191 665q24 36 41 60l23 -26q-37 -22 -64 -34zM136 548q-7 -11 -23 2q-30 27 -17 83q47 10 95 32q-23 -37 -34.5 -72
t-20.5 -45z" />
    <glyph glyph-name="underscore" unicode="_" horiz-adv-x="892" 
d="M70 -104v71q376 -14 752 0v-71q-376 14 -752 0z" />
    <glyph glyph-name="grave" unicode="`" horiz-adv-x="336" 
d="M286 593l-9 -9q-47 29 -93 40.5t-76 18.5t-48 26q-12 13 -13 35.5t15.5 42t51.5 19.5z" />
    <glyph glyph-name="a" unicode="a" horiz-adv-x="678" 
d="M233 -20q-46 0 -84.5 12t-67 44t-28.5 80q0 31 11.5 57t34.5 44t45 30.5t56.5 22t54 14t51.5 10.5q69 12 97.5 34.5t28.5 69.5q0 86 -75 86q-23 0 -41.5 -5.5t-32 -18.5t-21.5 -22.5t-20 -28t-17 -25.5q-23 -30 -55.5 -37t-60 13t-35.5 60q58 38 139 63.5t169 25.5
q228 0 228 -163v-130q0 -124 15 -216h-181q-10 51 -11 96q-45 -116 -200 -116zM322 40q50 0 80 42.5t30 106.5v131q-16 -20 -88 -43q-97 -35 -97 -131q0 -106 75 -106z" />
    <glyph glyph-name="b" unicode="b" horiz-adv-x="758" 
d="M450 -20q-157 0 -204 133q1 -61 10 -113h-188v584q0 116 -12 216h202q-12 -100 -12 -216v-176q88 101 216 101q44 0 86 -14t80.5 -43t62.5 -83t24 -125t-23.5 -124.5t-63.5 -82.5t-84.5 -43t-93.5 -14zM386 26q69 0 102 60.5t33 157.5q0 115 -32 170.5t-87 55.5
q-82 0 -156 -98v-148q0 -97 39.5 -147.5t100.5 -50.5z" />
    <glyph glyph-name="c" unicode="c" horiz-adv-x="645" 
d="M336 -20q-80 0 -145 28.5t-106.5 89.5t-41.5 146q0 128 85.5 196.5t217.5 68.5q100 0 162 -42.5t80 -108.5q-32 -46 -80.5 -35t-57.5 67q-8 45 -27.5 69.5t-67.5 24.5q-63 0 -90.5 -52t-27.5 -166q0 -106 39.5 -169.5t128.5 -63.5q65 0 114 42t72 124h21
q-31 -102 -95 -160.5t-181 -58.5z" />
    <glyph glyph-name="d" unicode="d" horiz-adv-x="761" 
d="M307 -20q-49 0 -93.5 14t-84 43t-63 82.5t-23.5 124.5t23.5 125t62.5 83t81 43t86 14q128 0 216 -101v176q0 116 -14 216h192v-587q0 -116 15 -213h-181q-11 62 -11 115q-47 -135 -206 -135zM372 26q61 0 100.5 50.5t39.5 147.5v148q-74 98 -156 98q-55 0 -87 -55.5
t-32 -170.5q0 -97 33 -157.5t102 -60.5z" />
    <glyph glyph-name="e" unicode="e" horiz-adv-x="683" 
d="M363 -20q-87 0 -158 29t-116.5 90t-45.5 145q0 83 45.5 145t115 91t150.5 29q124 0 198 -62.5t76 -155.5h-390q-1 -10 -1 -32q0 -102 48.5 -167.5t137.5 -65.5q67 0 122 40t85 125h20q-66 -211 -287 -211zM240 316h201q0 168 -90 168q-97 0 -111 -168z" />
    <glyph glyph-name="f" unicode="f" horiz-adv-x="428" 
d="M301 0h-203q12 100 12 223v241h-90v25h90v32q0 118 23.5 184t67 90.5t119.5 24.5q91 0 208 -49q0 -46 -27 -70t-71 -3q-20 10 -42.5 36t-45.5 44t-54 18q-45 0 -62 -31t-2.5 -95.5t63.5 -154.5l2 -26h145v-25h-145v-241q0 -123 12 -223z" />
    <glyph glyph-name="g" unicode="g" horiz-adv-x="854" 
d="M312 -260q-51 0 -96 6t-85.5 18.5t-64 36.5t-23.5 57q0 51 62 84q-62 28 -62 90q0 80 134 121q-86 56 -86 151q0 98 88 151.5t218 53.5q99 0 178 -33q14 18 23 29.5t23 26.5t26.5 23.5t30 17.5t35.5 12t41.5 3t49.5 -6q11 -57 -17.5 -85.5t-82.5 -11.5q-30 11 -55.5 11
t-53.5 -28q108 -56 108 -164q0 -98 -88 -151t-218 -53q-101 0 -177 33q-69 -37 -69 -81q0 -26 21.5 -43t60.5 -17q77 0 153.5 22t144.5 44t126 22q67 0 108.5 -30t41.5 -89q0 -60 -48 -105t-125.5 -69t-158.5 -35.5t-163 -11.5zM397 124q55 0 83.5 47t28.5 133
q0 87 -28.5 133.5t-83.5 46.5t-83.5 -46.5t-28.5 -133.5q0 -86 28.5 -133t83.5 -47zM291 -213q81 0 161 19t138.5 59.5t58.5 92.5q0 62 -75 62q-43 0 -105 -24.5t-132.5 -49t-135.5 -24.5q-35 0 -68 9q-44 -24 -44 -64q0 -41 58 -60.5t144 -19.5z" />
    <glyph glyph-name="h" unicode="h" horiz-adv-x="695" 
d="M639 0h-203q12 100 12 216v154q0 93 -62 93q-78 0 -140 -123v-117q0 -129 12 -223h-202q12 94 12 223v354q0 129 -12 223h202q-12 -94 -12 -223v-198q76 130 211 130q170 0 170 -204v-89q0 -116 12 -216z" />
    <glyph glyph-name="i" unicode="i" horiz-adv-x="334" 
d="M278 683l-111 -97l-111 97l111 97zM268 0h-202q12 92 12 213v63q0 121 -12 213h202q-12 -92 -12 -213v-63q0 -121 12 -213z" />
    <glyph glyph-name="j" unicode="j" horiz-adv-x="342" 
d="M292 683l-111 -97l-111 97l111 97zM41 -240l-8 17q38 24 48.5 59t10.5 120v317q0 121 -12 216h202q-12 -95 -12 -216v-267q0 -182 -229 -246z" />
    <glyph glyph-name="k" unicode="k" horiz-adv-x="753" 
d="M640 109q55 -76 87 -109h-217q-18 47 -61 109q-41 61 -87 90.5t-115 36.5q-1 -10 -1 -30q0 -111 12 -206h-202q12 94 12 223v354q0 129 -12 223h202q-12 -94 -12 -223v-242q50 174 235 174q67 0 109 -30t42 -90q0 -135 -267 -148q114 -12 173.5 -42t101.5 -90zM398 463
q-59 0 -100 -53.5t-50 -156.5q102 0 160 34.5t58 101.5q0 35 -18 54.5t-50 19.5z" />
    <glyph glyph-name="l" unicode="l" horiz-adv-x="314" 
d="M258 0h-202q12 94 12 223v354q0 129 -12 223h202q-12 -94 -12 -223v-354q0 -129 12 -223z" />
    <glyph glyph-name="m" unicode="m" horiz-adv-x="978" 
d="M258 0h-202q12 92 12 213v63q0 121 -12 213h202q-7 -59 -10 -107q69 127 180 127q120 0 144 -129q83 129 188 129q150 0 150 -195v-98q0 -116 12 -216h-203q12 100 12 216v160q0 40 -8 60t-31 20q-50 0 -115 -107q0 -7 0.5 -19t0.5 -19v-95q0 -116 12 -216h-202
q12 100 12 216v160q0 80 -40 80q-56 0 -113 -115l-1 -128q0 -121 12 -213z" />
    <glyph glyph-name="n" unicode="n" horiz-adv-x="695" 
d="M639 0h-203q12 100 12 216v154q0 93 -62 93q-78 0 -140 -122v-65v-63q0 -121 12 -213h-202q12 92 12 213v63q0 121 -12 213h202q-9 -61 -10 -107q75 127 209 127q170 0 170 -204v-89q0 -116 12 -216z" />
    <glyph glyph-name="o" unicode="o" horiz-adv-x="758" 
d="M379 -20q-148 0 -242 69t-94 195q0 127 94 196t242 69t242 -69t94 -196q0 -126 -94 -195t-242 -69zM379 4q142 0 142 240t-142 240t-142 -240t142 -240z" />
    <glyph glyph-name="p" unicode="p" horiz-adv-x="758" 
d="M258 -240h-202q12 94 12 216v297q0 121 -12 216h199q-8 -58 -8 -113q47 133 203 133q49 0 93.5 -14t84.5 -43t63.5 -82.5t23.5 -125.5q0 -71 -24 -124.5t-62.5 -82.5t-80.5 -43t-86 -14q-129 0 -216 101v-105q0 -122 12 -216zM402 19q55 0 87 55t32 170q0 98 -33 158.5
t-102 60.5q-61 0 -100.5 -50.5t-39.5 -147.5v-149q74 -97 156 -97z" />
    <glyph glyph-name="q" unicode="q" horiz-adv-x="758" 
d="M702 -240h-202q12 94 12 216v105q-87 -101 -216 -101q-44 0 -86 14t-81 43t-62.5 82.5t-23.5 124.5q0 72 23.5 125.5t63 82.5t84 43t93.5 14q157 0 204 -133q-2 68 -8 113h199q-12 -95 -12 -216v-297q0 -122 12 -216zM356 19q82 0 156 97v149q0 97 -39.5 147.5
t-100.5 50.5q-69 0 -102 -60.5t-33 -158.5q0 -115 32 -170t87 -55z" />
    <glyph glyph-name="r" unicode="r" horiz-adv-x="564" 
d="M546 489q10 -59 -20 -88.5t-87 -11.5q-30 9 -55.5 8t-58.5 -25t-79 -77v-19v-63q0 -121 12 -213h-202q12 92 12 213v63q0 121 -12 213h202q-10 -77 -12 -158q19 24 29 37t28 33.5t31 31.5t32.5 25.5t37.5 20.5t40.5 11.5t48 5t53.5 -6.5z" />
    <glyph glyph-name="s" unicode="s" horiz-adv-x="560" 
d="M293 -20q-100 0 -170 38t-90 110q16 35 51 45t67 -8t41 -56q9 -49 32 -76.5t76 -27.5q43 0 64.5 23t21.5 58t-28 58.5t-120 66.5q-98 47 -126 69q-55 42 -55 99q0 35 20 61.5t53 40.5t68 21t71 7q84 0 147.5 -33.5t92.5 -92.5q-35 -40 -78 -31.5t-58 55.5q-13 41 -34 59
t-66 18q-36 0 -58 -15t-22 -41q0 -28 26.5 -48.5t103.5 -54.5q6 -3 31 -14t31.5 -14t28 -13t28 -15t23 -15.5t22 -18t16 -19t14 -23t7 -25.5t3.5 -30q0 -73 -63.5 -115.5t-170.5 -42.5z" />
    <glyph glyph-name="t" unicode="t" horiz-adv-x="496" 
d="M281 -25q-87 0 -123.5 45t-36.5 136v308h-108v25h17q23 0 42 4t33 9t24.5 17.5t17 20.5t11 27.5t7 29t3.5 35t1 35v38.5h150q0 -167 -131 -216h257v-25h-146v-336q0 -59 11 -83t39 -24q66 0 93 183h21q-18 -129 -61 -179t-121 -50z" />
    <glyph glyph-name="u" unicode="u" horiz-adv-x="684" 
d="M239 -20q-82 0 -126 47.5t-44 155.5v90q0 115 -13 216h192v-371q0 -92 62 -92q79 0 139 119l1 128q0 115 -14 216h192v-489h-191q8 62 10 106q-73 -126 -208 -126z" />
    <glyph glyph-name="v" unicode="v" horiz-adv-x="659" 
d="M474 0h-215l-170 391q-22 49 -56 98h222q8 -44 31 -95l160 -364l115 261q12 21 6.5 41.5t-15 32t-23 28.5t-17.5 30q-12 37 19.5 54t81.5 12q29 -81 -7 -158l-111 -251q-24 -52 -21 -80z" />
    <glyph glyph-name="w" unicode="w" horiz-adv-x="1011" 
d="M973 489q27 -81 -7 -158l-111 -251q-24 -52 -21 -80h-215l-79 181l-45 -101q-24 -52 -21 -80h-215l-170 391q-22 49 -56 98h222q8 -44 31 -95l160 -364l80 182l-78 179q-20 49 -55 98h222q8 -43 30 -95l161 -364l115 261q12 21 6.5 41.5t-15 32t-23 28.5t-17.5 30
q-12 37 19.5 54t81.5 12z" />
    <glyph glyph-name="x" unicode="x" horiz-adv-x="576" 
d="M92 0h-38q24 28 39 52l104 162l-127 211q-25 42 -44 64h229q9 -30 30 -64l79 -128l96 140q24 36 32 52h35l-39 -52l-110 -163l130 -216q23 -38 42 -58h-230q-9 25 -29 58l-81 132l-89 -138q-17 -25 -29 -52z" />
    <glyph glyph-name="y" unicode="y" horiz-adv-x="645" 
d="M229 -189q-50 0 -100 17t-82 50q-6 39 19 62.5t58.5 16t49.5 -45.5q18 -41 36 -58t50 -17q39 0 80 37.5t71 126.5h-178l-153 395q-18 47 -47 94h217q6 -38 27 -92l143 -371l128 371q15 47 22 92h42q-20 -37 -40 -94l-135 -395q-37 -106 -84 -147.5t-124 -41.5z" />
    <glyph glyph-name="z" unicode="z" horiz-adv-x="654" 
d="M611 0h-568v53l342 411h-57q-50 0 -91 -18.5t-70.5 -37t-53.5 -18.5q-61 0 -61 99h524v-53l-342 -412h104q50 0 90 18.5t69 37t53 18.5q61 0 61 -98z" />
    <glyph glyph-name="braceleft" unicode="{" horiz-adv-x="440" 
d="M424 -79v-21q-139 0 -210 63.5t-44 185.5q12 54 13 92.5t-6.5 61.5t-24 36t-35.5 17t-47 4v21q28 0 47 4t36 17t24 35.5t6 61t-13 92.5q-27 122 44 185.5t210 63.5v-21q-79 0 -93 -48.5t13 -158.5q7 -47 5 -82.5t-18 -62t-34 -44t-43 -29t-45.5 -16.5t-40.5 -7v-1
q20 -2 40 -7.5t45 -17t43.5 -29t34.5 -44t18 -62t-5 -82.5q-27 -110 -13 -158.5t93 -48.5z" />
    <glyph glyph-name="bar" unicode="|" horiz-adv-x="171" 
d="M121 -338h-71q15 612 0 1224h71q-15 -612 0 -1224z" />
    <glyph glyph-name="braceright" unicode="}" horiz-adv-x="440" 
d="M16 -100v21q79 0 93 48.5t-13 158.5q-7 47 -5 82.5t18 62t34.5 44t43.5 29t45 17t40 7.5v1q-20 2 -40.5 7t-45.5 16.5t-43 29t-34 44t-18 62t5 82.5q27 110 13 158.5t-93 48.5v21q139 0 210 -63.5t44 -185.5q-12 -54 -13 -92.5t6 -61t24 -35.5t36 -17t47 -4v-21
q-28 0 -47 -4t-36 -17t-24 -36t-6 -61.5t13 -92.5q27 -122 -44 -185.5t-210 -63.5z" />
    <glyph glyph-name="asciitilde" unicode="~" horiz-adv-x="622" 
d="M429 194q-30 0 -61.5 15t-54 32.5t-51.5 32.5t-55 15q-23 0 -42.5 -12.5t-29.5 -25t-26 -37.5l-59 70q69 68 143 68q41 0 80 -24t74.5 -48t67.5 -24q23 0 42.5 12.5t29.5 25t26 37.5l59 -70q-70 -67 -143 -67z" />
    <glyph glyph-name="exclamdown" unicode="&#xa1;" horiz-adv-x="306" 
d="M70 426l83 83l83 -83l-83 -83zM143 259h20q10 -190 25.5 -296t40.5 -190l-76 -85l-77 85q52 174 67 486z" />
    <glyph glyph-name="cent" unicode="&#xa2;" horiz-adv-x="681" 
d="M611 367h21q-31 -102 -95.5 -160t-180.5 -58q-15 0 -41 2q-7 -27 -32 -128l-36 10l38 122q-99 18 -160.5 84.5t-61.5 173.5q0 127 86 195.5t217 68.5q36 0 66 -6q17 63 33 131l35 -10q-27 -84 -40 -127q60 -16 97 -53t51 -85q-32 -46 -80.5 -35t-57.5 67q-7 42 -23 63
q-58 -192 -113 -396q37 -25 91 -25q65 0 114 42t72 124zM257 434q0 -131 55 -189q71 236 112 397q-19 11 -49 11q-63 0 -90.5 -52.5t-27.5 -166.5z" />
    <glyph glyph-name="sterling" unicode="&#xa3;" horiz-adv-x="860" 
d="M188 -20q-56 0 -87 24t-31 67q0 42 30 66.5t82 24.5q12 0 22.5 -1.5t22 -5.5t18 -6.5t19.5 -10.5t16.5 -10t19 -12.5t16.5 -11.5q14 42 14 92q0 58 -45 148q-105 -2 -190 -6l27 38q47 -2 148 -4q-5 12 -20.5 48.5t-21.5 52.5t-16 44.5t-13.5 52.5t-3.5 48q0 55 22.5 95.5
t61 63t83.5 33t97 10.5q96 0 163 -39t106 -137l-140 -63q-23 125 -41 162q-27 53 -82 53q-53 0 -82 -44.5t-29 -115.5q0 -35 2.5 -73t5 -63t7.5 -67.5t7 -61.5q126 0 264 5l-27 -38q-111 6 -233 6q11 -82 11 -128q0 -80 -31 -139q72 -34 127 -34q72 0 107 42.5t42 130.5
l154 -77q-43 -79 -114.5 -119t-150.5 -40q-89 0 -191 64q-56 -64 -146 -64zM197 4q64 0 103 66q-3 2 -12 9t-11.5 9t-10.5 8t-11.5 8t-10.5 7t-10.5 6.5t-9.5 4.5t-10.5 4t-10 2t-10.5 1q-57 0 -57 -62q0 -29 16 -46t45 -17z" />
    <glyph glyph-name="yen" unicode="&#xa5;" horiz-adv-x="819" 
d="M700 707l-153 -336q103 1 193 5v-39q-54 3 -206 5l-7 -14v-76q114 1 213 5v-39q-92 5 -213 5q0 -119 13 -223h-231q12 108 12 223v1q-142 -2 -222 -6v39q57 -3 222 -5v76l-7 15q-136 -2 -215 -6v39q92 -4 200 -5l-166 335q-27 55 -63 94h259q12 -41 38 -94l160 -320
l147 320q24 50 35 94h40q-23 -35 -49 -93z" />
    <glyph glyph-name="brokenbar" unicode="&#xa6;" horiz-adv-x="171" 
d="M121 333h-71q14 247 0 496h71q-14 -249 0 -496zM121 -314h-71q14 247 0 496h71q-14 -249 0 -496z" />
    <glyph glyph-name="section" unicode="&#xa7;" horiz-adv-x="807" 
d="M431 -314q-129 0 -220 57.5t-161 195.5l130 80q32 -140 105 -224.5t167 -84.5q61 0 94.5 26.5t33.5 69.5q0 28 -12 51.5t-48.5 55.5t-75.5 60t-120 83q-136 89 -189 148t-53 134q0 68 46 111t118 56q-53 44 -76 84.5t-23 90.5q0 82 69 127.5t172 45.5q99 0 182 -40.5
t163 -136.5l-137 -65q-18 48 -35 81.5t-43 67.5t-62 51.5t-80 17.5q-54 0 -86 -19.5t-32 -51.5q0 -35 39.5 -70.5t161.5 -111.5q87 -55 137 -91t90 -77t55.5 -81t15.5 -91q0 -130 -130 -184q64 -68 64 -158q0 -98 -75 -153t-185 -55zM604 74q42 26 42 74q0 52 -51.5 99.5
t-205.5 150.5q-84 57 -117 88q-35 -5 -57 -24t-22 -46q0 -36 39.5 -71.5t160.5 -110.5q159 -104 211 -160z" />
    <glyph glyph-name="dieresis" unicode="&#xa8;" horiz-adv-x="477" 
d="M216 661l-83 -82l-83 82l83 83zM427 661l-82 -82l-83 82l83 83z" />
    <glyph glyph-name="copyright" unicode="&#xa9;" horiz-adv-x="829" 
d="M415 36q-161 0 -263 106t-102 258q0 153 102 259t263 106q160 0 262 -106t102 -259q0 -152 -102 -258t-262 -106zM415 60q149 0 244.5 100t95.5 240q0 141 -95.5 241t-244.5 100t-245 -100t-96 -241q0 -140 96 -240t245 -100zM181 401q0 104 71.5 167t170.5 63
q72 0 127.5 -36.5t78.5 -91.5l-83 -41q-6 33 -8 42.5t-10 36t-17 36.5t-26 20t-40 10q-66 0 -103.5 -59t-37.5 -147q0 -76 39 -133.5t109 -57.5q131 0 176 155h20q-22 -85 -81 -139.5t-151 -54.5q-94 0 -164.5 63.5t-70.5 166.5z" />
    <glyph glyph-name="guillemotleft" unicode="&#xab;" horiz-adv-x="634" 
d="M302 21q-43 62 -105.5 123t-126.5 100q64 39 126.5 100t105.5 123q27 0 40.5 -19t10 -42t-21.5 -36q-16 -12 -43 -21t-77 -33t-117 -72q67 -47 117 -71t77 -33t43 -21q18 -13 21.5 -36t-10 -42t-40.5 -20zM513 21q-43 62 -105.5 123t-126.5 100q64 39 126.5 100
t105.5 123q27 0 40.5 -19t10 -42t-21.5 -36q-16 -12 -43 -21t-76.5 -33t-116.5 -72q67 -47 116.5 -71t76.5 -33t43 -21q18 -13 21.5 -36t-10 -42t-40.5 -20z" />
    <glyph glyph-name="logicalnot" unicode="&#xac;" horiz-adv-x="599" 
d="M549 81h-71q13 125 13 239q-243 -1 -441 -13v71q214 -13 486 -13v-45q0 -114 13 -239z" />
    <glyph glyph-name="registered" unicode="&#xae;" horiz-adv-x="836" 
d="M415 36q-161 0 -263 106t-102 258q0 153 102 259t263 106q165 0 268 -106t103 -259q0 -108 -39 -177t-107 -69q-93 0 -148 109q-38 77 -60 96.5t-74 19.5h-13v-29q0 -87 8 -174h-102q8 87 8 174v105q0 87 -8 174h120q224 0 224 -122q0 -104 -191 -118q77 -11 115 -35.5
t66 -80.5q20 -41 37 -60.5t42 -19.5q39 0 68.5 56t29.5 151q0 146 -95.5 243.5t-251.5 97.5q-152 0 -246.5 -97.5t-94.5 -243.5q0 -145 94.5 -242.5t246.5 -97.5q118 0 196 56l11 -20q-83 -60 -207 -60zM345 605v-202h26q58 0 90.5 26t32.5 78q0 98 -123 98h-26z" />
    <glyph glyph-name="macron" unicode="&#xaf;" horiz-adv-x="456" 
d="M50 634v72q179 -15 356 0v-72q-177 18 -356 0z" />
    <glyph glyph-name="degree" unicode="&#xb0;" horiz-adv-x="527" 
d="M264 440q-90 0 -142 55t-52 135t52 135t142 55q89 0 141 -55t52 -135t-52 -135t-141 -55zM264 485q66 0 105.5 41t39.5 104t-39.5 104t-105.5 41t-105.5 -41t-39.5 -104t39.5 -104t105.5 -41z" />
    <glyph glyph-name="plusminus" unicode="&#xb1;" horiz-adv-x="596" 
d="M327 337q81 0 219 7v-71q-138 7 -219 7q2 -66 7 -129h-71q5 63 7 129q-82 0 -220 -7v71q138 -7 220 -7q-2 65 -7 128h71q-5 -63 -7 -128zM50 43v72q248 -14 496 0v-72q-248 15 -496 0z" />
    <glyph glyph-name="acute" unicode="&#xb4;" horiz-adv-x="339" 
d="M59 584l-9 9l171 173q35 0 52 -19.5t15.5 -42t-13.5 -35.5q-18 -19 -47.5 -26t-75.5 -18.5t-93 -40.5z" />
    <glyph glyph-name="paragraph" unicode="&#xb6;" horiz-adv-x="832" 
d="M782 864v-36q-102 8 -138 10q-14 -611 1 -1197h-71q14 586 1 1200q-94 2 -131 2q-14 -613 1 -1202h-71q9 377 6 770h-73q-53 0 -97 11.5t-81 37t-58 71t-21 107.5t21 107t58 70.5t81 37t97 11.5h475z" />
    <glyph glyph-name="periodcentered" unicode="&#xb7;" horiz-adv-x="306" 
d="M236 253l-83 -83l-83 83l83 83z" />
    <glyph glyph-name="cedilla" unicode="&#xb8;" horiz-adv-x="438" 
d="M220 -290q-106 0 -170 81l59 59q20 -62 43.5 -89t60.5 -27q33 0 50 22.5t17 58.5q0 46 -33 71t-102 18v24l34 82h108l-111 -84q93 14 152.5 -16.5t59.5 -88.5q0 -38 -29 -64.5t-65 -36.5t-74 -10z" />
    <glyph glyph-name="guillemotright" unicode="&#xbb;" horiz-adv-x="634" 
d="M127 21q-27 1 -41 20t-10 42t22 36q16 12 43 21t76.5 33t116.5 71q-67 48 -116.5 72t-76.5 33t-43 21q-18 13 -22 36t10 42t41 19q43 -62 105 -123t126 -100q-64 -39 -126 -100t-105 -123zM338 21q-27 1 -40.5 20t-10 42t21.5 36q16 12 43 21t76.5 33t116.5 71
q-67 48 -116.5 72t-76.5 33t-43 21q-18 13 -21.5 36t10 42t40.5 19q43 -62 105.5 -123t126.5 -100q-64 -39 -126.5 -100t-105.5 -123z" />
    <glyph glyph-name="questiondown" unicode="&#xbf;" horiz-adv-x="656" 
d="M280 426l83 83l82 -83l-82 -83zM353 256h20q0 -99 -18 -178.5t-40 -121t-40 -89t-18 -90.5q0 -84 71 -84q54 0 76.5 52t34.5 166l147 -63q-51 -93 -121 -136.5t-165 -43.5q-56 0 -105.5 13.5t-87 48.5t-37.5 87q0 35 15.5 64t40.5 50.5t55 43t60.5 47t55.5 56t40.5 76.5
t15.5 102z" />
    <glyph glyph-name="Agrave" unicode="&#xc0;" horiz-adv-x="784" 
d="M472 873l-9 -9q-47 29 -93 40.5t-75.5 18.5t-47.5 26q-12 13 -13.5 35.5t15.5 42t52 19.5zM501 800l184 -674q19 -71 49 -126h-246q-3 53 -23 126l-43 157h-261l-45 -170q-20 -75 -22 -113h-44q25 51 41 112l163 607q12 46 1 81h246zM290 764l-122 -457h247z" />
    <glyph glyph-name="Aacute" unicode="&#xc1;" horiz-adv-x="784" 
d="M484 949q-18 -19 -47.5 -26t-75.5 -18.5t-93 -40.5l-9 9l171 173q35 0 52 -19.5t15.5 -42t-13.5 -35.5zM501 800l184 -674q19 -71 49 -126h-246q-3 53 -23 126l-43 157h-261l-45 -170q-20 -75 -22 -113h-44q25 51 41 112l163 607q12 46 1 81h246zM290 764l-122 -457h247z
" />
    <glyph glyph-name="Acircumflex" unicode="&#xc2;" horiz-adv-x="784" 
d="M288 894q-13 -17 -36.5 -21.5t-44 10t-22.5 46.5q22 15 61 38t70 43.5t56 43.5q25 -23 56 -43.5t70 -43.5t61 -38q-2 -32 -22.5 -46.5t-44 -10t-36.5 21.5q-7 9 -27 52.5t-57 82.5q-36 -39 -56 -82t-28 -53zM501 800l184 -674q19 -71 49 -126h-246q-3 53 -23 126l-43 157
h-261l-45 -170q-20 -75 -22 -113h-44q25 51 41 112l163 607q12 46 1 81h246zM290 764l-122 -457h247z" />
    <glyph glyph-name="Atilde" unicode="&#xc3;" horiz-adv-x="784" 
d="M295 990q-37 0 -32 -99h-108q3 63 35 93t83 30q28 0 55 -16t44.5 -36t39 -36t38.5 -16q13 0 20.5 9.5t9.5 28t2 30t-1 31.5h108q-3 -63 -35 -93t-83 -30q-35 0 -67.5 26t-60 52t-48.5 26zM501 800l184 -674q19 -71 49 -126h-246q-3 53 -23 126l-43 157h-261l-45 -170
q-20 -75 -22 -113h-44q25 51 41 112l163 607q12 46 1 81h246zM290 764l-122 -457h247z" />
    <glyph glyph-name="Adieresis" unicode="&#xc4;" horiz-adv-x="784" 
d="M266 1024l83 -83l-83 -82l-83 82zM478 1024l82 -83l-82 -82l-83 82zM501 800l184 -674q19 -71 49 -126h-246q-3 53 -23 126l-43 157h-261l-45 -170q-20 -75 -22 -113h-44q25 51 41 112l163 607q12 46 1 81h246zM290 764l-122 -457h247z" />
    <glyph glyph-name="Aring" unicode="&#xc5;" horiz-adv-x="784" 
d="M372 851q-43 0 -71 29.5t-28 69.5t28 69.5t71 29.5q44 0 72 -29.5t28 -69.5t-28 -69.5t-72 -29.5zM372 1025q-33 0 -54 -22.5t-21 -52.5t21 -52.5t54 -22.5t54 22.5t21 52.5t-21 52.5t-54 22.5zM501 800l184 -674q19 -71 49 -126h-246q-3 53 -23 126l-43 157h-261
l-45 -170q-20 -75 -22 -113h-44q25 51 41 112l163 607q12 46 1 81h246zM290 764l-122 -457h247z" />
    <glyph glyph-name="AE" unicode="&#xc6;" horiz-adv-x="1073" 
d="M681 24h75q86 0 144.5 12t162.5 55l-41 -91h-561q13 104 13 223v53h-245l-85 -163q-29 -55 -48 -113h-46q40 58 68 112l318 607q8 15 9 29t-0.5 22t-7.5 30h608l-66 -94q-94 70 -216 70h-82v-344h47q107 0 200 10v-44q-93 10 -200 10h-47v-384zM468 734l-226 -434h232
v277q0 91 -6 157z" />
    <glyph glyph-name="Ccedilla" unicode="&#xc7;" horiz-adv-x="927" 
d="M866 344h21q-80 -331 -338 -361l-83 -63q93 14 152.5 -16.5t59.5 -88.5q0 -38 -29 -64.5t-65 -36.5t-74 -10q-106 0 -170 81l59 59q20 -62 43.5 -89t60.5 -27q33 0 50 22.5t17 58.5q0 46 -33 71t-102 18v24l25 59q-183 11 -291.5 127t-108.5 302q0 126 59.5 220.5
t156.5 142t215 47.5q251 0 365 -242l-190 -53q-33 271 -175 271q-99 0 -154 -105t-55 -267q0 -110 28 -194.5t91 -137t155 -52.5q113 0 194 77.5t116 226.5z" />
    <glyph glyph-name="Egrave" unicode="&#xc8;" horiz-adv-x="702" 
d="M443 873l-9 -9q-47 29 -93 40.5t-75.5 18.5t-47.5 26q-12 13 -13.5 35.5t15.5 42t52 19.5zM631 0h-561q13 104 13 223v354q0 119 -13 223h583l-65 -94q-94 70 -216 70h-83v-344h48q107 0 200 10v-44q-93 10 -200 10h-48v-384h75q86 0 145 12t163 55z" />
    <glyph glyph-name="Eacute" unicode="&#xc9;" horiz-adv-x="702" 
d="M239 864l-9 9l171 173q35 0 52 -19.5t15.5 -42t-13.5 -35.5q-18 -19 -47.5 -26t-75.5 -18.5t-93 -40.5zM631 0h-561q13 104 13 223v354q0 119 -13 223h583l-65 -94q-94 70 -216 70h-83v-344h48q107 0 200 10v-44q-93 10 -200 10h-48v-384h75q86 0 145 12t163 55z" />
    <glyph glyph-name="Ecircumflex" unicode="&#xca;" horiz-adv-x="702" 
d="M156 929q22 15 61 38t70 43.5t56 43.5q25 -23 56 -43.5t70 -43.5t61 -38q-2 -32 -22.5 -46.5t-44 -10t-36.5 21.5q-7 9 -27 52.5t-57 82.5q-36 -39 -56 -82t-28 -53q-13 -17 -36.5 -21.5t-44 10t-22.5 46.5zM631 0h-561q13 104 13 223v354q0 119 -13 223h583l-65 -94
q-94 70 -216 70h-83v-344h48q107 0 200 10v-44q-93 10 -200 10h-48v-384h75q86 0 145 12t163 55z" />
    <glyph glyph-name="Edieresis" unicode="&#xcb;" horiz-adv-x="702" 
d="M320 941l-83 -82l-83 82l83 83zM531 941l-82 -82l-83 82l83 83zM631 0h-561q13 104 13 223v354q0 119 -13 223h583l-65 -94q-94 70 -216 70h-83v-344h48q107 0 200 10v-44q-93 10 -200 10h-48v-384h75q86 0 145 12t163 55z" />
    <glyph glyph-name="Igrave" unicode="&#xcc;" horiz-adv-x="371" 
d="M285 873l-9 -9q-47 29 -93 40.5t-75.5 18.5t-47.5 26q-12 13 -13.5 35.5t15.5 42t52 19.5zM301 0h-231q12 96 12 223v354q0 127 -12 223h231q-12 -96 -12 -223v-354q0 -127 12 -223z" />
    <glyph glyph-name="Iacute" unicode="&#xcd;" horiz-adv-x="371" 
d="M81 864l-9 9l171 173q35 0 52 -19.5t15.5 -42t-13.5 -35.5q-18 -19 -47.5 -26t-75.5 -18.5t-93 -40.5zM301 0h-231q12 96 12 223v354q0 127 -12 223h231q-12 -96 -12 -223v-354q0 -127 12 -223z" />
    <glyph glyph-name="Icircumflex" unicode="&#xce;" horiz-adv-x="371" 
d="M-1 929q22 15 61 38t70 43.5t56 43.5q25 -23 56 -43.5t70 -43.5t61 -38q-2 -32 -22.5 -46.5t-44 -10t-36.5 21.5q-7 9 -27 52.5t-57 82.5q-36 -39 -56 -82t-28 -53q-13 -17 -36.5 -21.5t-44 10t-22.5 46.5zM301 0h-231q12 96 12 223v354q0 127 -12 223h231
q-12 -96 -12 -223v-354q0 -127 12 -223z" />
    <glyph glyph-name="Idieresis" unicode="&#xcf;" horiz-adv-x="371" 
d="M163 941l-83 -82l-83 82l83 83zM374 941l-82 -82l-83 82l83 83zM301 0h-231q12 96 12 223v354q0 127 -12 223h231q-12 -96 -12 -223v-354q0 -127 12 -223z" />
    <glyph glyph-name="Eth" unicode="&#xd0;" horiz-adv-x="895" 
d="M110 800h303q213 0 332.5 -100t119.5 -300q0 -194 -119.5 -297t-332.5 -103h-303q12 96 12 223v178h-112v24h112v152q0 127 -12 223zM329 24h77q110 0 173.5 96.5t63.5 279.5q0 189 -63 282.5t-174 93.5h-77v-351h166v-24h-166v-377z" />
    <glyph glyph-name="Eth" unicode="&#xf0;" horiz-adv-x="895" 
d="M110 800h303q213 0 332.5 -100t119.5 -300q0 -194 -119.5 -297t-332.5 -103h-303q12 96 12 223v178h-112v24h112v152q0 127 -12 223zM329 24h77q110 0 173.5 96.5t63.5 279.5q0 189 -63 282.5t-174 93.5h-77v-351h166v-24h-166v-377z" />
    <glyph glyph-name="Ntilde" unicode="&#xd1;" horiz-adv-x="819" 
d="M509 886q-35 0 -67.5 26t-60 52t-48.5 26q-37 0 -32 -99h-108q3 63 35 93t83 30q28 0 55 -16t44.5 -36t39 -36t38.5 -16q13 0 20.5 9.5t9.5 28t2 30t-1 31.5h108q-3 -63 -35 -93t-83 -30zM115 0h-45q12 96 12 223v354q0 127 -12 223h250l389 -749l7 -1v527q0 115 -12 223
h45q-12 -96 -12 -223v-354q0 -127 12 -223h-250l-389 749l-7 1v-527q0 -127 12 -223z" />
    <glyph glyph-name="Ograve" unicode="&#xd2;" horiz-adv-x="1095" 
d="M647 873l-9 -9q-47 29 -93 40.5t-75.5 18.5t-47.5 26q-12 13 -13.5 35.5t15.5 42t52 19.5zM548 -20q-215 0 -351.5 112t-136.5 308q0 195 137 307.5t351 112.5q213 0 350 -112.5t137 -307.5q0 -196 -137 -308t-350 -112zM548 4q88 0 149.5 56t88.5 143t27 197
q0 109 -27 196t-88.5 143.5t-149.5 56.5q-89 0 -150.5 -56.5t-88.5 -143.5t-27 -196q0 -110 27 -197t88.5 -143t150.5 -56z" />
    <glyph glyph-name="Oacute" unicode="&#xd3;" horiz-adv-x="1095" 
d="M443 864l-9 9l171 173q35 0 52 -19.5t15.5 -42t-13.5 -35.5q-18 -19 -47.5 -26t-75.5 -18.5t-93 -40.5zM548 -20q-215 0 -351.5 112t-136.5 308q0 195 137 307.5t351 112.5q213 0 350 -112.5t137 -307.5q0 -196 -137 -308t-350 -112zM548 4q88 0 149.5 56t88.5 143
t27 197q0 109 -27 196t-88.5 143.5t-149.5 56.5q-89 0 -150.5 -56.5t-88.5 -143.5t-27 -196q0 -110 27 -197t88.5 -143t150.5 -56z" />
    <glyph glyph-name="Ocircumflex" unicode="&#xd4;" horiz-adv-x="1095" 
d="M361 929q22 15 61 38t70 43.5t56 43.5q25 -23 56 -43.5t70 -43.5t61 -38q-2 -32 -22.5 -46.5t-44 -10t-36.5 21.5q-7 9 -27 52.5t-57 82.5q-36 -39 -56 -82t-28 -53q-13 -17 -36.5 -21.5t-44 10t-22.5 46.5zM548 -20q-215 0 -351.5 112t-136.5 308q0 195 137 307.5
t351 112.5q213 0 350 -112.5t137 -307.5q0 -196 -137 -308t-350 -112zM548 4q88 0 149.5 56t88.5 143t27 197q0 109 -27 196t-88.5 143.5t-149.5 56.5q-89 0 -150.5 -56.5t-88.5 -143.5t-27 -196q0 -110 27 -197t88.5 -143t150.5 -56z" />
    <glyph glyph-name="Otilde" unicode="&#xd5;" horiz-adv-x="1095" 
d="M647 886q-35 0 -67.5 26t-60 52t-48.5 26q-37 0 -32 -99h-108q3 63 35 93t83 30q28 0 55 -16t44.5 -36t39 -36t38.5 -16q13 0 20.5 9.5t9.5 28t2 30t-1 31.5h108q-3 -63 -35 -93t-83 -30zM548 -20q-215 0 -351.5 112t-136.5 308q0 195 137 307.5t351 112.5
q213 0 350 -112.5t137 -307.5q0 -196 -137 -308t-350 -112zM548 4q88 0 149.5 56t88.5 143t27 197q0 109 -27 196t-88.5 143.5t-149.5 56.5q-89 0 -150.5 -56.5t-88.5 -143.5t-27 -196q0 -110 27 -197t88.5 -143t150.5 -56z" />
    <glyph glyph-name="Odieresis" unicode="&#xd6;" horiz-adv-x="1095" 
d="M525 941l-83 -82l-83 82l83 83zM736 941l-82 -82l-83 82l83 83zM548 -20q-215 0 -351.5 112t-136.5 308q0 195 137 307.5t351 112.5q213 0 350 -112.5t137 -307.5q0 -196 -137 -308t-350 -112zM548 4q88 0 149.5 56t88.5 143t27 197q0 109 -27 196t-88.5 143.5
t-149.5 56.5q-89 0 -150.5 -56.5t-88.5 -143.5t-27 -196q0 -110 27 -197t88.5 -143t150.5 -56z" />
    <glyph glyph-name="multiply" unicode="&#xd7;" horiz-adv-x="502" 
d="M401 458l50 -50q-98 -88 -160 -150q62 -62 160 -150l-50 -50q-88 98 -150 160q-64 -66 -150 -161l-51 51q95 86 161 150q-66 64 -161 150l51 51q86 -95 150 -161q75 77 150 160z" />
    <glyph glyph-name="Oslash" unicode="&#xd8;" horiz-adv-x="1090" 
d="M818 849l-41 -70q120 -48 189 -145.5t69 -233.5q0 -196 -137 -308t-350 -112q-115 0 -212 34l-44 -76l-20 13l41 72q-118 48 -185.5 145t-67.5 232q0 195 137 307.5t351 112.5q114 0 207 -33l43 75zM282 400q0 -190 77 -298l358 619q-67 75 -169 75q-89 0 -150.5 -56.5
t-88.5 -143.5t-27 -196zM548 4q88 0 149.5 56t88.5 143t27 197q0 191 -80 301l-358 -619q67 -78 173 -78z" />
    <glyph glyph-name="Ugrave" unicode="&#xd9;" horiz-adv-x="797" 
d="M572 873l-9 -9q-47 29 -93 40.5t-75.5 18.5t-47.5 26q-12 13 -13.5 35.5t15.5 42t52 19.5zM447 -20q-86 0 -150.5 16t-117 55t-80 111.5t-27.5 177.5v237q0 127 -12 223h231q-12 -96 -12 -223v-237q0 -176 44.5 -248t160.5 -72q112 0 164.5 72.5t52.5 247.5v237
q0 115 -12 223h48q-12 -108 -12 -223v-237q0 -194 -65.5 -277t-212.5 -83z" />
    <glyph glyph-name="Uacute" unicode="&#xda;" horiz-adv-x="797" 
d="M368 864l-9 9l171 173q35 0 52 -19.5t15.5 -42t-13.5 -35.5q-18 -19 -47.5 -26t-75.5 -18.5t-93 -40.5zM447 -20q-86 0 -150.5 16t-117 55t-80 111.5t-27.5 177.5v237q0 127 -12 223h231q-12 -96 -12 -223v-237q0 -176 44.5 -248t160.5 -72q112 0 164.5 72.5t52.5 247.5
v237q0 115 -12 223h48q-12 -108 -12 -223v-237q0 -194 -65.5 -277t-212.5 -83z" />
    <glyph glyph-name="Ucircumflex" unicode="&#xdb;" horiz-adv-x="797" 
d="M285 929q22 15 61 38t70 43.5t56 43.5q25 -23 56 -43.5t70 -43.5t61 -38q-2 -32 -22.5 -46.5t-44 -10t-36.5 21.5q-7 9 -27 52.5t-57 82.5q-36 -39 -56 -82t-28 -53q-13 -17 -36.5 -21.5t-44 10t-22.5 46.5zM447 -20q-86 0 -150.5 16t-117 55t-80 111.5t-27.5 177.5v237
q0 127 -12 223h231q-12 -96 -12 -223v-237q0 -176 44.5 -248t160.5 -72q112 0 164.5 72.5t52.5 247.5v237q0 115 -12 223h48q-12 -108 -12 -223v-237q0 -194 -65.5 -277t-212.5 -83z" />
    <glyph glyph-name="Udieresis" unicode="&#xdc;" horiz-adv-x="797" 
d="M449 941l-83 -82l-83 82l83 83zM660 941l-82 -82l-83 82l83 83zM447 -20q-86 0 -150.5 16t-117 55t-80 111.5t-27.5 177.5v237q0 127 -12 223h231q-12 -96 -12 -223v-237q0 -176 44.5 -248t160.5 -72q112 0 164.5 72.5t52.5 247.5v237q0 115 -12 223h48
q-12 -108 -12 -223v-237q0 -194 -65.5 -277t-212.5 -83z" />
    <glyph glyph-name="Yacute" unicode="&#xdd;" horiz-adv-x="779" 
d="M371 864l-9 9l171 173q35 0 52 -19.5t15.5 -42t-13.5 -35.5q-18 -19 -47.5 -26t-75.5 -18.5t-93 -40.5zM520 0h-231q12 108 12 223v105l-188 378q-27 55 -63 94h259q12 -41 38 -94l160 -320l147 320q24 50 35 94h40q-23 -35 -49 -93l-173 -379v-105q0 -119 13 -223z" />
    <glyph glyph-name="Thorn" unicode="&#xde;" horiz-adv-x="772" 
d="M295 0h-231q12 96 12 223v354q0 127 -12 223h224q-8 -72 -8 -153v-14h65q82 0 143.5 -8.5t117.5 -30.5t86 -66.5t30 -109.5q0 -53 -20.5 -92t-54 -62t-84.5 -37t-102 -19t-116 -5h-62v-23q0 -72 12 -180zM283 609v-382h44q80 0 126.5 43t46.5 148t-46.5 148t-126.5 43
h-44z" />
    <glyph glyph-name="germandbls" unicode="&#xdf;" horiz-adv-x="829" 
d="M509 -20q-128 0 -202 113q18 35 51.5 47.5t61 -2.5t28.5 -52q2 -44 13.5 -63t41.5 -19q42 0 62 49t20 128q0 119 -56 184t-171 98l205 271q-45 62 -142 62q-42 0 -72.5 -13t-47 -32t-26 -49t-12 -56t-2.5 -61v-362q0 -129 13 -223h-204q13 104 13 223v349q0 65 28 114.5
t76 77.5t106 42t125 14q78 0 218 -20v-10l-235 -310q55 -8 99 -17.5t99 -30.5t92 -49t62.5 -74t25.5 -104q0 -93 -71 -159t-199 -66z" />
    <glyph glyph-name="agrave" unicode="&#xe0;" horiz-adv-x="678" 
d="M456 593l-9 -9q-47 29 -93 40.5t-75.5 18.5t-47.5 26q-12 13 -13.5 35.5t15.5 42t52 19.5zM233 -20q-46 0 -84.5 12t-67 44t-28.5 80q0 31 11.5 57t34.5 44t45 30.5t56.5 22t54 14t51.5 10.5q69 12 97.5 34.5t28.5 69.5q0 86 -75 86q-23 0 -41.5 -5.5t-32 -18.5
t-21.5 -22.5t-20 -28t-17 -25.5q-23 -30 -55.5 -37t-60 13t-35.5 60q58 38 139 63.5t169 25.5q228 0 228 -163v-130q0 -124 15 -216h-181q-10 51 -11 96q-45 -116 -200 -116zM322 40q50 0 80 42.5t30 106.5v131q-16 -20 -88 -43q-97 -35 -97 -131q0 -106 75 -106z" />
    <glyph glyph-name="aacute" unicode="&#xe1;" horiz-adv-x="678" 
d="M252 584l-9 9l171 173q35 0 52 -19.5t15.5 -42t-13.5 -35.5q-18 -19 -47.5 -26t-75.5 -18.5t-93 -40.5zM233 -20q-46 0 -84.5 12t-67 44t-28.5 80q0 31 11.5 57t34.5 44t45 30.5t56.5 22t54 14t51.5 10.5q69 12 97.5 34.5t28.5 69.5q0 86 -75 86q-23 0 -41.5 -5.5
t-32 -18.5t-21.5 -22.5t-20 -28t-17 -25.5q-23 -30 -55.5 -37t-60 13t-35.5 60q58 38 139 63.5t169 25.5q228 0 228 -163v-130q0 -124 15 -216h-181q-10 51 -11 96q-45 -116 -200 -116zM322 40q50 0 80 42.5t30 106.5v131q-16 -20 -88 -43q-97 -35 -97 -131q0 -106 75 -106z
" />
    <glyph glyph-name="acircumflex" unicode="&#xe2;" horiz-adv-x="678" 
d="M169 649q22 15 61 38t70 43.5t56 43.5q25 -23 56 -43.5t70 -43.5t61 -38q-2 -32 -22.5 -46.5t-44 -10t-36.5 21.5q-7 9 -27 52.5t-57 82.5q-36 -39 -56 -82t-28 -53q-13 -17 -36.5 -21.5t-44 10t-22.5 46.5zM233 -20q-46 0 -84.5 12t-67 44t-28.5 80q0 31 11.5 57
t34.5 44t45 30.5t56.5 22t54 14t51.5 10.5q69 12 97.5 34.5t28.5 69.5q0 86 -75 86q-23 0 -41.5 -5.5t-32 -18.5t-21.5 -22.5t-20 -28t-17 -25.5q-23 -30 -55.5 -37t-60 13t-35.5 60q58 38 139 63.5t169 25.5q228 0 228 -163v-130q0 -124 15 -216h-181q-10 51 -11 96
q-45 -116 -200 -116zM322 40q50 0 80 42.5t30 106.5v131q-16 -20 -88 -43q-97 -35 -97 -131q0 -106 75 -106z" />
    <glyph glyph-name="atilde" unicode="&#xe3;" horiz-adv-x="678" 
d="M455 606q-35 0 -67.5 26t-60 52t-48.5 26q-37 0 -32 -99h-108q3 63 35 93t83 30q28 0 55 -16t44.5 -36t39 -36t38.5 -16q13 0 20.5 9.5t9.5 28t2 30t-1 31.5h108q-3 -63 -35 -93t-83 -30zM233 -20q-46 0 -84.5 12t-67 44t-28.5 80q0 31 11.5 57t34.5 44t45 30.5t56.5 22
t54 14t51.5 10.5q69 12 97.5 34.5t28.5 69.5q0 86 -75 86q-23 0 -41.5 -5.5t-32 -18.5t-21.5 -22.5t-20 -28t-17 -25.5q-23 -30 -55.5 -37t-60 13t-35.5 60q58 38 139 63.5t169 25.5q228 0 228 -163v-130q0 -124 15 -216h-181q-10 51 -11 96q-45 -116 -200 -116zM322 40
q50 0 80 42.5t30 106.5v131q-16 -20 -88 -43q-97 -35 -97 -131q0 -106 75 -106z" />
    <glyph glyph-name="adieresis" unicode="&#xe4;" horiz-adv-x="678" 
d="M333 661l-83 -82l-83 82l83 83zM544 661l-82 -82l-83 82l83 83zM233 -20q-46 0 -84.5 12t-67 44t-28.5 80q0 31 11.5 57t34.5 44t45 30.5t56.5 22t54 14t51.5 10.5q69 12 97.5 34.5t28.5 69.5q0 86 -75 86q-23 0 -41.5 -5.5t-32 -18.5t-21.5 -22.5t-20 -28t-17 -25.5
q-23 -30 -55.5 -37t-60 13t-35.5 60q58 38 139 63.5t169 25.5q228 0 228 -163v-130q0 -124 15 -216h-181q-10 51 -11 96q-45 -116 -200 -116zM322 40q50 0 80 42.5t30 106.5v131q-16 -20 -88 -43q-97 -35 -97 -131q0 -106 75 -106z" />
    <glyph glyph-name="aring" unicode="&#xe5;" horiz-adv-x="678" 
d="M356 571q-43 0 -71 29.5t-28 69.5t28 69.5t71 29.5q44 0 72 -29.5t28 -69.5t-28 -69.5t-72 -29.5zM356 595q33 0 54 22.5t21 52.5t-21 52.5t-54 22.5t-54 -22.5t-21 -52.5t21 -52.5t54 -22.5zM233 -20q-46 0 -84.5 12t-67 44t-28.5 80q0 31 11.5 57t34.5 44t45 30.5
t56.5 22t54 14t51.5 10.5q69 12 97.5 34.5t28.5 69.5q0 86 -75 86q-23 0 -41.5 -5.5t-32 -18.5t-21.5 -22.5t-20 -28t-17 -25.5q-23 -30 -55.5 -37t-60 13t-35.5 60q58 38 139 63.5t169 25.5q228 0 228 -163v-130q0 -124 15 -216h-181q-10 51 -11 96q-45 -116 -200 -116z
M322 40q50 0 80 42.5t30 106.5v131q-16 -20 -88 -43q-97 -35 -97 -131q0 -106 75 -106z" />
    <glyph glyph-name="ae" unicode="&#xe6;" horiz-adv-x="1072" 
d="M1019 191h20q-66 -211 -288 -211q-87 0 -160.5 31t-115.5 90q-66 -121 -235 -121q-77 0 -132 33t-55 104q0 31 11.5 56.5t34.5 43.5t45 30.5t56.5 22t54 14t51.5 10.5q69 12 97.5 34.5t28.5 69.5q0 86 -75 86q-23 0 -41.5 -5.5t-32 -18.5t-21.5 -22.5t-20 -28t-17 -25.5
q-23 -30 -55.5 -37t-60 13t-35.5 60q57 38 136.5 63.5t157.5 25.5q120 0 169 -61q87 61 206 61q124 0 198 -62.5t76 -155.5h-390q-1 -10 -1 -32q0 -102 48.5 -167.5t137.5 -65.5q67 0 122 40t85 125zM739 484q-96 0 -110 -168h201q0 168 -91 168zM432 203v117
q-16 -20 -88 -43q-97 -35 -97 -130q0 -107 75 -107q51 0 80.5 45t29.5 118z" />
    <glyph glyph-name="ccedilla" unicode="&#xe7;" horiz-adv-x="645" 
d="M591 199h21q-61 -202 -242 -218l-81 -61q93 14 152.5 -16.5t59.5 -88.5q0 -38 -29 -64.5t-65 -36.5t-74 -10q-106 0 -170 81l59 59q20 -62 43.5 -89t60.5 -27q33 0 50 22.5t17 58.5q0 46 -33 71t-102 18v24l25 61q-106 14 -173 81.5t-67 179.5q0 128 85.5 196.5
t217.5 68.5q100 0 162 -42.5t80 -108.5q-32 -46 -80.5 -35t-57.5 67q-8 45 -27.5 69.5t-67.5 24.5q-63 0 -90.5 -52t-27.5 -166q0 -106 39.5 -169.5t128.5 -63.5q65 0 114 42t72 124z" />
    <glyph glyph-name="egrave" unicode="&#xe8;" horiz-adv-x="683" 
d="M456 593l-9 -9q-47 29 -93 40.5t-75.5 18.5t-47.5 26q-12 13 -13.5 35.5t15.5 42t52 19.5zM363 -20q-87 0 -158 29t-116.5 90t-45.5 145q0 83 45.5 145t115 91t150.5 29q124 0 198 -62.5t76 -155.5h-390q-1 -10 -1 -32q0 -102 48.5 -167.5t137.5 -65.5q67 0 122 40
t85 125h20q-66 -211 -287 -211zM240 316h201q0 168 -90 168q-97 0 -111 -168z" />
    <glyph glyph-name="eacute" unicode="&#xe9;" horiz-adv-x="683" 
d="M252 584l-9 9l171 173q35 0 52 -19.5t15.5 -42t-13.5 -35.5q-18 -19 -47.5 -26t-75.5 -18.5t-93 -40.5zM363 -20q-87 0 -158 29t-116.5 90t-45.5 145q0 83 45.5 145t115 91t150.5 29q124 0 198 -62.5t76 -155.5h-390q-1 -10 -1 -32q0 -102 48.5 -167.5t137.5 -65.5
q67 0 122 40t85 125h20q-66 -211 -287 -211zM240 316h201q0 168 -90 168q-97 0 -111 -168z" />
    <glyph glyph-name="ecircumflex" unicode="&#xea;" horiz-adv-x="683" 
d="M170 649q22 15 61 38t70 43.5t56 43.5q25 -23 56 -43.5t70 -43.5t61 -38q-2 -32 -22.5 -46.5t-44 -10t-36.5 21.5q-7 9 -27 52.5t-57 82.5q-36 -39 -56 -82t-28 -53q-13 -17 -36.5 -21.5t-44 10t-22.5 46.5zM363 -20q-87 0 -158 29t-116.5 90t-45.5 145q0 83 45.5 145
t115 91t150.5 29q124 0 198 -62.5t76 -155.5h-390q-1 -10 -1 -32q0 -102 48.5 -167.5t137.5 -65.5q67 0 122 40t85 125h20q-66 -211 -287 -211zM240 316h201q0 168 -90 168q-97 0 -111 -168z" />
    <glyph glyph-name="edieresis" unicode="&#xeb;" horiz-adv-x="683" 
d="M334 661l-83 -82l-83 82l83 83zM545 661l-82 -82l-83 82l83 83zM363 -20q-87 0 -158 29t-116.5 90t-45.5 145q0 83 45.5 145t115 91t150.5 29q124 0 198 -62.5t76 -155.5h-390q-1 -10 -1 -32q0 -102 48.5 -167.5t137.5 -65.5q67 0 122 40t85 125h20q-66 -211 -287 -211z
M240 316h201q0 168 -90 168q-97 0 -111 -168z" />
    <glyph glyph-name="igrave" unicode="&#xec;" horiz-adv-x="302" 
d="M251 593l-9 -9q-47 29 -93 40.5t-75.5 18.5t-47.5 26q-12 13 -13.5 35.5t15.5 42t52 19.5zM252 0h-202q12 92 12 213v63q0 121 -12 213h202q-12 -92 -12 -213v-63q0 -121 12 -213z" />
    <glyph glyph-name="iacute" unicode="&#xed;" horiz-adv-x="302" 
d="M47 584l-9 9l171 173q35 0 52 -19.5t15.5 -42t-13.5 -35.5q-18 -19 -47.5 -26t-75.5 -18.5t-93 -40.5zM252 0h-202q12 92 12 213v63q0 121 -12 213h202q-12 -92 -12 -213v-63q0 -121 12 -213z" />
    <glyph glyph-name="icircumflex" unicode="&#xee;" horiz-adv-x="302" 
d="M-36 649q22 15 61 38t70 43.5t56 43.5q25 -23 56 -43.5t70 -43.5t61 -38q-2 -32 -22.5 -46.5t-44 -10t-36.5 21.5q-7 9 -27 52.5t-57 82.5q-36 -39 -56 -82t-28 -53q-13 -17 -36.5 -21.5t-44 10t-22.5 46.5zM252 0h-202q12 92 12 213v63q0 121 -12 213h202
q-12 -92 -12 -213v-63q0 -121 12 -213z" />
    <glyph glyph-name="idieresis" unicode="&#xef;" horiz-adv-x="302" 
d="M128 661l-83 -82l-83 82l83 83zM339 661l-82 -82l-83 82l83 83zM252 0h-202q12 92 12 213v63q0 121 -12 213h202q-12 -92 -12 -213v-63q0 -121 12 -213z" />
    <glyph glyph-name="ntilde" unicode="&#xf1;" horiz-adv-x="695" 
d="M285 710q-37 0 -32 -99h-108q3 63 35 93t83 30q28 0 55 -16t44.5 -36t39 -36t38.5 -16q13 0 20.5 9.5t9.5 28t2 30t-1 31.5h108q-3 -63 -35 -93t-83 -30q-35 0 -67.5 26t-60 52t-48.5 26zM639 0h-203q12 100 12 216v154q0 93 -62 93q-78 0 -140 -122v-65v-63
q0 -121 12 -213h-202q12 92 12 213v63q0 121 -12 213h202q-9 -61 -10 -107q75 127 209 127q170 0 170 -204v-89q0 -116 12 -216z" />
    <glyph glyph-name="ograve" unicode="&#xf2;" horiz-adv-x="758" 
d="M479 593l-9 -9q-47 29 -93 40.5t-75.5 18.5t-47.5 26q-12 13 -13.5 35.5t15.5 42t52 19.5zM379 -20q-148 0 -242 69t-94 195q0 127 94 196t242 69t242 -69t94 -196q0 -126 -94 -195t-242 -69zM379 4q142 0 142 240t-142 240t-142 -240t142 -240z" />
    <glyph glyph-name="oacute" unicode="&#xf3;" horiz-adv-x="758" 
d="M274 584l-9 9l171 173q35 0 52 -19.5t15.5 -42t-13.5 -35.5q-18 -19 -47.5 -26t-75.5 -18.5t-93 -40.5zM379 -20q-148 0 -242 69t-94 195q0 127 94 196t242 69t242 -69t94 -196q0 -126 -94 -195t-242 -69zM379 4q142 0 142 240t-142 240t-142 -240t142 -240z" />
    <glyph glyph-name="ocircumflex" unicode="&#xf4;" horiz-adv-x="758" 
d="M192 649q22 15 61 38t70 43.5t56 43.5q25 -23 56 -43.5t70 -43.5t61 -38q-2 -32 -22.5 -46.5t-44 -10t-36.5 21.5q-7 9 -27 52.5t-57 82.5q-36 -39 -56 -82t-28 -53q-13 -17 -36.5 -21.5t-44 10t-22.5 46.5zM379 -20q-148 0 -242 69t-94 195q0 127 94 196t242 69t242 -69
t94 -196q0 -126 -94 -195t-242 -69zM379 4q142 0 142 240t-142 240t-142 -240t142 -240z" />
    <glyph glyph-name="otilde" unicode="&#xf5;" horiz-adv-x="758" 
d="M478 606q-35 0 -67.5 26t-60 52t-48.5 26q-38 0 -32 -99h-108q3 63 35 93t83 30q28 0 55 -16t44.5 -36t39 -36t38.5 -16q37 0 31 99h108q-3 -63 -35 -93t-83 -30zM379 -20q-148 0 -242 69t-94 195q0 127 94 196t242 69t242 -69t94 -196q0 -126 -94 -195t-242 -69zM379 4
q142 0 142 240t-142 240t-142 -240t142 -240z" />
    <glyph glyph-name="odieresis" unicode="&#xf6;" horiz-adv-x="758" 
d="M356 661l-83 -82l-83 82l83 83zM567 661l-82 -82l-83 82l83 83zM379 -20q-148 0 -242 69t-94 195q0 127 94 196t242 69t242 -69t94 -196q0 -126 -94 -195t-242 -69zM379 4q142 0 142 240t-142 240t-142 -240t142 -240z" />
    <glyph glyph-name="divide" unicode="&#xf7;" horiz-adv-x="596" 
d="M381 445l-83 -83l-82 83l82 83zM50 224v72q248 -14 496 0v-72q-248 14 -496 0zM381 75l-83 -83l-82 83l82 83z" />
    <glyph glyph-name="oslash" unicode="&#xf8;" horiz-adv-x="758" 
d="M576 562l-44 -76q86 -29 134.5 -90.5t48.5 -151.5q0 -126 -94 -195t-242 -69q-72 0 -129 16l-47 -81l-21 12l44 76q-85 29 -134 90t-49 151q0 127 94 196t242 69q72 0 129 -16l47 81zM237 244q0 -112 30 -170l210 364q-36 46 -98 46q-142 0 -142 -240zM379 4
q142 0 142 240q0 111 -30 171l-210 -365q34 -46 98 -46z" />
    <glyph glyph-name="ugrave" unicode="&#xf9;" horiz-adv-x="684" 
d="M448 593l-9 -9q-47 29 -93 40.5t-75.5 18.5t-47.5 26q-12 13 -13.5 35.5t15.5 42t52 19.5zM239 -20q-82 0 -126 47.5t-44 155.5v90q0 115 -13 216h192v-371q0 -92 62 -92q79 0 139 119l1 128q0 115 -14 216h192v-489h-191q8 62 10 106q-73 -126 -208 -126z" />
    <glyph glyph-name="uacute" unicode="&#xfa;" horiz-adv-x="684" 
d="M244 584l-9 9l171 173q35 0 52 -19.5t15.5 -42t-13.5 -35.5q-18 -19 -47.5 -26t-75.5 -18.5t-93 -40.5zM239 -20q-82 0 -126 47.5t-44 155.5v90q0 115 -13 216h192v-371q0 -92 62 -92q79 0 139 119l1 128q0 115 -14 216h192v-489h-191q8 62 10 106q-73 -126 -208 -126z
" />
    <glyph glyph-name="ucircumflex" unicode="&#xfb;" horiz-adv-x="684" 
d="M161 649q22 15 61 38t70 43.5t56 43.5q25 -23 56 -43.5t70 -43.5t61 -38q-2 -32 -22.5 -46.5t-44 -10t-36.5 21.5q-7 9 -27 52.5t-57 82.5q-36 -39 -56 -82t-28 -53q-13 -17 -36.5 -21.5t-44 10t-22.5 46.5zM239 -20q-82 0 -126 47.5t-44 155.5v90q0 115 -13 216h192
v-371q0 -92 62 -92q79 0 139 119l1 128q0 115 -14 216h192v-489h-191q8 62 10 106q-73 -126 -208 -126z" />
    <glyph glyph-name="udieresis" unicode="&#xfc;" horiz-adv-x="684" 
d="M325 661l-83 -82l-83 82l83 83zM536 661l-82 -82l-83 82l83 83zM239 -20q-82 0 -126 47.5t-44 155.5v90q0 115 -13 216h192v-371q0 -92 62 -92q79 0 139 119l1 128q0 115 -14 216h192v-489h-191q8 62 10 106q-73 -126 -208 -126z" />
    <glyph glyph-name="yacute" unicode="&#xfd;" horiz-adv-x="645" 
d="M230 584l-9 9l171 173q35 0 52 -19.5t15.5 -42t-13.5 -35.5q-18 -19 -47.5 -26t-75.5 -18.5t-93 -40.5zM229 -189q-50 0 -100 17t-82 50q-6 39 19 62.5t58.5 16t49.5 -45.5q18 -41 36 -58t50 -17q39 0 80 37.5t71 126.5h-178l-153 395q-18 47 -47 94h217q6 -38 27 -92
l143 -371l128 371q15 47 22 92h42q-20 -37 -40 -94l-135 -395q-37 -106 -84 -147.5t-124 -41.5z" />
    <glyph glyph-name="thorn" unicode="&#xfe;" horiz-adv-x="774" 
d="M267 -240h-203q12 94 12 216v608q0 122 -12 216h199q-8 -94 -8 -216v-210q45 135 204 135q49 0 93.5 -14t84.5 -43t63.5 -82.5t23.5 -125.5q0 -71 -24 -124.5t-63 -82.5t-81 -43t-86 -14q-130 0 -215 101v-105q0 -122 12 -216zM410 19q55 0 87.5 55.5t32.5 169.5
q0 98 -33 158.5t-103 60.5q-61 0 -100 -50.5t-39 -147.5v-149q72 -97 155 -97z" />
    <glyph glyph-name="ydieresis" unicode="&#xff;" horiz-adv-x="645" 
d="M312 661l-83 -82l-83 82l83 83zM523 661l-82 -82l-83 82l83 83zM229 -189q-50 0 -100 17t-82 50q-6 39 19 62.5t58.5 16t49.5 -45.5q18 -41 36 -58t50 -17q39 0 80 37.5t71 126.5h-178l-153 395q-18 47 -47 94h217q6 -38 27 -92l143 -371l128 371q15 47 22 92h42
q-20 -37 -40 -94l-135 -395q-37 -106 -84 -147.5t-124 -41.5z" />
    <glyph glyph-name="Amacron" unicode="&#x100;" horiz-adv-x="784" 
d="M550 986v-72q-177 18 -356 0v72q179 -15 356 0zM501 800l184 -674q19 -71 49 -126h-246q-3 53 -23 126l-43 157h-261l-45 -170q-20 -75 -22 -113h-44q25 51 41 112l163 607q12 46 1 81h246zM290 764l-122 -457h247z" />
    <glyph glyph-name="amacron" unicode="&#x101;" horiz-adv-x="678" 
d="M179 634v72q179 -15 356 0v-72q-177 18 -356 0zM233 -20q-46 0 -84.5 12t-67 44t-28.5 80q0 31 11.5 57t34.5 44t45 30.5t56.5 22t54 14t51.5 10.5q69 12 97.5 34.5t28.5 69.5q0 86 -75 86q-23 0 -41.5 -5.5t-32 -18.5t-21.5 -22.5t-20 -28t-17 -25.5q-23 -30 -55.5 -37
t-60 13t-35.5 60q58 38 139 63.5t169 25.5q228 0 228 -163v-130q0 -124 15 -216h-181q-10 51 -11 96q-45 -116 -200 -116zM322 40q50 0 80 42.5t30 106.5v131q-16 -20 -88 -43q-97 -35 -97 -131q0 -106 75 -106z" />
    <glyph glyph-name="Abreve" unicode="&#x102;" horiz-adv-x="784" 
d="M372 865q-170 0 -176 154h108q-2 -64 12 -97t56 -33t56 33t12 97h109q-6 -154 -177 -154zM501 800l184 -674q19 -71 49 -126h-246q-3 53 -23 126l-43 157h-261l-45 -170q-20 -75 -22 -113h-44q25 51 41 112l163 607q12 46 1 81h246zM290 764l-122 -457h247z" />
    <glyph glyph-name="abreve" unicode="&#x103;" horiz-adv-x="678" 
d="M356 585q-170 0 -176 154h108q-2 -64 12 -97t56 -33t56 33t12 97h109q-6 -154 -177 -154zM233 -20q-46 0 -84.5 12t-67 44t-28.5 80q0 31 11.5 57t34.5 44t45 30.5t56.5 22t54 14t51.5 10.5q69 12 97.5 34.5t28.5 69.5q0 86 -75 86q-23 0 -41.5 -5.5t-32 -18.5
t-21.5 -22.5t-20 -28t-17 -25.5q-23 -30 -55.5 -37t-60 13t-35.5 60q58 38 139 63.5t169 25.5q228 0 228 -163v-130q0 -124 15 -216h-181q-10 51 -11 96q-45 -116 -200 -116zM322 40q50 0 80 42.5t30 106.5v131q-16 -20 -88 -43q-97 -35 -97 -131q0 -106 75 -106z" />
    <glyph glyph-name="Aogonek" unicode="&#x104;" horiz-adv-x="784" 
d="M559 -266q41 0 65 37t46 108l58 -58q-20 -28 -34 -44t-36 -33.5t-50 -25.5t-63 -8q-65 0 -110 28t-45 80q0 40 29 68.5t82.5 59t78.5 54.5h-92q-3 53 -23 126l-43 157h-261l-45 -170q-20 -75 -22 -113h-44q25 51 41 112l163 607q12 46 1 81h246l184 -674q19 -71 49 -126
h-129q-7 -8 -24.5 -27.5t-22.5 -25.5l-17.5 -21t-16 -21.5t-11 -19.5t-9.5 -22.5t-4 -22.5t-2 -27q0 -36 17 -57.5t44 -21.5zM290 764l-122 -457h247z" />
    <glyph glyph-name="aogonek" unicode="&#x105;" horiz-adv-x="678" 
d="M609 -121l58 -58q-20 -28 -34 -44t-36 -33.5t-50 -25.5t-63 -8q-65 0 -110 28t-45 80q0 40 29 68.5t82.5 59t78.5 54.5h-75q-10 51 -11 96q-45 -116 -200 -116q-46 0 -84.5 12t-67 44t-28.5 80q0 31 11.5 57t34.5 44t45 30.5t56.5 22t54 14t51.5 10.5q69 12 97.5 34.5
t28.5 69.5q0 86 -75 86q-23 0 -41.5 -5.5t-32 -18.5t-21.5 -22.5t-20 -28t-17 -25.5q-23 -30 -55.5 -37t-60 13t-35.5 60q58 38 139 63.5t169 25.5q228 0 228 -163v-130q0 -124 15 -216h-81q-7 -8 -24.5 -27.5t-22.5 -25.5l-17.5 -21t-16 -21.5t-11 -19.5t-9.5 -22.5
t-4 -22.5t-2 -27q0 -36 17 -57.5t44 -21.5q41 0 65 37t46 108zM432 189v131q-16 -20 -88 -43q-97 -35 -97 -131q0 -106 75 -106q50 0 80 42.5t30 106.5z" />
    <glyph glyph-name="Cacute" unicode="&#x106;" horiz-adv-x="927" 
d="M390 864l-9 9l171 173q35 0 52 -19.5t15.5 -42t-13.5 -35.5q-18 -19 -47.5 -26t-75.5 -18.5t-93 -40.5zM496 -20q-197 0 -316.5 117.5t-119.5 312.5q0 126 59.5 220.5t156.5 142t215 47.5q251 0 365 -242l-190 -53q-33 271 -175 271q-99 0 -154 -105t-55 -267
q0 -110 28 -194.5t91 -137t155 -52.5q113 0 194 77.5t116 226.5h21q-88 -364 -391 -364z" />
    <glyph glyph-name="cacute" unicode="&#x107;" horiz-adv-x="645" 
d="M225 584l-9 9l171 173q35 0 52 -19.5t15.5 -42t-13.5 -35.5q-18 -19 -47.5 -26t-75.5 -18.5t-93 -40.5zM336 -20q-80 0 -145 28.5t-106.5 89.5t-41.5 146q0 128 85.5 196.5t217.5 68.5q100 0 162 -42.5t80 -108.5q-32 -46 -80.5 -35t-57.5 67q-8 45 -27.5 69.5
t-67.5 24.5q-63 0 -90.5 -52t-27.5 -166q0 -106 39.5 -169.5t128.5 -63.5q65 0 114 42t72 124h21q-31 -102 -95 -160.5t-181 -58.5z" />
    <glyph glyph-name="Cdotaccent" unicode="&#x10a;" horiz-adv-x="927" 
d="M578 941l-83 -82l-83 82l83 83zM496 -20q-197 0 -316.5 117.5t-119.5 312.5q0 126 59.5 220.5t156.5 142t215 47.5q251 0 365 -242l-190 -53q-33 271 -175 271q-99 0 -154 -105t-55 -267q0 -110 28 -194.5t91 -137t155 -52.5q113 0 194 77.5t116 226.5h21
q-88 -364 -391 -364z" />
    <glyph glyph-name="cdotaccent" unicode="&#x10b;" horiz-adv-x="645" 
d="M413 661l-83 -82l-83 82l83 83zM336 -20q-80 0 -145 28.5t-106.5 89.5t-41.5 146q0 128 85.5 196.5t217.5 68.5q100 0 162 -42.5t80 -108.5q-32 -46 -80.5 -35t-57.5 67q-8 45 -27.5 69.5t-67.5 24.5q-63 0 -90.5 -52t-27.5 -166q0 -106 39.5 -169.5t128.5 -63.5
q65 0 114 42t72 124h21q-31 -102 -95 -160.5t-181 -58.5z" />
    <glyph glyph-name="Ccaron" unicode="&#x10c;" horiz-adv-x="927" 
d="M308 978q2 32 22.5 46.5t44 10t36.5 -21.5q8 -10 28 -53t56 -82q37 39 57 82.5t27 52.5q13 17 36.5 21.5t44 -10t22.5 -46.5q-22 -15 -61 -37.5t-70 -43t-56 -43.5q-25 23 -56 43.5t-70 43t-61 37.5zM496 -20q-197 0 -316.5 117.5t-119.5 312.5q0 126 59.5 220.5
t156.5 142t215 47.5q251 0 365 -242l-190 -53q-33 271 -175 271q-99 0 -154 -105t-55 -267q0 -110 28 -194.5t91 -137t155 -52.5q113 0 194 77.5t116 226.5h21q-88 -364 -391 -364z" />
    <glyph glyph-name="ccaron" unicode="&#x10d;" horiz-adv-x="645" 
d="M143 698q2 32 22.5 46.5t44 10t36.5 -21.5q8 -10 28 -53t56 -82q37 39 57 82.5t27 52.5q13 17 36.5 21.5t44 -10t22.5 -46.5q-22 -15 -61 -37.5t-70 -43t-56 -43.5q-25 23 -56 43.5t-70 43t-61 37.5zM336 -20q-80 0 -145 28.5t-106.5 89.5t-41.5 146q0 128 85.5 196.5
t217.5 68.5q100 0 162 -42.5t80 -108.5q-32 -46 -80.5 -35t-57.5 67q-8 45 -27.5 69.5t-67.5 24.5q-63 0 -90.5 -52t-27.5 -166q0 -106 39.5 -169.5t128.5 -63.5q65 0 114 42t72 124h21q-31 -102 -95 -160.5t-181 -58.5z" />
    <glyph glyph-name="Dcaron" unicode="&#x10e;" horiz-adv-x="885" 
d="M185 978q2 32 22.5 46.5t44 10t36.5 -21.5q8 -10 28 -53t56 -82q37 39 57 82.5t27 52.5q13 17 36.5 21.5t44 -10t22.5 -46.5q-22 -15 -61 -37.5t-70 -43t-56 -43.5q-25 23 -56 43.5t-70 43t-61 37.5zM373 0h-303q12 96 12 223v354q0 127 -12 223h303q213 0 332.5 -100
t119.5 -300q0 -194 -119.5 -297t-332.5 -103zM289 776v-752h77q110 0 173.5 96.5t63.5 279.5q0 189 -63 282.5t-174 93.5h-77z" />
    <glyph glyph-name="dcaron" unicode="&#x10f;" horiz-adv-x="864" 
d="M934 734l-157 -257l-8 9l83 166l-83 82l83 83zM307 -20q-49 0 -93.5 14t-84 43t-63 82.5t-23.5 124.5t23.5 125t62.5 83t81 43t86 14q128 0 216 -101v176q0 116 -14 216h192v-587q0 -116 15 -213h-181q-11 62 -11 115q-47 -135 -206 -135zM372 26q61 0 100.5 50.5
t39.5 147.5v148q-74 98 -156 98q-55 0 -87 -55.5t-32 -170.5q0 -97 33 -157.5t102 -60.5z" />
    <glyph glyph-name="Dcroat" unicode="&#x110;" horiz-adv-x="895" 
d="M110 800h303q213 0 332.5 -100t119.5 -300q0 -194 -119.5 -297t-332.5 -103h-303q12 96 12 223v178h-112v24h112v152q0 127 -12 223zM329 24h77q110 0 173.5 96.5t63.5 279.5q0 189 -63 282.5t-174 93.5h-77v-351h166v-24h-166v-377z" />
    <glyph glyph-name="dcroat" unicode="&#x111;" horiz-adv-x="782" 
d="M772 669v-24h-82v-432q0 -116 15 -213h-181q-11 62 -11 115q-47 -135 -206 -135q-49 0 -93.5 14t-84 43t-63 82.5t-23.5 124.5t23.5 125t62.5 83t81 43t86 14q128 0 216 -101v176v61h-186v24h185q-4 64 -13 131h192v-131h82zM512 224v148q-74 98 -156 98q-55 0 -87 -55.5
t-32 -170.5q0 -97 33 -157.5t102 -60.5q61 0 100.5 50.5t39.5 147.5z" />
    <glyph glyph-name="Emacron" unicode="&#x112;" horiz-adv-x="702" 
d="M166 914v72q179 -15 356 0v-72q-177 18 -356 0zM631 0h-561q13 104 13 223v354q0 119 -13 223h583l-65 -94q-94 70 -216 70h-83v-344h48q107 0 200 10v-44q-93 10 -200 10h-48v-384h75q86 0 145 12t163 55z" />
    <glyph glyph-name="emacron" unicode="&#x113;" horiz-adv-x="683" 
d="M179 634v72q179 -15 356 0v-72q-177 18 -356 0zM363 -20q-87 0 -158 29t-116.5 90t-45.5 145q0 83 45.5 145t115 91t150.5 29q124 0 198 -62.5t76 -155.5h-390q-1 -10 -1 -32q0 -102 48.5 -167.5t137.5 -65.5q67 0 122 40t85 125h20q-66 -211 -287 -211zM240 316h201
q0 168 -90 168q-97 0 -111 -168z" />
    <glyph glyph-name="Edotaccent" unicode="&#x116;" horiz-adv-x="702" 
d="M427 941l-83 -82l-83 82l83 83zM631 0h-561q13 104 13 223v354q0 119 -13 223h583l-65 -94q-94 70 -216 70h-83v-344h48q107 0 200 10v-44q-93 10 -200 10h-48v-384h75q86 0 145 12t163 55z" />
    <glyph glyph-name="edotaccent" unicode="&#x117;" horiz-adv-x="683" 
d="M440 661l-83 -82l-83 82l83 83zM363 -20q-87 0 -158 29t-116.5 90t-45.5 145q0 83 45.5 145t115 91t150.5 29q124 0 198 -62.5t76 -155.5h-390q-1 -10 -1 -32q0 -102 48.5 -167.5t137.5 -65.5q67 0 122 40t85 125h20q-66 -211 -287 -211zM240 316h201q0 168 -90 168
q-97 0 -111 -168z" />
    <glyph glyph-name="Eogonek" unicode="&#x118;" horiz-adv-x="702" 
d="M481 -266q41 0 65 37t46 108l58 -58q-20 -28 -34 -44t-36 -33.5t-50 -25.5t-63 -8q-65 0 -110 28t-45 80q0 40 29 68.5t82.5 59t78.5 54.5h-432q13 104 13 223v354q0 119 -13 223h583l-65 -94q-94 70 -216 70h-83v-344h48q107 0 200 10v-44q-93 10 -200 10h-48v-384h75
q86 0 145 12t163 55l-41 -91h-104q-7 -8 -24.5 -27.5t-22.5 -25.5l-17.5 -21t-16 -21.5t-11 -19.5t-9.5 -22.5t-4 -22.5t-2 -27q0 -36 17 -57.5t44 -21.5z" />
    <glyph glyph-name="eogonek" unicode="&#x119;" horiz-adv-x="683" 
d="M444 -266q41 0 65 37t46 108l58 -58q-20 -28 -34 -44t-36 -33.5t-50 -25.5t-63 -8q-65 0 -110 28t-45 80q0 30 18.5 55t42 40t60.5 37t58 40q-45 -10 -91 -10q-87 0 -158 29t-116.5 90t-45.5 145q0 83 45.5 145t115 91t150.5 29q124 0 198 -62.5t76 -155.5h-390
q-1 -10 -1 -32q0 -102 48.5 -167.5t137.5 -65.5q67 0 122 40t85 125h20q-44 -141 -157 -188q-9 -10 -28.5 -32t-25.5 -29t-19 -23.5t-17 -25t-10.5 -23t-8 -28t-1.5 -29.5q0 -36 17 -57.5t44 -21.5zM351 484q-97 0 -111 -168h201q0 168 -90 168z" />
    <glyph glyph-name="Ecaron" unicode="&#x11a;" horiz-adv-x="702" 
d="M156 978q2 32 22.5 46.5t44 10t36.5 -21.5q8 -10 28 -53t56 -82q37 39 57 82.5t27 52.5q13 17 36.5 21.5t44 -10t22.5 -46.5q-22 -15 -61 -37.5t-70 -43t-56 -43.5q-25 23 -56 43.5t-70 43t-61 37.5zM631 0h-561q13 104 13 223v354q0 119 -13 223h583l-65 -94
q-94 70 -216 70h-83v-344h48q107 0 200 10v-44q-93 10 -200 10h-48v-384h75q86 0 145 12t163 55z" />
    <glyph glyph-name="ecaron" unicode="&#x11b;" horiz-adv-x="683" 
d="M170 698q2 32 22.5 46.5t44 10t36.5 -21.5q8 -10 28 -53t56 -82q37 39 57 82.5t27 52.5q13 17 36.5 21.5t44 -10t22.5 -46.5q-22 -15 -61 -37.5t-70 -43t-56 -43.5q-25 23 -56 43.5t-70 43t-61 37.5zM363 -20q-87 0 -158 29t-116.5 90t-45.5 145q0 83 45.5 145t115 91
t150.5 29q124 0 198 -62.5t76 -155.5h-390q-1 -10 -1 -32q0 -102 48.5 -167.5t137.5 -65.5q67 0 122 40t85 125h20q-66 -211 -287 -211zM240 316h201q0 168 -90 168q-97 0 -111 -168z" />
    <glyph glyph-name="Gbreve" unicode="&#x11e;" horiz-adv-x="945" 
d="M494 865q-170 0 -176 154h108q-2 -64 12 -97t56 -33t56 33t12 97h109q-6 -154 -177 -154zM479 -20q-186 0 -302.5 118t-116.5 312q0 126 59.5 220.5t157 142t217.5 47.5q129 0 221.5 -61t147.5 -167l-189 -53q-36 257 -180 257q-101 0 -156.5 -105t-55.5 -267
q0 -168 68 -275.5t196 -107.5q116 0 185 90.5t77 246.5h-50q-122 0 -215 -70l-66 94h448v-24h-79v-156q0 -117 14 -222h-66q14 105 14 222v28q-65 -270 -329 -270z" />
    <glyph glyph-name="gbreve" unicode="&#x11f;" horiz-adv-x="854" 
d="M397 585q-170 0 -176 154h108q-2 -64 12 -97t56 -33t56 33t12 97h109q-6 -154 -177 -154zM312 -260q-51 0 -96 6t-85.5 18.5t-64 36.5t-23.5 57q0 51 62 84q-62 28 -62 90q0 80 134 121q-86 56 -86 151q0 98 88 151.5t218 53.5q99 0 178 -33q14 18 23 29.5t23 26.5
t26.5 23.5t30 17.5t35.5 12t41.5 3t49.5 -6q11 -57 -17.5 -85.5t-82.5 -11.5q-30 11 -55.5 11t-53.5 -28q108 -56 108 -164q0 -98 -88 -151t-218 -53q-101 0 -177 33q-69 -37 -69 -81q0 -26 21.5 -43t60.5 -17q77 0 153.5 22t144.5 44t126 22q67 0 108.5 -30t41.5 -89
q0 -60 -48 -105t-125.5 -69t-158.5 -35.5t-163 -11.5zM397 124q55 0 83.5 47t28.5 133q0 87 -28.5 133.5t-83.5 46.5t-83.5 -46.5t-28.5 -133.5q0 -86 28.5 -133t83.5 -47zM291 -213q81 0 161 19t138.5 59.5t58.5 92.5q0 62 -75 62q-43 0 -105 -24.5t-132.5 -49
t-135.5 -24.5q-35 0 -68 9q-44 -24 -44 -64q0 -41 58 -60.5t144 -19.5z" />
    <glyph glyph-name="Gdotaccent" unicode="&#x120;" horiz-adv-x="945" 
d="M578 941l-83 -82l-83 82l83 83zM479 -20q-186 0 -302.5 118t-116.5 312q0 126 59.5 220.5t157 142t217.5 47.5q129 0 221.5 -61t147.5 -167l-189 -53q-36 257 -180 257q-101 0 -156.5 -105t-55.5 -267q0 -168 68 -275.5t196 -107.5q116 0 185 90.5t77 246.5h-50
q-122 0 -215 -70l-66 94h448v-24h-79v-156q0 -117 14 -222h-66q14 105 14 222v28q-65 -270 -329 -270z" />
    <glyph glyph-name="gdotaccent" unicode="&#x121;" horiz-adv-x="854" 
d="M480 661l-83 -82l-83 82l83 83zM312 -260q-51 0 -96 6t-85.5 18.5t-64 36.5t-23.5 57q0 51 62 84q-62 28 -62 90q0 80 134 121q-86 56 -86 151q0 98 88 151.5t218 53.5q99 0 178 -33q14 18 23 29.5t23 26.5t26.5 23.5t30 17.5t35.5 12t41.5 3t49.5 -6q11 -57 -17.5 -85.5
t-82.5 -11.5q-30 11 -55.5 11t-53.5 -28q108 -56 108 -164q0 -98 -88 -151t-218 -53q-101 0 -177 33q-69 -37 -69 -81q0 -26 21.5 -43t60.5 -17q77 0 153.5 22t144.5 44t126 22q67 0 108.5 -30t41.5 -89q0 -60 -48 -105t-125.5 -69t-158.5 -35.5t-163 -11.5zM397 124
q55 0 83.5 47t28.5 133q0 87 -28.5 133.5t-83.5 46.5t-83.5 -46.5t-28.5 -133.5q0 -86 28.5 -133t83.5 -47zM291 -213q81 0 161 19t138.5 59.5t58.5 92.5q0 62 -75 62q-43 0 -105 -24.5t-132.5 -49t-135.5 -24.5q-35 0 -68 9q-44 -24 -44 -64q0 -41 58 -60.5t144 -19.5z" />
    <glyph glyph-name="uni0122" unicode="&#x122;" horiz-adv-x="945" 
d="M479 -20q-186 0 -302.5 118t-116.5 312q0 126 59.5 220.5t157 142t217.5 47.5q129 0 221.5 -61t147.5 -167l-189 -53q-36 257 -180 257q-101 0 -156.5 -105t-55.5 -267q0 -168 68 -275.5t196 -107.5q116 0 185 90.5t77 246.5h-50q-122 0 -215 -70l-66 94h448v-24h-79
v-156q0 -117 14 -222h-66q14 105 14 222v28q-65 -270 -329 -270zM587 -151l-116 -191l-9 9l53 110l-72 72l72 72z" />
    <glyph glyph-name="uni0123" unicode="&#x123;" horiz-adv-x="854" 
d="M325 640l116 191l9 -9l-53 -110l72 -72l-72 -72zM312 -260q-51 0 -96 6t-85.5 18.5t-64 36.5t-23.5 57q0 51 62 84q-62 28 -62 90q0 80 134 121q-86 56 -86 151q0 98 88 151.5t218 53.5q99 0 178 -33q14 18 23 29.5t23 26.5t26.5 23.5t30 17.5t35.5 12t41.5 3t49.5 -6
q11 -57 -17.5 -85.5t-82.5 -11.5q-30 11 -55.5 11t-53.5 -28q108 -56 108 -164q0 -98 -88 -151t-218 -53q-101 0 -177 33q-69 -37 -69 -81q0 -26 21.5 -43t60.5 -17q77 0 153.5 22t144.5 44t126 22q67 0 108.5 -30t41.5 -89q0 -60 -48 -105t-125.5 -69t-158.5 -35.5
t-163 -11.5zM397 124q55 0 83.5 47t28.5 133q0 87 -28.5 133.5t-83.5 46.5t-83.5 -46.5t-28.5 -133.5q0 -86 28.5 -133t83.5 -47zM291 -213q81 0 161 19t138.5 59.5t58.5 92.5q0 62 -75 62q-43 0 -105 -24.5t-132.5 -49t-135.5 -24.5q-35 0 -68 9q-44 -24 -44 -64
q0 -41 58 -60.5t144 -19.5z" />
    <glyph glyph-name="Hbar" unicode="&#x126;" horiz-adv-x="867" 
d="M857 595v-24h-65v-348q0 -127 12 -223h-231q12 108 12 223v165h-303v-165q0 -119 13 -223h-231q12 108 12 223v348h-66v24h66q0 103 -12 205h231q-13 -110 -13 -205h303q0 103 -12 205h231q-12 -102 -12 -205h65zM282 412h303v159h-303v-159z" />
    <glyph glyph-name="hbar" unicode="&#x127;" horiz-adv-x="717" 
d="M645 0h-203q12 100 12 216v154q0 93 -62 93q-78 0 -140 -123v-117q0 -129 12 -223h-202q12 94 12 223v354v68h-64v24h63q-2 60 -11 131h202q-9 -71 -11 -131h204v-24h-205v-68v-198q76 130 210 130q83 0 126.5 -48t43.5 -156v-89q0 -116 13 -216z" />
    <glyph glyph-name="Imacron" unicode="&#x12a;" horiz-adv-x="371" 
d="M8 914v72q179 -15 356 0v-72q-177 18 -356 0zM301 0h-231q12 96 12 223v354q0 127 -12 223h231q-12 -96 -12 -223v-354q0 -127 12 -223z" />
    <glyph glyph-name="imacron" unicode="&#x12b;" horiz-adv-x="302" 
d="M-27 634v72q179 -15 356 0v-72q-177 18 -356 0zM252 0h-202q12 92 12 213v63q0 121 -12 213h202q-12 -92 -12 -213v-63q0 -121 12 -213z" />
    <glyph glyph-name="Iogonek" unicode="&#x12e;" horiz-adv-x="371" 
d="M283 -121l58 -58q-20 -28 -34 -44t-36 -33.5t-50 -25.5t-63 -8q-65 0 -110 28t-45 80q0 40 29 68.5t82.5 59t78.5 54.5h-123q12 96 12 223v354q0 127 -12 223h231q-12 -96 -12 -223v-354q0 -127 12 -223h-83q-7 -8 -24.5 -27.5t-22.5 -25.5l-17.5 -21t-16 -21.5
t-11 -19.5t-9.5 -22.5t-4 -22.5t-2 -27q0 -36 17 -57.5t44 -21.5q41 0 65 37t46 108z" />
    <glyph glyph-name="iogonek" unicode="&#x12f;" horiz-adv-x="302" 
d="M151 783l112 -97l-112 -97l-111 97zM228 -121l59 -58q-27 -37 -46 -57t-55 -37t-83 -17q-65 0 -110 28t-45 80q0 40 29 68.5t82.5 59t78.5 54.5h-88q12 92 12 213v63q0 121 -12 213h202q-12 -92 -12 -213v-63q0 -121 12 -213h-88q-7 -8 -24.5 -27.5t-22.5 -25.5
l-17.5 -21t-16 -21.5t-11 -19.5t-9.5 -22.5t-4 -22.5t-2 -27q0 -37 16.5 -58t44.5 -21q40 0 64 37t46 108z" />
    <glyph glyph-name="Idotaccent" unicode="&#x130;" horiz-adv-x="371" 
d="M269 941l-83 -82l-83 82l83 83zM301 0h-231q12 96 12 223v354q0 127 -12 223h231q-12 -96 -12 -223v-354q0 -127 12 -223z" />
    <glyph glyph-name="dotlessi" unicode="&#x131;" horiz-adv-x="302" 
d="M252 0h-202q12 92 12 213v63q0 121 -12 213h202q-12 -92 -12 -213v-63q0 -121 12 -213z" />
    <glyph glyph-name="uni0136" unicode="&#x136;" horiz-adv-x="917" 
d="M473 517l307 -409q47 -63 107 -108h-300q-12 27 -23.5 45.5t-44.5 62.5l-199 263l-31 -34v-114q0 -127 12 -223h-231q12 96 12 223v354q0 127 -12 223h231q-12 -96 -12 -223v-206l326 323q64 61 95 106h58q-57 -42 -119 -104zM431 -223l-72 72l72 72l72 -72l-116 -191
l-9 9z" />
    <glyph glyph-name="uni0137" unicode="&#x137;" horiz-adv-x="753" 
d="M640 109q55 -76 87 -109h-217q-18 47 -61 109q-41 61 -87 90.5t-115 36.5q-1 -10 -1 -30q0 -111 12 -206h-202q12 94 12 223v354q0 129 -12 223h202q-12 -94 -12 -223v-242q50 174 235 174q67 0 109 -30t42 -90q0 -135 -267 -148q114 -12 173.5 -42t101.5 -90zM398 463
q-59 0 -100 -53.5t-50 -156.5q102 0 160 34.5t58 101.5q0 35 -18 54.5t-50 19.5zM399 -223l-72 72l72 72l72 -72l-116 -191l-9 9z" />
    <glyph glyph-name="Lacute" unicode="&#x139;" horiz-adv-x="702" 
d="M86 864l-9 9l171 173q35 0 52 -19.5t15.5 -42t-13.5 -35.5q-18 -19 -47.5 -26t-75.5 -18.5t-93 -40.5zM621 0h-551q14 112 14 223v354q0 127 -12 223h231q-12 -96 -12 -223v-553h63q86 0 145 12t163 55z" />
    <glyph glyph-name="lacute" unicode="&#x13a;" horiz-adv-x="314" 
d="M53 878l-9 9l171 173q35 0 52 -19.5t15.5 -42t-13.5 -35.5q-18 -19 -47.5 -26t-75.5 -18.5t-93 -40.5zM258 0h-202q12 94 12 223v354q0 129 -12 223h202q-12 -94 -12 -223v-354q0 -129 12 -223z" />
    <glyph glyph-name="uni013B" unicode="&#x13b;" horiz-adv-x="702" 
d="M621 0h-551q14 112 14 223v354q0 127 -12 223h231q-12 -96 -12 -223v-553h63q86 0 145 12t163 55zM438 -151l-116 -191l-9 9l53 110l-72 72l72 72z" />
    <glyph glyph-name="uni013C" unicode="&#x13c;" horiz-adv-x="314" 
d="M258 0h-202q12 94 12 223v354q0 129 -12 223h202q-12 -94 -12 -223v-354q0 -129 12 -223zM229 -151l-116 -191l-9 9l53 110l-72 72l72 72z" />
    <glyph glyph-name="Lcaron" unicode="&#x13d;" horiz-adv-x="699" 
d="M627 734l-156 -257l-9 9l83 166l-83 82l83 83zM621 0h-551q14 112 14 223v354q0 127 -12 223h231q-12 -96 -12 -223v-553h63q86 0 145 12t163 55z" />
    <glyph glyph-name="lcaron" unicode="&#x13e;" horiz-adv-x="505" 
d="M515 734l-157 -257l-8 9l82 166l-82 82l82 83zM258 0h-202q12 94 12 223v354q0 129 -12 223h202q-12 -94 -12 -223v-354q0 -129 12 -223z" />
    <glyph glyph-name="Lslash" unicode="&#x141;" horiz-adv-x="699" 
d="M291 24h63q86 0 145 12t163 55l-41 -91h-551q14 112 14 223v83l-102 -59l-12 22l114 65v243q0 127 -12 223h231q-12 -96 -12 -223v-124l135 77l12 -21l-147 -84v-401z" />
    <glyph glyph-name="lslash" unicode="&#x142;" horiz-adv-x="436" 
d="M426 505l-119 -68v-214q0 -129 12 -223h-202q12 94 12 223v111l-107 -61l-12 22l119 69v213q0 129 -12 223h202q-12 -94 -12 -223v-111l106 61z" />
    <glyph glyph-name="Nacute" unicode="&#x143;" horiz-adv-x="819" 
d="M305 864l-9 9l171 173q35 0 52 -19.5t15.5 -42t-13.5 -35.5q-18 -19 -47.5 -26t-75.5 -18.5t-93 -40.5zM115 0h-45q12 96 12 223v354q0 127 -12 223h250l389 -749l7 -1v527q0 115 -12 223h45q-12 -96 -12 -223v-354q0 -127 12 -223h-250l-389 749l-7 1v-527
q0 -127 12 -223z" />
    <glyph glyph-name="nacute" unicode="&#x144;" horiz-adv-x="695" 
d="M473 669q-18 -19 -47.5 -26t-75.5 -18.5t-93 -40.5l-9 9l171 173q35 0 52 -19.5t15.5 -42t-13.5 -35.5zM639 0h-203q12 100 12 216v154q0 93 -62 93q-78 0 -140 -122v-65v-63q0 -121 12 -213h-202q12 92 12 213v63q0 121 -12 213h202q-9 -61 -10 -107q75 127 209 127
q170 0 170 -204v-89q0 -116 12 -216z" />
    <glyph glyph-name="uni0145" unicode="&#x145;" horiz-adv-x="819" 
d="M115 0h-45q12 96 12 223v354q0 127 -12 223h250l389 -749l7 -1v527q0 115 -12 223h45q-12 -96 -12 -223v-354q0 -127 12 -223h-250l-389 749l-7 1v-527q0 -127 12 -223zM482 -151l-116 -191l-9 9l53 110l-72 72l72 72z" />
    <glyph glyph-name="uni0146" unicode="&#x146;" horiz-adv-x="695" 
d="M639 0h-203q12 100 12 216v154q0 93 -62 93q-78 0 -140 -122v-65v-63q0 -121 12 -213h-202q12 92 12 213v63q0 121 -12 213h202q-9 -61 -10 -107q75 127 209 127q170 0 170 -204v-89q0 -116 12 -216zM348 -223l-72 72l72 72l72 -72l-116 -191l-9 9z" />
    <glyph glyph-name="Ncaron" unicode="&#x147;" horiz-adv-x="819" 
d="M223 978q2 32 22.5 46.5t44 10t36.5 -21.5q8 -10 28 -53t56 -82q37 39 57 82.5t27 52.5q13 17 36.5 21.5t44 -10t22.5 -46.5q-22 -15 -61 -37.5t-70 -43t-56 -43.5q-25 23 -56 43.5t-70 43t-61 37.5zM115 0h-45q12 96 12 223v354q0 127 -12 223h250l389 -749l7 -1v527
q0 115 -12 223h45q-12 -96 -12 -223v-354q0 -127 12 -223h-250l-389 749l-7 1v-527q0 -127 12 -223z" />
    <glyph glyph-name="ncaron" unicode="&#x148;" horiz-adv-x="695" 
d="M549 698q-22 -15 -61 -37.5t-70 -43t-56 -43.5q-25 23 -56 43.5t-70 43t-61 37.5q2 32 22.5 46.5t44 10t36.5 -21.5q8 -10 28 -53t56 -82q37 39 57 82.5t27 52.5q13 17 36.5 21.5t44 -10t22.5 -46.5zM639 0h-203q12 100 12 216v154q0 93 -62 93q-78 0 -140 -122v-65v-63
q0 -121 12 -213h-202q12 92 12 213v63q0 121 -12 213h202q-9 -61 -10 -107q75 127 209 127q170 0 170 -204v-89q0 -116 12 -216z" />
    <glyph glyph-name="Eng" unicode="&#x14a;" horiz-adv-x="819" 
d="M485 -228q-69 0 -137.5 30t-110.5 83l139 63q30 -152 112 -152q33 0 49.5 19.5t16.5 49.5q0 39 -44 135l-400 749l-7 1v-527q0 -127 12 -223h-45q12 96 12 223v354q0 127 -12 223h250l389 -744l7 -1v522q0 115 -12 223h45q-12 -96 -12 -223v-596q0 -95 -69.5 -152
t-182.5 -57z" />
    <glyph glyph-name="eng" unicode="&#x14b;" horiz-adv-x="711" 
d="M471 509q170 0 170 -204v-335q0 -101 -62 -149.5t-163 -48.5q-63 0 -127.5 25.5t-111.5 72.5q34 40 76.5 49t71.5 -18q11 -14 24 -42.5t25.5 -45.5t31.5 -17q31 0 44 39.5t13 134.5v400q0 93 -63 93q-77 0 -140 -122v-65v-63q0 -121 12 -213h-202q12 92 12 213v63
q0 121 -12 213h202q-9 -61 -10 -107q75 127 209 127z" />
    <glyph glyph-name="Omacron" unicode="&#x14c;" horiz-adv-x="1095" 
d="M370 914v72q179 -15 356 0v-72q-177 18 -356 0zM548 -20q-215 0 -351.5 112t-136.5 308q0 195 137 307.5t351 112.5q213 0 350 -112.5t137 -307.5q0 -196 -137 -308t-350 -112zM548 4q88 0 149.5 56t88.5 143t27 197q0 109 -27 196t-88.5 143.5t-149.5 56.5
q-89 0 -150.5 -56.5t-88.5 -143.5t-27 -196q0 -110 27 -197t88.5 -143t150.5 -56z" />
    <glyph glyph-name="omacron" unicode="&#x14d;" horiz-adv-x="758" 
d="M201 634v72q179 -15 356 0v-72q-177 18 -356 0zM379 -20q-148 0 -242 69t-94 195q0 127 94 196t242 69t242 -69t94 -196q0 -126 -94 -195t-242 -69zM379 4q142 0 142 240t-142 240t-142 -240t142 -240z" />
    <glyph glyph-name="Ohungarumlaut" unicode="&#x150;" horiz-adv-x="1095" 
d="M399 864l-9 9l131 173q32 0 49 -16.5t15 -37.5t-18 -36q-17 -16 -72 -38t-96 -54zM562 864l-8 9l131 173q32 0 49 -16.5t15 -37.5t-18 -36q-17 -16 -72.5 -38t-96.5 -54zM548 -20q-215 0 -351.5 112t-136.5 308q0 195 137 307.5t351 112.5q213 0 350 -112.5t137 -307.5
q0 -196 -137 -308t-350 -112zM548 4q88 0 149.5 56t88.5 143t27 197q0 109 -27 196t-88.5 143.5t-149.5 56.5q-89 0 -150.5 -56.5t-88.5 -143.5t-27 -196q0 -110 27 -197t88.5 -143t150.5 -56z" />
    <glyph glyph-name="ohungarumlaut" unicode="&#x151;" horiz-adv-x="758" 
d="M230 584l-9 9l131 173q32 0 49 -16.5t15 -37.5t-18 -36q-17 -16 -72 -38t-96 -54zM393 584l-8 9l131 173q32 0 49 -16.5t15 -37.5t-18 -36q-17 -16 -72.5 -38t-96.5 -54zM379 -20q-148 0 -242 69t-94 195q0 127 94 196t242 69t242 -69t94 -196q0 -126 -94 -195t-242 -69z
M379 4q142 0 142 240t-142 240t-142 -240t142 -240z" />
    <glyph glyph-name="OE" unicode="&#x152;" horiz-adv-x="1596" 
d="M1184 24h75q86 0 144.5 12t162.5 55l-41 -91h-561q12 92 13 182q-60 -97 -173 -149.5t-256 -52.5q-215 0 -351.5 112t-136.5 308q0 195 137 307.5t351 112.5q143 0 256 -53t173 -150q-1 91 -13 183h584l-66 -94q-94 70 -216 70h-82v-344h47q107 0 200 10v-44
q-93 10 -200 10h-47v-384zM548 4q88 0 149.5 56t88.5 143t27 197q0 109 -27 196t-88.5 143.5t-149.5 56.5q-89 0 -150.5 -56.5t-88.5 -143.5t-27 -196q0 -110 27 -197t88.5 -143t150.5 -56z" />
    <glyph glyph-name="oe" unicode="&#x153;" horiz-adv-x="1235" 
d="M1182 191h20q-66 -211 -288 -211q-79 0 -147.5 25.5t-111.5 74.5q-91 -100 -276 -100q-148 0 -242 69t-94 195q0 127 94 196t242 69q186 0 276 -101q44 49 110.5 75t140.5 26q124 0 198 -62.5t76 -155.5h-390q-1 -10 -1 -32q0 -102 48.5 -167.5t137.5 -65.5q67 0 122 40
t85 125zM379 4q142 0 142 240t-142 240t-142 -240t142 -240zM902 484q-96 0 -110 -168h201q0 168 -91 168z" />
    <glyph glyph-name="Racute" unicode="&#x154;" horiz-adv-x="903" 
d="M478 949q-18 -19 -47.5 -26t-75.5 -18.5t-93 -40.5l-9 9l171 173q35 0 52 -19.5t15.5 -42t-13.5 -35.5zM691 184q38 -90 76.5 -126.5t102.5 -36.5v-21q-58 0 -98 2t-84 8t-74 18t-58 31.5t-47.5 48.5t-32.5 69q-39 123 -71.5 158t-101.5 35h-14v-147q0 -127 12 -223h-231
q12 96 12 223v354q0 127 -12 223h280q65 0 116.5 -5t102.5 -19t84.5 -37t54 -62t20.5 -92q0 -105 -74 -153t-206 -59q175 -30 243 -189zM289 776v-382h58q80 0 126.5 43t46.5 148t-46.5 148t-126.5 43h-58z" />
    <glyph glyph-name="racute" unicode="&#x155;" horiz-adv-x="564" 
d="M409 669q-18 -19 -47.5 -26t-75.5 -18.5t-93 -40.5l-9 9l171 173q35 0 52 -19.5t15.5 -42t-13.5 -35.5zM546 489q10 -59 -20 -88.5t-87 -11.5q-30 9 -55.5 8t-58.5 -25t-79 -77v-19v-63q0 -121 12 -213h-202q12 92 12 213v63q0 121 -12 213h202q-10 -77 -12 -158
q19 24 29 37t28 33.5t31 31.5t32.5 25.5t37.5 20.5t40.5 11.5t48 5t53.5 -6.5z" />
    <glyph glyph-name="uni0156" unicode="&#x156;" horiz-adv-x="903" 
d="M691 184q38 -90 76.5 -126.5t102.5 -36.5v-21q-58 0 -98 2t-84 8t-74 18t-58 31.5t-47.5 48.5t-32.5 69q-39 123 -71.5 158t-101.5 35h-14v-147q0 -127 12 -223h-231q12 96 12 223v354q0 127 -12 223h280q65 0 116.5 -5t102.5 -19t84.5 -37t54 -62t20.5 -92
q0 -105 -74 -153t-206 -59q175 -30 243 -189zM289 776v-382h58q80 0 126.5 43t46.5 148t-46.5 148t-126.5 43h-58zM438 -223l-72 72l72 72l72 -72l-116 -191l-9 9z" />
    <glyph glyph-name="uni0157" unicode="&#x157;" horiz-adv-x="564" 
d="M546 489q10 -59 -20 -88.5t-87 -11.5q-30 9 -55.5 8t-58.5 -25t-79 -77v-19v-63q0 -121 12 -213h-202q12 92 12 213v63q0 121 -12 213h202q-10 -77 -12 -158q19 24 29 37t28 33.5t31 31.5t32.5 25.5t37.5 20.5t40.5 11.5t48 5t53.5 -6.5zM159 -223l-72 72l72 72l72 -72
l-116 -191l-9 9z" />
    <glyph glyph-name="Rcaron" unicode="&#x158;" horiz-adv-x="903" 
d="M554 978q-22 -15 -61 -37.5t-70 -43t-56 -43.5q-25 23 -56 43.5t-70 43t-61 37.5q2 32 22.5 46.5t44 10t36.5 -21.5q8 -10 28 -53t56 -82q37 39 57 82.5t27 52.5q13 17 36.5 21.5t44 -10t22.5 -46.5zM691 184q38 -90 76.5 -126.5t102.5 -36.5v-21q-58 0 -98 2t-84 8
t-74 18t-58 31.5t-47.5 48.5t-32.5 69q-39 123 -71.5 158t-101.5 35h-14v-147q0 -127 12 -223h-231q12 96 12 223v354q0 127 -12 223h280q65 0 116.5 -5t102.5 -19t84.5 -37t54 -62t20.5 -92q0 -105 -74 -153t-206 -59q175 -30 243 -189zM289 776v-382h58q80 0 126.5 43
t46.5 148t-46.5 148t-126.5 43h-58z" />
    <glyph glyph-name="rcaron" unicode="&#x159;" horiz-adv-x="564" 
d="M485 698q-22 -15 -61 -37.5t-70 -43t-56 -43.5q-25 23 -56 43.5t-70 43t-61 37.5q2 32 22.5 46.5t44 10t36.5 -21.5q8 -10 28 -53t56 -82q37 39 57 82.5t27 52.5q13 17 36.5 21.5t44 -10t22.5 -46.5zM546 489q10 -59 -20 -88.5t-87 -11.5q-30 9 -55.5 8t-58.5 -25
t-79 -77v-19v-63q0 -121 12 -213h-202q12 92 12 213v63q0 121 -12 213h202q-10 -77 -12 -158q19 24 29 37t28 33.5t31 31.5t32.5 25.5t37.5 20.5t40.5 11.5t48 5t53.5 -6.5z" />
    <glyph glyph-name="Sacute" unicode="&#x15a;" horiz-adv-x="727" 
d="M249 864l-9 9l171 173q35 0 52 -19.5t15.5 -42t-13.5 -35.5q-18 -19 -47.5 -26t-75.5 -18.5t-93 -40.5zM433 -20q-132 0 -226.5 57.5t-166.5 190.5l140 81q31 -136 101 -220.5t167 -84.5q59 0 92.5 30t33.5 81q0 25 -13 48t-44.5 50t-69.5 53.5t-102 69.5q-11 7 -17 11
q-140 92 -191 149.5t-51 138.5q0 89 70 137t175 48q102 0 185 -46t158 -151l-139 -60q-15 50 -30.5 86.5t-40.5 72.5t-61.5 55t-83.5 19q-55 0 -87.5 -25t-32.5 -62q0 -39 35.5 -72t155.5 -108q60 -38 92 -59.5t72.5 -51.5t60 -51.5t39 -50t26.5 -58t7 -64.5
q0 -104 -72.5 -159t-181.5 -55z" />
    <glyph glyph-name="sacute" unicode="&#x15b;" horiz-adv-x="560" 
d="M179 584l-9 9l171 173q35 0 52 -19.5t15.5 -42t-13.5 -35.5q-18 -19 -47.5 -26t-75.5 -18.5t-93 -40.5zM293 -20q-100 0 -170 38t-90 110q16 35 51 45t67 -8t41 -56q9 -49 32 -76.5t76 -27.5q43 0 64.5 23t21.5 58t-28 58.5t-120 66.5q-98 47 -126 69q-55 42 -55 99
q0 35 20 61.5t53 40.5t68 21t71 7q84 0 147.5 -33.5t92.5 -92.5q-35 -40 -78 -31.5t-58 55.5q-13 41 -34 59t-66 18q-36 0 -58 -15t-22 -41q0 -28 26.5 -48.5t103.5 -54.5q6 -3 31 -14t31.5 -14t28 -13t28 -15t23 -15.5t22 -18t16 -19t14 -23t7 -25.5t3.5 -30
q0 -73 -63.5 -115.5t-170.5 -42.5z" />
    <glyph glyph-name="Scedilla" unicode="&#x15e;" horiz-adv-x="727" 
d="M687 194q0 -97 -63 -151.5t-161 -61.5l-81 -61q93 14 152.5 -16.5t59.5 -88.5q0 -38 -29 -64.5t-65 -36.5t-74 -10q-106 0 -170 81l59 59q20 -62 43.5 -89t60.5 -27q33 0 50 22.5t17 58.5q0 46 -33 71t-102 18v24l25 61q-109 11 -190 69t-146 176l140 81
q31 -136 101 -220.5t167 -84.5q59 0 92.5 30t33.5 81q0 25 -13 48t-44.5 50t-69.5 53.5t-102 69.5q-11 7 -17 11q-140 92 -191 149.5t-51 138.5q0 89 70 137t175 48q102 0 185 -46t158 -151l-139 -60q-15 50 -30.5 86.5t-40.5 72.5t-61.5 55t-83.5 19q-55 0 -87.5 -25
t-32.5 -62q0 -39 35.5 -72t155.5 -108q60 -38 92 -59.5t72.5 -51.5t60 -51.5t39 -50t26.5 -58t7 -64.5z" />
    <glyph glyph-name="scedilla" unicode="&#x15f;" horiz-adv-x="560" 
d="M527 138q0 -63 -49.5 -104.5t-134.5 -50.5l-83 -63q93 14 152.5 -16.5t59.5 -88.5q0 -38 -29 -64.5t-65 -36.5t-74 -10q-106 0 -170 81l59 59q20 -62 43.5 -89t60.5 -27q33 0 50 22.5t17 58.5q0 46 -33 71t-102 18v24l25 60q-86 7 -144.5 44t-76.5 102q16 35 51 45t67 -8
t41 -56q9 -49 32 -76.5t76 -27.5q43 0 64.5 23t21.5 58t-28 58.5t-120 66.5q-98 47 -126 69q-55 42 -55 99q0 35 20 61.5t53 40.5t68 21t71 7q84 0 147.5 -33.5t92.5 -92.5q-35 -40 -78 -31.5t-58 55.5q-13 41 -34 59t-66 18q-36 0 -58 -15t-22 -41q0 -28 26.5 -48.5
t103.5 -54.5q6 -3 31 -14t31.5 -14t28 -13t28 -15t23 -15.5t22 -18t16 -19t14 -23t7 -25.5t3.5 -30z" />
    <glyph glyph-name="Scaron" unicode="&#x160;" horiz-adv-x="727" 
d="M167 978q2 32 22.5 46.5t44 10t36.5 -21.5q8 -10 28 -53t56 -82q37 39 57 82.5t27 52.5q13 17 36.5 21.5t44 -10t22.5 -46.5q-22 -15 -61 -37.5t-70 -43t-56 -43.5q-25 23 -56 43.5t-70 43t-61 37.5zM433 -20q-132 0 -226.5 57.5t-166.5 190.5l140 81q31 -136 101 -220.5
t167 -84.5q59 0 92.5 30t33.5 81q0 25 -13 48t-44.5 50t-69.5 53.5t-102 69.5q-11 7 -17 11q-140 92 -191 149.5t-51 138.5q0 89 70 137t175 48q102 0 185 -46t158 -151l-139 -60q-15 50 -30.5 86.5t-40.5 72.5t-61.5 55t-83.5 19q-55 0 -87.5 -25t-32.5 -62q0 -39 35.5 -72
t155.5 -108q60 -38 92 -59.5t72.5 -51.5t60 -51.5t39 -50t26.5 -58t7 -64.5q0 -104 -72.5 -159t-181.5 -55z" />
    <glyph glyph-name="scaron" unicode="&#x161;" horiz-adv-x="560" 
d="M96 698q2 32 22.5 46.5t44 10t36.5 -21.5q8 -10 28 -53t56 -82q37 39 57 82.5t27 52.5q13 17 36.5 21.5t44 -10t22.5 -46.5q-22 -15 -61 -37.5t-70 -43t-56 -43.5q-25 23 -56 43.5t-70 43t-61 37.5zM293 -20q-100 0 -170 38t-90 110q16 35 51 45t67 -8t41 -56
q9 -49 32 -76.5t76 -27.5q43 0 64.5 23t21.5 58t-28 58.5t-120 66.5q-98 47 -126 69q-55 42 -55 99q0 35 20 61.5t53 40.5t68 21t71 7q84 0 147.5 -33.5t92.5 -92.5q-35 -40 -78 -31.5t-58 55.5q-13 41 -34 59t-66 18q-36 0 -58 -15t-22 -41q0 -28 26.5 -48.5t103.5 -54.5
q6 -3 31 -14t31.5 -14t28 -13t28 -15t23 -15.5t22 -18t16 -19t14 -23t7 -25.5t3.5 -30q0 -73 -63.5 -115.5t-170.5 -42.5z" />
    <glyph glyph-name="uni0162" unicode="&#x162;" horiz-adv-x="819" 
d="M526 776h-13v-553q0 -127 12 -223h-60l-102 -77q93 14 152.5 -16.5t59.5 -88.5q0 -38 -29 -64.5t-65 -36.5t-74 -10q-106 0 -170 81l59 59q20 -62 43.5 -89t60.5 -27q33 0 50 22.5t17 58.5q0 46 -33 71t-102 18v24l31 75h-69q12 96 12 223v553h-13q-113 0 -207 -70
l-66 94h779l-66 -94q-93 70 -207 70z" />
    <glyph glyph-name="uni0163" unicode="&#x163;" horiz-adv-x="496" 
d="M315 -23l-77 -58q93 14 152.5 -16.5t59.5 -88.5q0 -38 -29 -64.5t-65 -36.5t-74 -10q-106 0 -170 81l59 59q20 -62 43.5 -89t60.5 -27q33 0 50 22.5t17 58.5q0 46 -33 71t-102 18v24l24 59q-59 12 -84.5 55.5t-25.5 120.5v308h-108v25h17q23 0 42 4t33 9t24.5 17.5
t17 20.5t11 27.5t7 29t3.5 35t1 35v38.5h150q0 -167 -131 -216h257v-25h-146v-336q0 -59 11 -83t39 -24q66 0 93 183h21q-16 -114 -51.5 -166t-96.5 -61z" />
    <glyph glyph-name="Tcaron" unicode="&#x164;" horiz-adv-x="819" 
d="M223 978q2 32 22.5 46.5t44 10t36.5 -21.5q8 -10 28 -53t56 -82q37 39 57 82.5t27 52.5q13 17 36.5 21.5t44 -10t22.5 -46.5q-22 -15 -61 -37.5t-70 -43t-56 -43.5q-25 23 -56 43.5t-70 43t-61 37.5zM525 0h-231q12 96 12 223v553h-13q-113 0 -207 -70l-66 94h779
l-66 -94q-93 70 -207 70h-13v-553q0 -127 12 -223z" />
    <glyph glyph-name="tcaron" unicode="&#x165;" horiz-adv-x="576" 
d="M556 810l-157 -257l-8 8l83 166l-83 83l83 83zM281 -25q-87 0 -123.5 45t-36.5 136v308h-108v25h17q23 0 42 4t33 9t24.5 17.5t17 20.5t11 27.5t7 29t3.5 35t1 35v38.5h150q0 -167 -131 -216h257v-25h-146v-336q0 -59 11 -83t39 -24q66 0 93 183h21q-18 -129 -61 -179
t-121 -50z" />
    <glyph glyph-name="Tbar" unicode="&#x166;" horiz-adv-x="819" 
d="M526 776h-13v-297h204v-25h-204v-231q0 -127 12 -223h-231q12 96 12 223v231h-203v25h203v297h-13q-113 0 -207 -70l-66 94h779l-66 -94q-93 70 -207 70z" />
    <glyph glyph-name="tbar" unicode="&#x167;" horiz-adv-x="496" 
d="M442 204h21q-18 -129 -61 -179t-121 -50q-87 0 -123.5 45t-36.5 136v178h-108v24h108v106h-108v25h17q23 0 42 4t33 9t24.5 17.5t17 20.5t11 27.5t7 29t3.5 35t1 35v38.5h150q0 -167 -131 -216h257v-25h-146v-106h146v-24h-146v-206q0 -59 11 -83t39 -24q66 0 93 183z
" />
    <glyph glyph-name="Umacron" unicode="&#x16a;" horiz-adv-x="797" 
d="M294 914v72q179 -15 356 0v-72q-177 18 -356 0zM447 -20q-86 0 -150.5 16t-117 55t-80 111.5t-27.5 177.5v237q0 127 -12 223h231q-12 -96 -12 -223v-237q0 -176 44.5 -248t160.5 -72q112 0 164.5 72.5t52.5 247.5v237q0 115 -12 223h48q-12 -108 -12 -223v-237
q0 -194 -65.5 -277t-212.5 -83z" />
    <glyph glyph-name="umacron" unicode="&#x16b;" horiz-adv-x="684" 
d="M170 634v72q179 -15 356 0v-72q-177 18 -356 0zM239 -20q-82 0 -126 47.5t-44 155.5v90q0 115 -13 216h192v-371q0 -92 62 -92q79 0 139 119l1 128q0 115 -14 216h192v-489h-191q8 62 10 106q-73 -126 -208 -126z" />
    <glyph glyph-name="Uring" unicode="&#x16e;" horiz-adv-x="797" 
d="M472 851q-43 0 -71 29.5t-28 69.5t28 69.5t71 29.5q44 0 72 -29.5t28 -69.5t-28 -69.5t-72 -29.5zM472 875q33 0 54 22.5t21 52.5t-21 52.5t-54 22.5t-54 -22.5t-21 -52.5t21 -52.5t54 -22.5zM447 -20q-86 0 -150.5 16t-117 55t-80 111.5t-27.5 177.5v237q0 127 -12 223
h231q-12 -96 -12 -223v-237q0 -176 44.5 -248t160.5 -72q112 0 164.5 72.5t52.5 247.5v237q0 115 -12 223h48q-12 -108 -12 -223v-237q0 -194 -65.5 -277t-212.5 -83z" />
    <glyph glyph-name="uring" unicode="&#x16f;" horiz-adv-x="684" 
d="M348 571q-43 0 -71 29.5t-28 69.5t28 69.5t71 29.5q44 0 72 -29.5t28 -69.5t-28 -69.5t-72 -29.5zM348 595q33 0 54 22.5t21 52.5t-21 52.5t-54 22.5t-54 -22.5t-21 -52.5t21 -52.5t54 -22.5zM239 -20q-82 0 -126 47.5t-44 155.5v90q0 115 -13 216h192v-371q0 -92 62 -92
q79 0 139 119l1 128q0 115 -14 216h192v-489h-191q8 62 10 106q-73 -126 -208 -126z" />
    <glyph glyph-name="Uhungarumlaut" unicode="&#x170;" horiz-adv-x="797" 
d="M323 864l-9 9l131 173q32 0 49 -16.5t15 -37.5t-18 -36q-17 -16 -72 -38t-96 -54zM486 864l-8 9l131 173q32 0 49 -16.5t15 -37.5t-18 -36q-17 -16 -72.5 -38t-96.5 -54zM447 -20q-86 0 -150.5 16t-117 55t-80 111.5t-27.5 177.5v237q0 127 -12 223h231q-12 -96 -12 -223
v-237q0 -176 44.5 -248t160.5 -72q112 0 164.5 72.5t52.5 247.5v237q0 115 -12 223h48q-12 -108 -12 -223v-237q0 -194 -65.5 -277t-212.5 -83z" />
    <glyph glyph-name="uhungarumlaut" unicode="&#x171;" horiz-adv-x="684" 
d="M199 584l-9 9l131 173q32 0 49 -16.5t15 -37.5t-18 -36q-17 -16 -72 -38t-96 -54zM362 584l-8 9l131 173q32 0 49 -16.5t15 -37.5t-18 -36q-17 -16 -72.5 -38t-96.5 -54zM239 -20q-82 0 -126 47.5t-44 155.5v90q0 115 -13 216h192v-371q0 -92 62 -92q79 0 139 119l1 128
q0 115 -14 216h192v-489h-191q8 62 10 106q-73 -126 -208 -126z" />
    <glyph glyph-name="Uogonek" unicode="&#x172;" horiz-adv-x="797" 
d="M689 800h48q-12 -108 -12 -223v-237q0 -142 -34 -223t-107 -113q-8 -9 -25.5 -28.5t-23.5 -26t-18.5 -21.5t-16.5 -22t-11 -20t-9.5 -23t-4.5 -23t-2 -27q0 -36 17 -57.5t44 -21.5q41 0 65 37t46 108l58 -58q-20 -28 -34 -44t-36 -33.5t-50 -25.5t-63 -8q-65 0 -110 28
t-45 80q0 30 18.5 55t42 40t60.5 37.5t58 40.5q-38 -11 -97 -11q-86 0 -150.5 16t-117 55t-80 111.5t-27.5 177.5v237q0 127 -12 223h231q-12 -96 -12 -223v-237q0 -176 44.5 -248t160.5 -72q112 0 164.5 72.5t52.5 247.5v237q0 115 -12 223z" />
    <glyph glyph-name="uogonek" unicode="&#x173;" horiz-adv-x="684" 
d="M600 -121l58 -58q-20 -28 -34 -44t-36 -33.5t-50 -25.5t-63 -8q-65 0 -110 28t-45 80q0 40 29 68.5t82.5 59t78.5 54.5h-73q8 62 10 106q-73 -126 -208 -126q-82 0 -126 47.5t-44 155.5v90q0 115 -13 216h192v-371q0 -92 62 -92q79 0 139 119l1 128q0 115 -14 216h192
v-489h-93q-7 -8 -24.5 -27.5t-22.5 -25.5l-17.5 -21t-16 -21.5t-11 -19.5t-9.5 -22.5t-4 -22.5t-2 -27q0 -36 17 -57.5t44 -21.5q41 0 65 37t46 108z" />
    <glyph glyph-name="Wcircumflex" unicode="&#x174;" horiz-adv-x="1269" 
d="M589 884q-13 -17 -36.5 -21.5t-44 10t-22.5 46.5q22 15 61 38t70 43.5t56 43.5q25 -23 56 -43.5t70 -43.5t61 -38q-2 -32 -22.5 -46.5t-44 -10t-36.5 21.5q-7 9 -27 52.5t-57 82.5q-36 -39 -56 -82t-28 -53zM1168 800h44q-25 -51 -41 -112l-164 -607q-10 -47 0 -81h-246
l-127 467l-104 -386q-12 -46 -1 -81h-246l-183 674q-20 72 -50 126h246q3 -53 23 -126l175 -638l127 476l-44 162q-19 71 -49 126h246q3 -53 23 -126l175 -638l174 651q20 75 22 113z" />
    <glyph glyph-name="wcircumflex" unicode="&#x175;" horiz-adv-x="1011" 
d="M436 614q-13 -17 -36.5 -21.5t-44 10t-22.5 46.5q22 15 61 38t70 43.5t56 43.5q25 -23 56 -43.5t70 -43.5t61 -38q-2 -32 -22.5 -46.5t-44 -10t-36.5 21.5q-7 9 -27 52.5t-57 82.5q-36 -39 -56 -82t-28 -53zM973 489q27 -81 -7 -158l-111 -251q-24 -52 -21 -80h-215
l-79 181l-45 -101q-24 -52 -21 -80h-215l-170 391q-22 49 -56 98h222q8 -44 31 -95l160 -364l80 182l-78 179q-20 49 -55 98h222q8 -43 30 -95l161 -364l115 261q12 21 6.5 41.5t-15 32t-23 28.5t-17.5 30q-12 37 19.5 54t81.5 12z" />
    <glyph glyph-name="Ycircumflex" unicode="&#x176;" horiz-adv-x="779" 
d="M289 929q22 15 61 38t70 43.5t56 43.5q25 -23 56 -43.5t70 -43.5t61 -38q-2 -32 -22.5 -46.5t-44 -10t-36.5 21.5q-7 9 -27 52.5t-57 82.5q-36 -39 -56 -82t-28 -53q-13 -17 -36.5 -21.5t-44 10t-22.5 46.5zM520 0h-231q12 108 12 223v105l-188 378q-27 55 -63 94h259
q12 -41 38 -94l160 -320l147 320q24 50 35 94h40q-23 -35 -49 -93l-173 -379v-105q0 -119 13 -223z" />
    <glyph glyph-name="ycircumflex" unicode="&#x177;" horiz-adv-x="645" 
d="M148 649q22 15 61 38t70 43.5t56 43.5q25 -23 56 -43.5t70 -43.5t61 -38q-2 -32 -22.5 -46.5t-44 -10t-36.5 21.5q-7 9 -27 52.5t-57 82.5q-36 -39 -56 -82t-28 -53q-13 -17 -36.5 -21.5t-44 10t-22.5 46.5zM229 -189q-50 0 -100 17t-82 50q-6 39 19 62.5t58.5 16
t49.5 -45.5q18 -41 36 -58t50 -17q39 0 80 37.5t71 126.5h-178l-153 395q-18 47 -47 94h217q6 -38 27 -92l143 -371l128 371q15 47 22 92h42q-20 -37 -40 -94l-135 -395q-37 -106 -84 -147.5t-124 -41.5z" />
    <glyph glyph-name="Ydieresis" unicode="&#x178;" horiz-adv-x="779" 
d="M453 941l-83 -82l-83 82l83 83zM664 941l-82 -82l-83 82l83 83zM520 0h-231q12 108 12 223v105l-188 378q-27 55 -63 94h259q12 -41 38 -94l160 -320l147 320q24 50 35 94h40q-23 -35 -49 -93l-173 -379v-105q0 -119 13 -223z" />
    <glyph glyph-name="Zacute" unicode="&#x179;" horiz-adv-x="803" 
d="M320 864l-9 9l171 173q35 0 52 -19.5t15.5 -42t-13.5 -35.5q-18 -19 -47.5 -26t-75.5 -18.5t-93 -40.5zM711 0h-661v41l441 735h-146q-126 0 -215 -67l-66 91h663v-41l-442 -735h167q75 0 137.5 12.5t163.5 54.5z" />
    <glyph glyph-name="zacute" unicode="&#x17a;" horiz-adv-x="654" 
d="M232 584l-9 9l171 173q35 0 52 -19.5t15.5 -42t-13.5 -35.5q-18 -19 -47.5 -26t-75.5 -18.5t-93 -40.5zM611 0h-568v53l342 411h-57q-50 0 -91 -18.5t-70.5 -37t-53.5 -18.5q-61 0 -61 99h524v-53l-342 -412h104q50 0 90 18.5t69 37t53 18.5q61 0 61 -98z" />
    <glyph glyph-name="Zdotaccent" unicode="&#x17b;" horiz-adv-x="803" 
d="M508 941l-83 -82l-83 82l83 83zM711 0h-661v41l441 735h-146q-126 0 -215 -67l-66 91h663v-41l-442 -735h167q75 0 137.5 12.5t163.5 54.5z" />
    <glyph glyph-name="zdotaccent" unicode="&#x17c;" horiz-adv-x="654" 
d="M420 661l-83 -82l-83 82l83 83zM611 0h-568v53l342 411h-57q-50 0 -91 -18.5t-70.5 -37t-53.5 -18.5q-61 0 -61 99h524v-53l-342 -412h104q50 0 90 18.5t69 37t53 18.5q61 0 61 -98z" />
    <glyph glyph-name="Zcaron" unicode="&#x17d;" horiz-adv-x="803" 
d="M238 978q2 32 22.5 46.5t44 10t36.5 -21.5q8 -10 28 -53t56 -82q37 39 57 82.5t27 52.5q13 17 36.5 21.5t44 -10t22.5 -46.5q-22 -15 -61 -37.5t-70 -43t-56 -43.5q-25 23 -56 43.5t-70 43t-61 37.5zM711 0h-661v41l441 735h-146q-126 0 -215 -67l-66 91h663v-41
l-442 -735h167q75 0 137.5 12.5t163.5 54.5z" />
    <glyph glyph-name="zcaron" unicode="&#x17e;" horiz-adv-x="654" 
d="M150 698q2 32 22.5 46.5t44 10t36.5 -21.5q8 -10 28 -53t56 -82q37 39 57 82.5t27 52.5q13 17 36.5 21.5t44 -10t22.5 -46.5q-22 -15 -61 -37.5t-70 -43t-56 -43.5q-25 23 -56 43.5t-70 43t-61 37.5zM611 0h-568v53l342 411h-57q-50 0 -91 -18.5t-70.5 -37t-53.5 -18.5
q-61 0 -61 99h524v-53l-342 -412h104q50 0 90 18.5t69 37t53 18.5q61 0 61 -98z" />
    <glyph glyph-name="uni0218" unicode="&#x218;" horiz-adv-x="727" 
d="M433 -20q-132 0 -226.5 57.5t-166.5 190.5l140 81q31 -136 101 -220.5t167 -84.5q59 0 92.5 30t33.5 81q0 25 -13 48t-44.5 50t-69.5 53.5t-102 69.5q-11 7 -17 11q-140 92 -191 149.5t-51 138.5q0 89 70 137t175 48q102 0 185 -46t158 -151l-139 -60q-15 50 -30.5 86.5
t-40.5 72.5t-61.5 55t-83.5 19q-55 0 -87.5 -25t-32.5 -62q0 -39 35.5 -72t155.5 -108q60 -38 92 -59.5t72.5 -51.5t60 -51.5t39 -50t26.5 -58t7 -64.5q0 -104 -72.5 -159t-181.5 -55zM478 -156l-117 -192l-8 9l53 111l-73 72l73 72z" />
    <glyph glyph-name="uni0219" unicode="&#x219;" horiz-adv-x="560" 
d="M293 -20q-100 0 -170 38t-90 110q16 35 51 45t67 -8t41 -56q9 -49 32 -76.5t76 -27.5q43 0 64.5 23t21.5 58t-28 58.5t-120 66.5q-98 47 -126 69q-55 42 -55 99q0 35 20 61.5t53 40.5t68 21t71 7q84 0 147.5 -33.5t92.5 -92.5q-35 -40 -78 -31.5t-58 55.5q-13 41 -34 59
t-66 18q-36 0 -58 -15t-22 -41q0 -28 26.5 -48.5t103.5 -54.5q6 -3 31 -14t31.5 -14t28 -13t28 -15t23 -15.5t22 -18t16 -19t14 -23t7 -25.5t3.5 -30q0 -73 -63.5 -115.5t-170.5 -42.5zM375 -157l-116 -191l-9 9l53 110l-72 72l72 72z" />
    <glyph glyph-name="uni021A" unicode="&#x21a;" horiz-adv-x="819" 
d="M525 0h-231q12 96 12 223v553h-13q-113 0 -207 -70l-66 94h779l-66 -94q-93 70 -207 70h-13v-553q0 -127 12 -223zM482 -154l-116 -191l-9 9l53 110l-72 72l72 73z" />
    <glyph glyph-name="uni021B" unicode="&#x21b;" horiz-adv-x="496" 
d="M281 -25q-87 0 -123.5 45t-36.5 136v308h-108v25h17q23 0 42 4t33 9t24.5 17.5t17 20.5t11 27.5t7 29t3.5 35t1 35v38.5h150q0 -167 -131 -216h257v-25h-146v-336q0 -59 11 -83t39 -24q66 0 93 183h21q-18 -129 -61 -179t-121 -50zM353 -158l-116 -191l-9 9l53 110
l-72 72l72 72z" />
    <glyph glyph-name="circumflex" unicode="&#x2c6;" horiz-adv-x="474" 
d="M50 649q22 15 61 38t70 43.5t56 43.5q25 -23 56 -43.5t70 -43.5t61 -38q-2 -32 -22.5 -46.5t-44 -10t-36.5 21.5q-7 9 -27 52.5t-57 82.5q-36 -39 -56 -82t-28 -53q-13 -17 -36.5 -21.5t-44 10t-22.5 46.5z" />
    <glyph glyph-name="caron" unicode="&#x2c7;" horiz-adv-x="417" 
d="M50 698q2 32 22.5 46.5t44 10t36.5 -21.5q8 -10 28 -53t56 -82q37 39 57 82.5t27 52.5q13 17 36.5 21.5t44 -10t22.5 -46.5q-22 -15 -61 -37.5t-70 -43t-56 -43.5q-25 23 -56 43.5t-70 43t-61 37.5z" />
    <glyph glyph-name="breve" unicode="&#x2d8;" horiz-adv-x="453" 
d="M226 585q-170 0 -176 154h108q-2 -64 12 -97t56 -33t56 33t12 97h109q-6 -154 -177 -154z" />
    <glyph glyph-name="dotaccent" unicode="&#x2d9;" horiz-adv-x="266" 
d="M216 661l-83 -82l-83 82l83 83z" />
    <glyph glyph-name="ring" unicode="&#x2da;" horiz-adv-x="299" 
d="M149 571q-43 0 -71 29.5t-28 69.5t28 69.5t71 29.5q44 0 72 -29.5t28 -69.5t-28 -69.5t-72 -29.5zM149 595q33 0 54 22.5t21 52.5t-21 52.5t-54 22.5t-54 -22.5t-21 -52.5t21 -52.5t54 -22.5z" />
    <glyph glyph-name="ogonek" unicode="&#x2db;" horiz-adv-x="438" 
d="M205 -290q-65 0 -110 28t-45 80q0 32 22 59t50 43t66.5 41t61.5 49h24q-11 -12 -34.5 -38.5t-30.5 -35t-21 -27.5t-18 -30.5t-8 -29t-4 -36.5q0 -36 17 -57.5t44 -21.5q41 0 65 37t46 108l58 -58q-20 -28 -34 -44t-36 -33.5t-50 -25.5t-63 -8z" />
    <glyph glyph-name="tilde" unicode="&#x2dc;" horiz-adv-x="534" 
d="M366 606q-35 0 -67.5 26t-60 52t-48.5 26q-38 0 -32 -99h-108q3 63 35 93t83 30q28 0 55 -16t44.5 -36t39 -36t38.5 -16q37 0 31 99h108q-3 -63 -35 -93t-83 -30z" />
    <glyph glyph-name="hungarumlaut" unicode="&#x2dd;" horiz-adv-x="459" 
d="M59 584l-9 9l131 173q32 0 49 -16.5t15 -37.5t-18 -36q-17 -16 -72 -38t-96 -54zM222 584l-8 9l131 173q32 0 49 -16.5t15 -37.5t-18 -36q-17 -16 -72.5 -38t-96.5 -54z" />
    <glyph glyph-name="gravecomb" unicode="&#x300;" 
d="M-64 593l-9 -9q-47 29 -93 40.5t-75.5 18.5t-47.5 26q-12 13 -13.5 35.5t15.5 42t52 19.5z" />
    <glyph glyph-name="acutecomb" unicode="&#x301;" 
d="M-280 584l-9 9l171 173q35 0 52 -19.5t15.5 -42t-13.5 -35.5q-18 -19 -47.5 -26t-75.5 -18.5t-93 -40.5z" />
    <glyph glyph-name="uni0302" unicode="&#x302;" 
d="M-424 649q22 15 61 38t70 43.5t56 43.5q25 -23 56 -43.5t70 -43.5t61 -38q-2 -32 -22.5 -46.5t-44 -10t-36.5 21.5q-7 9 -27 52.5t-57 82.5q-36 -39 -56 -82t-28 -53q-13 -17 -36.5 -21.5t-44 10t-22.5 46.5z" />
    <glyph glyph-name="tildecomb" unicode="&#x303;" 
d="M-168 606q-35 0 -67.5 26t-60 52t-48.5 26q-38 0 -32 -99h-108q3 63 35 93t83 30q28 0 55 -16t44.5 -36t39 -36t38.5 -16q37 0 31 99h108q-3 -63 -35 -93t-83 -30z" />
    <glyph glyph-name="uni0304" unicode="&#x304;" 
d="M-406 634v72q179 -15 356 0v-72q-177 18 -356 0z" />
    <glyph glyph-name="uni0306" unicode="&#x306;" 
d="M-227 585q-170 0 -176 154h108q-2 -64 12 -97t56 -33t56 33t12 97h109q-6 -154 -177 -154z" />
    <glyph glyph-name="uni0307" unicode="&#x307;" 
d="M-50 661l-83 -82l-83 82l83 83z" />
    <glyph glyph-name="uni0308" unicode="&#x308;" 
d="M-261 661l-83 -82l-83 82l83 83zM-50 661l-82 -82l-83 82l83 83z" />
    <glyph glyph-name="uni030A" unicode="&#x30a;" 
d="M-150 571q-43 0 -71 29.5t-28 69.5t28 69.5t71 29.5q44 0 72 -29.5t28 -69.5t-28 -69.5t-72 -29.5zM-150 595q33 0 54 22.5t21 52.5t-21 52.5t-54 22.5t-54 -22.5t-21 -52.5t21 -52.5t54 -22.5z" />
    <glyph glyph-name="uni030B" unicode="&#x30b;" 
d="M-400 584l-9 9l131 173q32 0 49 -16.5t15 -37.5t-18 -36q-17 -16 -72 -38t-96 -54zM-237 584l-8 9l131 173q32 0 49 -16.5t15 -37.5t-18 -36q-17 -16 -72.5 -38t-96.5 -54z" />
    <glyph glyph-name="uni030C" unicode="&#x30c;" 
d="M-424 698q2 32 22.5 46.5t44 10t36.5 -21.5q8 -10 28 -53t56 -82q37 39 57 82.5t27 52.5q13 17 36.5 21.5t44 -10t22.5 -46.5q-22 -15 -61 -37.5t-70 -43t-56 -43.5q-25 23 -56 43.5t-70 43t-61 37.5z" />
    <glyph glyph-name="uni0312" unicode="&#x312;" 
d="M-194 640l116 191l9 -9l-53 -110l72 -72l-72 -72z" />
    <glyph glyph-name="uni0326" unicode="&#x326;" 
d="M-50 -151l-116 -191l-9 9l53 110l-72 72l72 72z" />
    <glyph glyph-name="uni0327" unicode="&#x327;" 
d="M-218 -290q-106 0 -170 81l59 59q20 -62 43.5 -89t60.5 -27q33 0 50 22.5t17 58.5q0 46 -33 71t-102 18v24l34 82h108l-111 -84q93 14 152.5 -16.5t59.5 -88.5q0 -38 -29 -64.5t-65 -36.5t-74 -10z" />
    <glyph glyph-name="uni0328" unicode="&#x328;" 
d="M-233 -290q-65 0 -110 28t-45 80q0 32 22 59t50 43t66.5 41t61.5 49h24q-11 -12 -34.5 -38.5t-30.5 -35t-21 -27.5t-18 -30.5t-8 -29t-4 -36.5q0 -36 17 -57.5t44 -21.5q41 0 65 37t46 108l58 -58q-20 -28 -34 -44t-36 -33.5t-50 -25.5t-63 -8z" />
    <glyph glyph-name="Wgrave" unicode="&#x1e80;" horiz-adv-x="1269" 
d="M773 863l-9 -9q-47 29 -93 40.5t-75.5 18.5t-47.5 26q-12 13 -13.5 35.5t15.5 42t52 19.5zM1168 800h44q-25 -51 -41 -112l-164 -607q-10 -47 0 -81h-246l-127 467l-104 -386q-12 -46 -1 -81h-246l-183 674q-20 72 -50 126h246q3 -53 23 -126l175 -638l127 476l-44 162
q-19 71 -49 126h246q3 -53 23 -126l175 -638l174 651q20 75 22 113z" />
    <glyph glyph-name="wgrave" unicode="&#x1e81;" horiz-adv-x="1011" 
d="M620 593l-9 -9q-47 29 -93 40.5t-75.5 18.5t-47.5 26q-12 13 -13.5 35.5t15.5 42t52 19.5zM973 489q27 -81 -7 -158l-111 -251q-24 -52 -21 -80h-215l-79 181l-45 -101q-24 -52 -21 -80h-215l-170 391q-22 49 -56 98h222q8 -44 31 -95l160 -364l80 182l-78 179
q-20 49 -55 98h222q8 -43 30 -95l161 -364l115 261q12 21 6.5 41.5t-15 32t-23 28.5t-17.5 30q-12 37 19.5 54t81.5 12z" />
    <glyph glyph-name="Wacute" unicode="&#x1e82;" horiz-adv-x="1269" 
d="M785 939q-18 -19 -47.5 -26t-75.5 -18.5t-93 -40.5l-9 9l171 173q35 0 52 -19.5t15.5 -42t-13.5 -35.5zM1168 800h44q-25 -51 -41 -112l-164 -607q-10 -47 0 -81h-246l-127 467l-104 -386q-12 -46 -1 -81h-246l-183 674q-20 72 -50 126h246q3 -53 23 -126l175 -638
l127 476l-44 162q-19 71 -49 126h246q3 -53 23 -126l175 -638l174 651q20 75 22 113z" />
    <glyph glyph-name="wacute" unicode="&#x1e83;" horiz-adv-x="1011" 
d="M631 669q-18 -19 -47.5 -26t-75.5 -18.5t-93 -40.5l-9 9l171 173q35 0 52 -19.5t15.5 -42t-13.5 -35.5zM973 489q27 -81 -7 -158l-111 -251q-24 -52 -21 -80h-215l-79 181l-45 -101q-24 -52 -21 -80h-215l-170 391q-22 49 -56 98h222q8 -44 31 -95l160 -364l80 182
l-78 179q-20 49 -55 98h222q8 -43 30 -95l161 -364l115 261q12 21 6.5 41.5t-15 32t-23 28.5t-17.5 30q-12 37 19.5 54t81.5 12z" />
    <glyph glyph-name="Wdieresis" unicode="&#x1e84;" horiz-adv-x="1269" 
d="M567 1014l83 -83l-83 -82l-83 82zM779 1014l82 -83l-82 -82l-83 82zM1168 800h44q-25 -51 -41 -112l-164 -607q-10 -47 0 -81h-246l-127 467l-104 -386q-12 -46 -1 -81h-246l-183 674q-20 72 -50 126h246q3 -53 23 -126l175 -638l127 476l-44 162q-19 71 -49 126h246
q3 -53 23 -126l175 -638l174 651q20 75 22 113z" />
    <glyph glyph-name="wdieresis" unicode="&#x1e85;" horiz-adv-x="1011" 
d="M414 744l83 -83l-83 -82l-83 82zM626 744l82 -83l-82 -82l-83 82zM973 489q27 -81 -7 -158l-111 -251q-24 -52 -21 -80h-215l-79 181l-45 -101q-24 -52 -21 -80h-215l-170 391q-22 49 -56 98h222q8 -44 31 -95l160 -364l80 182l-78 179q-20 49 -55 98h222q8 -43 30 -95
l161 -364l115 261q12 21 6.5 41.5t-15 32t-23 28.5t-17.5 30q-12 37 19.5 54t81.5 12z" />
    <glyph glyph-name="Ygrave" unicode="&#x1ef2;" horiz-adv-x="779" 
d="M575 873l-9 -9q-47 29 -93 40.5t-75.5 18.5t-47.5 26q-12 13 -13.5 35.5t15.5 42t52 19.5zM520 0h-231q12 108 12 223v105l-188 378q-27 55 -63 94h259q12 -41 38 -94l160 -320l147 320q24 50 35 94h40q-23 -35 -49 -93l-173 -379v-105q0 -119 13 -223z" />
    <glyph glyph-name="ygrave" unicode="&#x1ef3;" horiz-adv-x="645" 
d="M434 593l-9 -9q-47 29 -93 40.5t-75.5 18.5t-47.5 26q-12 13 -13.5 35.5t15.5 42t52 19.5zM229 -189q-50 0 -100 17t-82 50q-6 39 19 62.5t58.5 16t49.5 -45.5q18 -41 36 -58t50 -17q39 0 80 37.5t71 126.5h-178l-153 395q-18 47 -47 94h217q6 -38 27 -92l143 -371
l128 371q15 47 22 92h42q-20 -37 -40 -94l-135 -395q-37 -106 -84 -147.5t-124 -41.5z" />
    <glyph glyph-name="endash" unicode="&#x2013;" horiz-adv-x="1006" 
d="M70 224v72q433 -16 866 0v-72q-433 16 -866 0z" />
    <glyph glyph-name="emdash" unicode="&#x2014;" horiz-adv-x="1363" 
d="M70 224v72q612 -15 1223 0v-72q-611 15 -1223 0z" />
    <glyph glyph-name="quoteleft" unicode="&#x2018;" horiz-adv-x="306" 
d="M70 561l157 257l9 -8l-83 -166l83 -83l-83 -82z" />
    <glyph glyph-name="quoteright" unicode="&#x2019;" horiz-adv-x="306" 
d="M236 734l-157 -257l-9 9l83 166l-83 82l83 83z" />
    <glyph glyph-name="quotesinglbase" unicode="&#x201a;" horiz-adv-x="306" 
d="M236 63l-157 -257l-9 8l83 166l-83 83l83 83z" />
    <glyph glyph-name="quotedblleft" unicode="&#x201c;" horiz-adv-x="513" 
d="M70 561l157 257l8 -8l-82 -166l82 -83l-82 -82zM278 561l157 257l8 -8l-83 -166l83 -83l-83 -82z" />
    <glyph glyph-name="quotedblright" unicode="&#x201d;" horiz-adv-x="513" 
d="M236 734l-157 -257l-9 9l83 166l-83 82l83 83zM443 734l-157 -257l-8 9l82 166l-82 82l82 83z" />
    <glyph glyph-name="quotedblbase" unicode="&#x201e;" horiz-adv-x="513" 
d="M236 63l-157 -257l-9 8l83 166l-83 83l83 83zM443 63l-157 -257l-8 8l82 166l-82 83l82 83z" />
    <glyph glyph-name="dagger" unicode="&#x2020;" horiz-adv-x="631" 
d="M326 -205h-20q0 230 -5.5 347t-22.5 232q2 9 7.5 30.5t8 32.5t6 31t5 41t1.5 47q-56 -1 -109 -14.5t-68 -13.5q-49 0 -49 38t49 38q15 0 68 -13.5t109 -14.5q-2 57 -15 129t-13 88q0 48 38 48q37 0 37 -48q0 -16 -13 -88t-14 -129q55 2 107.5 15t69.5 13q48 0 48 -38
t-48 -38q-16 0 -69 13.5t-108 14.5q1 -26 2.5 -47.5t5 -41t6 -31t8 -32t7.5 -30.5q-16 -112 -21.5 -227.5t-7.5 -351.5z" />
    <glyph glyph-name="daggerdbl" unicode="&#x2021;" horiz-adv-x="571" 
d="M307 -283q-38 0 -38 49q0 16 13 87.5t15 128.5q-56 -1 -109 -14t-68 -13q-49 0 -49 38t49 38q15 0 68 -13.5t109 -14.5q0 81 -28 145q28 59 28 131q0 73 -28 132q28 64 28 145q-55 -1 -108 -14.5t-69 -13.5q-49 0 -49 38t49 38q15 0 68 -13.5t109 -14.5q-2 57 -15 129
t-13 88q0 48 38 48t38 -48q0 -16 -13 -88t-14 -129q55 2 107 15t69 13q49 0 49 -38t-49 -38q-16 0 -68.5 13.5t-107.5 14.5q1 -79 28 -145q-28 -59 -28 -132q0 -72 28 -131q-27 -66 -28 -145q55 1 107.5 14.5t68.5 13.5q49 0 49 -38t-49 -38q-16 0 -68.5 12.5t-107.5 14.5
q1 -57 14 -128.5t13 -87.5q0 -49 -38 -49z" />
    <glyph glyph-name="bullet" unicode="&#x2022;" horiz-adv-x="545" 
d="M476 253l-203 -203l-203 203l203 202z" />
    <glyph glyph-name="ellipsis" unicode="&#x2026;" horiz-adv-x="788" 
d="M236 63l-83 -83l-83 83l83 83zM477 63l-83 -83l-83 83l83 83zM718 63l-83 -83l-82 83l82 83z" />
    <glyph glyph-name="perthousand" unicode="&#x2030;" horiz-adv-x="2120" 
d="M581 0l-41 10q181 393 327 774q-96 -7 -220.5 15.5t-214.5 16.5q101 -14 165.5 -69t64.5 -144q0 -103 -87 -160t-209 -57t-209 57t-87 160q0 81 54.5 135.5t142.5 71.5q310 68 648 -20q-194 -424 -334 -790zM366 410q117 0 117 193t-117 193q-116 0 -116 -193t116 -193z
M1088 -20q-122 0 -209 57t-87 160t87 160t209 57t209 -57t87 -160t-87 -160t-209 -57zM1754 -20q-122 0 -209.5 57t-87.5 160t87.5 160t209.5 57q121 0 208.5 -57t87.5 -160t-87.5 -160t-208.5 -57zM1088 4q117 0 117 193t-117 193q-116 0 -116 -193t116 -193zM1754 4
q116 0 116 193t-116 193q-117 0 -117 -193t117 -193z" />
    <glyph glyph-name="guilsinglleft" unicode="&#x2039;" horiz-adv-x="423" 
d="M302 23q-43 62 -105.5 123t-126.5 100q64 38 126.5 99t105.5 123q27 0 40.5 -19t10 -42t-21.5 -36q-16 -12 -43 -21t-77 -33t-117 -71q67 -48 117 -72t77 -33t43 -21q18 -13 21.5 -36t-10 -42t-40.5 -19z" />
    <glyph glyph-name="guilsinglright" unicode="&#x203a;" horiz-adv-x="423" 
d="M121 23q-27 0 -40.5 19t-10 42t21.5 36q16 12 43 21t76.5 33t116.5 72q-67 47 -116.5 71t-76.5 33t-43 21q-18 13 -21.5 36t10 42t40.5 19q43 -62 105.5 -123t126.5 -99q-64 -39 -126.5 -100t-105.5 -123z" />
    <glyph glyph-name="fraction" unicode="&#x2044;" horiz-adv-x="449" 
d="M48 -169l-38 14q89 197 203.5 477t187.5 481l38 -14q-89 -197 -203.5 -477t-187.5 -481z" />
    <glyph glyph-name="Euro" unicode="&#x20ac;" horiz-adv-x="1042" 
d="M638 43q31 0 57.5 13t50.5 42t42.5 59.5t43.5 79.5l140 -63q-134 -155 -341 -155q-141 0 -246.5 80.5t-132.5 215.5q-131 -2 -182 -5l27 39q44 -2 150 -4q-3 27 -3 55q0 23 1 34q-87 -2 -125 -4l27 39l102 -3q22 143 129 229t253 86q207 0 341 -155l-140 -63
q-25 49 -43.5 79.5t-42.5 59.5t-50.5 42t-57.5 13q-87 0 -131 -82.5t-53 -210.5q150 0 292 5l-27 -39q-114 4 -266 6q-1 -12 -1 -36q0 -18 2 -56q171 2 242 5l-27 -39q-105 5 -213 5q5 -56 17.5 -103t33.5 -86t54.5 -61t76.5 -22z" />
    <glyph glyph-name="trademark" unicode="&#x2122;" horiz-adv-x="801" 
d="M50 800h340l-28 -40q-37 16 -97 16h-10v-66q0 -87 5 -180h-81q5 93 5 180v66h-10q-59 0 -97 -16zM588 611l84 189h79q-2 -28 -3.5 -72.5t-1.5 -47.5q0 -8 1 -36t2 -57.5t2 -56.5h-82q5 93 5 170v52l-102 -231h-16l-108 228v-49q0 -77 5 -170h-30q1 27 2 56.5t2 57.5t1 36
q0 3 -1.5 47.5t-3.5 72.5h74z" />
    <glyph glyph-name="arrowleft" unicode="&#x2190;" horiz-adv-x="755" 
d="M360 26h-63q-82 91 -247 219q165 128 247 219h63l-1 -63q-62 -32 -155.5 -86t-102.5 -59q169 8 228.5 11t154.5 11t164 20l57 -54l-57 -54q-157 28 -548 44q28 -15 114.5 -65t144.5 -80z" />
    <glyph glyph-name="arrowup" unicode="&#x2191;" horiz-adv-x="538" 
d="M489 321l-1 -63l-63 1q-31 59 -81.5 147t-63.5 113q7 -155 11 -226.5t12.5 -162.5t20.5 -160l-54 -57l-53 57q11 69 19 164t11 154t11 229q-7 -13 -60 -105t-85 -153l-63 -1v63q91 82 219 247q128 -165 220 -247z" />
    <glyph glyph-name="arrowright" unicode="&#x2192;" horiz-adv-x="755" 
d="M458 26h-63l1 63q58 30 144.5 80t114.5 65q-391 -16 -548 -44l-57 54l57 54q69 -12 164 -20t154.5 -11t228.5 -11q-9 5 -102.5 59t-155.5 86l-1 63h63q82 -91 247 -219q-165 -128 -247 -219z" />
    <glyph glyph-name="arrowdown" unicode="&#x2193;" horiz-adv-x="538" 
d="M488 239l1 -63q-97 -87 -220 -247q-123 160 -219 247v63h63q32 -60 82.5 -148.5t62.5 -110.5q-16 364 -31 482q-5 34 -10 66l53 56l54 -56q-12 -70 -20.5 -161t-12.5 -162.5t-11 -225.5q8 15 60.5 106.5t84.5 153.5h63z" />
    <glyph glyph-name="arrowboth" unicode="&#x2194;" horiz-adv-x="934" 
d="M360 26h-63q-82 91 -247 219q165 128 247 219h63l-1 -63q-61 -31 -150.5 -83t-108.5 -62q161 6 231 12.5t136 20.5q66 -14 136 -20.5t231 -12.5q-25 13 -113 63.5t-147 81.5v63h63q87 -96 247 -219q-160 -123 -247 -219h-63v63q57 30 143 79t118 66q-237 -7 -368 -34
q-131 27 -368 34q34 -18 119.5 -67t140.5 -78z" />
    <glyph glyph-name="arrowupdn" unicode="&#x2195;" horiz-adv-x="539" 
d="M51 349l-1 63q96 85 219 247q128 -165 220 -247l-1 -63l-63 1q-32 61 -84 152.5t-60 106.5q7 -238 32 -367q-25 -129 -32 -367q12 23 62.5 111.5t81.5 148.5h63l1 -63q-97 -87 -220 -247q-119 158 -219 247l1 63h63q31 -60 81 -148t64 -113q-5 159 -12.5 229t-22.5 139
q15 69 22.5 139t12.5 229q-15 -28 -64.5 -115t-80.5 -145z" />
    <glyph glyph-name="uni2196" unicode="&#x2196;" horiz-adv-x="565" 
d="M115 101l-46 44q7 126 -19 330q203 -26 330 -20l44 -45l-45 -44q-63 20 -159 46t-126 35q117 -108 167.5 -153t121 -104.5t127.5 -100.5l3 -78l-78 2q-59 84 -135.5 172.5t-221.5 246.5q2 -7 31 -113t50 -173z" />
    <glyph glyph-name="uni2197" unicode="&#x2197;" horiz-adv-x="565" 
d="M496 145l-46 -44l-44 45q21 67 50 173t31 113q-145 -158 -221.5 -246.5t-135.5 -172.5l-78 -2l3 78q57 41 127.5 100.5t121 104.5t167.5 153q-30 -9 -126 -35t-159 -46l-45 44l44 45q127 -6 330 20q-26 -204 -19 -330z" />
    <glyph glyph-name="uni2198" unicode="&#x2198;" horiz-adv-x="565" 
d="M450 383l46 -44q-7 -126 19 -330q-204 26 -330 19l-44 45l45 45q67 -21 172 -50t113 -31q-14 13 -51.5 47t-50 45.5t-44 40t-44.5 40t-39.5 35t-40.5 35t-36.5 30.5t-38 31t-34.5 26.5t-37 27.5l-3 78l78 -2q59 -84 135.5 -172.5t221.5 -246.5q-4 15 -32 117.5t-49 168.5
z" />
    <glyph glyph-name="uni2199" unicode="&#x2199;" horiz-adv-x="565" 
d="M69 339l46 45l44 -45q-21 -67 -49.5 -172t-31.5 -115q105 115 152 167.5t105.5 123t99.5 128.5l78 3l-3 -78q-57 -41 -129.5 -102.5t-117.5 -102t-169 -153.5q16 5 117.5 32t167.5 48l45 -44l-44 -45q-126 7 -330 -19q26 202 19 329z" />
    <glyph glyph-name="minus" unicode="&#x2212;" horiz-adv-x="596" 
d="M50 224v72q248 -14 496 0v-72q-248 14 -496 0z" />
    <glyph glyph-name="approxequal" unicode="&#x2248;" horiz-adv-x="622" 
d="M429 271q-38 0 -77 23.5t-75.5 47.5t-69.5 24q-23 0 -42.5 -12.5t-29.5 -25t-26 -37.5l-59 70q68 68 143 68q41 0 80 -24t74.5 -48t67.5 -24q23 0 42.5 12.5t29.5 25t26 37.5l59 -70q-70 -67 -143 -67zM429 102q-38 0 -77 24t-75.5 48t-69.5 24q-23 0 -42.5 -12.5
t-29.5 -25t-26 -37.5l-59 70q69 68 143 68q41 0 80 -24t74.5 -48t67.5 -24q23 0 42.5 12.5t29.5 25t26 37.5l59 -70q-71 -68 -143 -68z" />
    <glyph glyph-name="notequal" unicode="&#x2260;" horiz-adv-x="596" 
d="M546 376v-71q-129 7 -205 7q-51 -82 -63 -103q106 -1 268 7v-71q-156 8 -302 7q-35 -62 -67 -122l-31 16q40 58 72 106q-45 -1 -168 -7v71q99 -5 205 -7q51 82 63 103q-106 1 -268 -7v71q176 -10 302 -7q43 76 73 132l30 -17q-36 -51 -77 -115q45 1 168 7z" />
    <glyph glyph-name="lessequal" unicode="&#x2264;" horiz-adv-x="450" 
d="M400 198l-46 -67q-128 90 -304 172q174 80 304 171l46 -67q-9 -4 -35.5 -15.5t-33.5 -14.5t-28.5 -12t-29.5 -12t-26.5 -10.5t-30 -11t-29 -9t-34.5 -10t-37 -9.5q76 -19 127 -38.5t133 -55.5q16 -7 24 -11zM400 103v-72q-175 15 -350 0v72q175 -13 350 0z" />
    <glyph glyph-name="greaterequal" unicode="&#x2265;" horiz-adv-x="450" 
d="M96 131l-46 67q146 65 211 85q33 10 74 20q-20 5 -37 9.5t-35 10t-29 9t-30 11t-27 10.5t-29.5 12t-28 12t-34 14.5t-35.5 15.5l46 67q130 -91 304 -171q-176 -82 -304 -172zM50 31v72q175 -13 350 0v-72q-175 15 -350 0z" />
    <glyph glyph-name="i.loclTRK" horiz-adv-x="302" 
d="M263 686l-112 -97l-111 97l111 97zM252 0h-202q12 92 12 213v63q0 121 -12 213h202q-12 -92 -12 -213v-63q0 -121 12 -213z" />
    <glyph glyph-name="e.ss01" horiz-adv-x="700" 
d="M358 -20q-132 0 -223.5 69t-91.5 192q0 122 91 195t212 73q116 0 188 -63t74 -155h-369q-2 -22 -2 -35q0 -100 47 -165t134 -65q146 0 239 193h21q-54 -121 -129 -180t-191 -59zM240 316h181q0 168 -79 168q-86 0 -102 -168z" />
    <glyph glyph-name="eacute.ss01" horiz-adv-x="700" 
d="M248 584l-9 9l171 173q35 0 52 -19.5t15.5 -42t-13.5 -35.5q-18 -19 -47.5 -26t-75.5 -18.5t-93 -40.5zM358 -20q-132 0 -223.5 69t-91.5 192q0 122 91 195t212 73q116 0 188 -63t74 -155h-369q-2 -22 -2 -35q0 -100 47 -165t134 -65q146 0 239 193h21
q-54 -121 -129 -180t-191 -59zM240 316h181q0 168 -79 168q-86 0 -102 -168z" />
    <glyph glyph-name="ecaron.ss01" horiz-adv-x="700" 
d="M165 698q2 32 22.5 46.5t44 10t36.5 -21.5q8 -10 28 -53t56 -82q37 39 57 82.5t27 52.5q13 17 36.5 21.5t44 -10t22.5 -46.5q-22 -15 -61 -37.5t-70 -43t-56 -43.5q-25 23 -56 43.5t-70 43t-61 37.5zM358 -20q-132 0 -223.5 69t-91.5 192q0 122 91 195t212 73
q116 0 188 -63t74 -155h-369q-2 -22 -2 -35q0 -100 47 -165t134 -65q146 0 239 193h21q-54 -121 -129 -180t-191 -59zM240 316h181q0 168 -79 168q-86 0 -102 -168z" />
    <glyph glyph-name="ecircumflex.ss01" horiz-adv-x="700" 
d="M165 649q22 15 61 38t70 43.5t56 43.5q25 -23 56 -43.5t70 -43.5t61 -38q-2 -32 -22.5 -46.5t-44 -10t-36.5 21.5q-7 9 -27 52.5t-57 82.5q-36 -39 -56 -82t-28 -53q-13 -17 -36.5 -21.5t-44 10t-22.5 46.5zM358 -20q-132 0 -223.5 69t-91.5 192q0 122 91 195t212 73
q116 0 188 -63t74 -155h-369q-2 -22 -2 -35q0 -100 47 -165t134 -65q146 0 239 193h21q-54 -121 -129 -180t-191 -59zM240 316h181q0 168 -79 168q-86 0 -102 -168z" />
    <glyph glyph-name="edieresis.ss01" horiz-adv-x="700" 
d="M329 661l-83 -82l-83 82l83 83zM540 661l-82 -82l-83 82l83 83zM358 -20q-132 0 -223.5 69t-91.5 192q0 122 91 195t212 73q116 0 188 -63t74 -155h-369q-2 -22 -2 -35q0 -100 47 -165t134 -65q146 0 239 193h21q-54 -121 -129 -180t-191 -59zM240 316h181q0 168 -79 168
q-86 0 -102 -168z" />
    <glyph glyph-name="edotaccent.ss01" horiz-adv-x="700" 
d="M436 661l-83 -82l-83 82l83 83zM358 -20q-132 0 -223.5 69t-91.5 192q0 122 91 195t212 73q116 0 188 -63t74 -155h-369q-2 -22 -2 -35q0 -100 47 -165t134 -65q146 0 239 193h21q-54 -121 -129 -180t-191 -59zM240 316h181q0 168 -79 168q-86 0 -102 -168z" />
    <glyph glyph-name="egrave.ss01" horiz-adv-x="700" 
d="M452 593l-9 -9q-47 29 -93 40.5t-75.5 18.5t-47.5 26q-12 13 -13.5 35.5t15.5 42t52 19.5zM358 -20q-132 0 -223.5 69t-91.5 192q0 122 91 195t212 73q116 0 188 -63t74 -155h-369q-2 -22 -2 -35q0 -100 47 -165t134 -65q146 0 239 193h21q-54 -121 -129 -180t-191 -59z
M240 316h181q0 168 -79 168q-86 0 -102 -168z" />
    <glyph glyph-name="emacron.ss01" horiz-adv-x="700" 
d="M174 634v72q179 -15 356 0v-72q-177 18 -356 0zM358 -20q-132 0 -223.5 69t-91.5 192q0 122 91 195t212 73q116 0 188 -63t74 -155h-369q-2 -22 -2 -35q0 -100 47 -165t134 -65q146 0 239 193h21q-54 -121 -129 -180t-191 -59zM240 316h181q0 168 -79 168
q-86 0 -102 -168z" />
    <glyph glyph-name="eogonek.ss01" horiz-adv-x="700" 
d="M441 -266q41 0 65 37t46 108l58 -58q-20 -28 -34 -44t-36 -33.5t-50 -25.5t-63 -8q-65 0 -110 28t-45 80q0 39 26 66t78.5 57.5t75.5 50.5q-42 -12 -94 -12q-132 0 -223.5 69t-91.5 192q0 122 91 195t212 73q116 0 188 -63t74 -155h-369q-2 -22 -2 -35q0 -100 47 -165
t134 -65q146 0 239 193h21q-74 -165 -186 -214q-8 -10 -33 -37t-30 -34t-19.5 -26.5t-18 -30t-7.5 -28t-4 -36.5q0 -36 17 -57.5t44 -21.5zM342 484q-86 0 -102 -168h181q0 168 -79 168z" />
    <glyph glyph-name="f.ss01" horiz-adv-x="524" 
d="M358 0h-203q12 100 12 216v92q0 117 135 157q-48 2 -94.5 11t-94.5 27.5t-77.5 54t-29.5 82.5q0 86 88 133t215 47q141 0 267 -68q10 -43 -8.5 -68.5t-50.5 -21.5t-59 36q-6 7 -25 32.5t-28.5 35t-31.5 20t-49 10.5q-52 0 -88 -41.5t-36 -106.5q0 -70 37.5 -114.5
t117.5 -44.5h168v-25q-30 0 -53.5 -2.5t-41.5 -6t-31 -12t-22 -14t-14.5 -19t-8.5 -20.5t-4.5 -25.5t-1.5 -26.5v-30v-92q0 -116 12 -216z" />
    <glyph glyph-name="k.ss01" horiz-adv-x="782" 
d="M533 258l122 -150q56 -69 101 -108h-256q-14 33 -59 108l-76 121q-23 -4 -119 -19q0 -113 12 -210h-202q12 94 12 223v354q0 129 -12 223h202q-12 -94 -12 -223v-342q36 7 63.5 13.5t60.5 16t57 21.5t45 26.5t32 34t11 41.5q0 32 -23 54.5t-77 38.5l16 24q35 -5 60 -9
t58.5 -11.5t56.5 -16t44.5 -20.5t32.5 -27.5t11 -34.5q0 -80 -161 -128z" />
    <glyph glyph-name="uni0137.ss01" horiz-adv-x="782" 
d="M533 258l122 -150q56 -69 101 -108h-256q-14 33 -59 108l-76 121q-23 -4 -119 -19q0 -113 12 -210h-202q12 94 12 223v354q0 129 -12 223h202q-12 -94 -12 -223v-342q36 7 63.5 13.5t60.5 16t57 21.5t45 26.5t32 34t11 41.5q0 32 -23 54.5t-77 38.5l16 24q35 -5 60 -9
t58.5 -11.5t56.5 -16t44.5 -20.5t32.5 -27.5t11 -34.5q0 -80 -161 -128zM371 -223l-72 72l72 72l72 -72l-116 -191l-9 9z" />
    <glyph glyph-name="y.ss01" horiz-adv-x="684" 
d="M152 -220v20q179 58 221 81q57 31 70 81q7 26 7 68v79q-77 -129 -211 -129q-82 0 -126 47.5t-44 155.5v90q0 115 -13 216h192v-371q0 -92 62 -92q78 0 140 120v127q0 115 -14 216h192v-393q0 -128 -77 -176t-365 -130q-22 -7 -34 -10z" />
    <glyph glyph-name="yacute.ss01" horiz-adv-x="684" 
d="M237 584l-9 9l171 173q35 0 52 -19.5t15.5 -42t-13.5 -35.5q-18 -19 -47.5 -26t-75.5 -18.5t-93 -40.5zM152 -220v20q179 58 221 81q57 31 70 81q7 26 7 68v79q-77 -129 -211 -129q-82 0 -126 47.5t-44 155.5v90q0 115 -13 216h192v-371q0 -92 62 -92q78 0 140 120v127
q0 115 -14 216h192v-393q0 -128 -77 -176t-365 -130q-22 -7 -34 -10z" />
    <glyph glyph-name="ycircumflex.ss01" horiz-adv-x="684" 
d="M155 649q22 15 61 38t70 43.5t56 43.5q25 -23 56 -43.5t70 -43.5t61 -38q-2 -32 -22.5 -46.5t-44 -10t-36.5 21.5q-7 9 -27 52.5t-57 82.5q-36 -39 -56 -82t-28 -53q-13 -17 -36.5 -21.5t-44 10t-22.5 46.5zM152 -220v20q179 58 221 81q57 31 70 81q7 26 7 68v79
q-77 -129 -211 -129q-82 0 -126 47.5t-44 155.5v90q0 115 -13 216h192v-371q0 -92 62 -92q78 0 140 120v127q0 115 -14 216h192v-393q0 -128 -77 -176t-365 -130q-22 -7 -34 -10z" />
    <glyph glyph-name="ydieresis.ss01" horiz-adv-x="684" 
d="M319 661l-83 -82l-83 82l83 83zM530 661l-82 -82l-83 82l83 83zM152 -220v20q179 58 221 81q57 31 70 81q7 26 7 68v79q-77 -129 -211 -129q-82 0 -126 47.5t-44 155.5v90q0 115 -13 216h192v-371q0 -92 62 -92q78 0 140 120v127q0 115 -14 216h192v-393q0 -128 -77 -176
t-365 -130q-22 -7 -34 -10z" />
    <glyph glyph-name="ygrave.ss01" horiz-adv-x="684" 
d="M441 593l-9 -9q-47 29 -93 40.5t-75.5 18.5t-47.5 26q-12 13 -13.5 35.5t15.5 42t52 19.5zM152 -220v20q179 58 221 81q57 31 70 81q7 26 7 68v79q-77 -129 -211 -129q-82 0 -126 47.5t-44 155.5v90q0 115 -13 216h192v-371q0 -92 62 -92q78 0 140 120v127q0 115 -14 216
h192v-393q0 -128 -77 -176t-365 -130q-22 -7 -34 -10z" />
    <glyph glyph-name="C_O" horiz-adv-x="1609" 
d="M496 -20q-197 0 -316.5 117.5t-119.5 312.5q0 126 59.5 220.5t156.5 142t215 47.5q251 0 365 -242l-190 -53q-33 271 -175 271q-99 0 -154 -105t-55 -267q0 -110 28 -194.5t91 -137t155 -52.5q113 0 194 77.5t116 226.5h21q-88 -364 -391 -364zM1255 360q-134 0 -220 61
t-86 169t86 169t220 61q133 0 218.5 -61t85.5 -169t-85.5 -169t-218.5 -61zM1255 377q67 0 96 61.5t29 151.5t-29 151.5t-96 61.5q-46 0 -75.5 -33t-40.5 -78.5t-11 -101.5t11 -101.5t40.5 -78.5t75.5 -33zM1337 63l-82 -83l-83 83l83 83z" />
    <glyph glyph-name="E_S_T_D" horiz-adv-x="2527" 
d="M1057 -20q-132 0 -226.5 57.5t-166.5 190.5l140 81q31 -136 101 -220.5t167 -84.5q59 0 92.5 30t33.5 81q0 25 -13 48t-44.5 50t-69.5 53.5t-102 69.5q-11 7 -17 11q-140 92 -191 149.5t-51 138.5q0 89 70 137t175 48q103 0 185.5 -46t157.5 -151l-139 -60
q-15 50 -30.5 86.5t-40.5 72.5t-61.5 55t-83.5 19q-55 0 -87.5 -25t-32.5 -62q0 -39 35.5 -72t155.5 -108q60 -38 92 -59.5t72.5 -51.5t60 -51.5t39 -50t26.5 -58t7 -64.5q0 -104 -72.5 -159t-181.5 -55zM631 0h-561q13 104 13 223v354q0 119 -13 223h583l-65 -94
q-94 70 -216 70h-83v-344h48q107 0 200 10v-44q-93 10 -200 10h-48v-384h75q86 0 145 12t163 55zM1774 0h-231q12 108 12 223v553h-14q-113 0 -207 -70l-65 94h779l-66 -94q-95 70 -207 70h-13v-553q0 -127 12 -223zM2250 380h-146q5 93 5 180v60q0 87 -5 180h146
q98 0 157.5 -56.5t59.5 -153.5q0 -91 -60.5 -150.5t-156.5 -59.5zM2182 776v-372h63q144 0 144 186q0 97 -35.5 141.5t-108.5 44.5h-63zM2365 63l-82 -83l-83 83l83 83z" />
    <glyph glyph-name="L_T_D" horiz-adv-x="1329" 
d="M982 0h-912q14 112 14 223v354q0 127 -12 223h231q-12 -96 -12 -223v-553h404q95 0 163.5 12.5t165.5 54.5zM670 380h-81q5 93 5 180v216h-26q-61 0 -104 -17l-25 41h380l-24 -41q-44 17 -105 17h-25v-216q0 -87 5 -180zM1038 380h-146q5 93 5 180v60q0 87 -5 180h146
q98 0 157.5 -56.5t59.5 -153.5q0 -91 -60.5 -150.5t-156.5 -59.5zM968 776v-372h63q144 0 144 186q0 97 -35.5 141.5t-108.5 44.5h-63zM1269 63l-82 -83l-83 83l83 83z" />
    <glyph glyph-name="S_T" horiz-adv-x="1110" 
d="M433 -20q-132 0 -226.5 57.5t-166.5 190.5l140 81q31 -136 101 -220.5t167 -84.5q59 0 92.5 30t33.5 81q0 25 -13 48t-44.5 50t-69.5 53.5t-102 69.5q-11 7 -17 11q-140 92 -191 149.5t-51 138.5q0 89 70 137t175 48q102 0 185 -46t158 -151l-139 -60q-15 50 -30.5 86.5
t-40.5 72.5t-61.5 55t-83.5 19q-55 0 -87.5 -25t-32.5 -62q0 -39 35.5 -72t155.5 -108q60 -38 92 -59.5t72.5 -51.5t60 -51.5t39 -50t26.5 -58t7 -64.5q0 -104 -72.5 -159t-181.5 -55zM941 380h-82q5 93 5 180v216h-25q-61 0 -104 -17l-25 41h380l-24 -41q-44 17 -105 17
h-25v-216q0 -87 5 -180zM983 63l-83 -83l-83 83l83 83z" />
    <glyph glyph-name="S_T_R" horiz-adv-x="1987" 
d="M390 529q60 -38 92 -59.5t72.5 -51.5t60 -51.5t39 -50t26.5 -58t7 -64.5q0 -104 -72.5 -159t-181.5 -55q-132 0 -226.5 57.5t-166.5 190.5l140 81q31 -136 101 -220.5t167 -84.5q59 0 92.5 30t33.5 81q0 25 -13 48t-44.5 50t-69.5 53.5t-102 69.5q-11 7 -17 11
q-140 92 -191 149.5t-51 138.5q0 89 70 137t175 48q102 0 185 -46t158 -151l-139 -60q-15 50 -30.5 86.5t-40.5 72.5t-61.5 55t-83.5 19q-55 0 -87.5 -25t-32.5 -62q0 -39 35.5 -72t155.5 -108zM735 759l-25 41h380l-24 -41q-44 17 -105 17h-25v-216q0 -87 5 -180h-82
q5 93 5 180v216h-25q-61 0 -104 -17zM1776 184q37 -90 75.5 -126.5t102.5 -36.5v-21q-58 0 -98 2t-83.5 8t-73.5 18t-58 31.5t-47.5 48.5t-32.5 69q-40 123 -72 158t-101 35h-15v-147q0 -115 12 -223h-230q12 108 12 223v354q0 115 -12 223h280q82 0 144 -8.5t118 -30.5
t86 -66.5t30 -109.5q0 -105 -74.5 -153t-205.5 -59q175 -30 243 -189zM1373 776v-382h59q173 0 173 191t-173 191h-59zM900 -20l-83 83l83 83l83 -83z" />
    <glyph glyph-name="s_t" horiz-adv-x="1017" 
d="M963 204h21q-18 -129 -60.5 -179t-120.5 -50q-87 0 -124 45t-37 136v308h-108v25h17q79 0 119.5 55.5t40.5 135.5q0 97 -48.5 141.5t-126.5 44.5q-77 0 -121.5 -45.5t-44.5 -126.5q0 -35 6.5 -66t21 -62t26 -50t35.5 -54.5t34 -51.5q6 -9 16 -27q-35 -40 -78 -31.5
t-58 55.5q-13 41 -34 59t-66 18q-36 0 -58 -15t-22 -41q0 -28 26.5 -48.5t103.5 -54.5q6 -3 31 -14t31.5 -14t28 -13t28 -15t23 -15.5t22 -18t16 -19t14 -23t7 -25.5t3.5 -30q0 -73 -63.5 -115.5t-170.5 -42.5q-100 0 -170 38t-90 110q16 35 51 45t67 -8t41 -56
q9 -49 32 -76.5t76 -27.5q43 0 64.5 23t21.5 58t-28 58.5t-120 66.5q-98 47 -126 69q-55 42 -55 99q0 35 20 61.5t53 40.5t68 21t71 7q77 0 140 -30q-12 9 -39 28.5t-41.5 30.5t-35.5 31.5t-32 37.5t-19.5 41.5t-8.5 51.5q0 92 87 141t216 49q125 0 218.5 -55.5t93.5 -154.5
q0 -60 -33.5 -112.5t-105.5 -78.5h258v-25h-146v-336q0 -59 11 -83t38 -24q66 0 93 183z" />
    <glyph glyph-name="eight.ss01" horiz-adv-x="883" 
d="M442 -20q-75 0 -139.5 13.5t-122 43t-91 85.5t-33.5 133q0 115 71 182t184 88q-177 39 -177 209v66h615v-66q0 -169 -177 -209q113 -21 184 -88t71 -182q0 -77 -33.5 -133t-91 -85.5t-122 -43t-138.5 -13.5zM442 537q127 0 127 159v80h-255v-80q0 -159 128 -159zM442 4
q80 0 128.5 61t48.5 190q0 130 -49 194t-128 64q-80 0 -129 -64t-49 -194q0 -129 48.5 -190t129.5 -61z" />
    <glyph glyph-name="eight.ss02" horiz-adv-x="815" 
d="M408 -20q-165 0 -258.5 63.5t-93.5 182.5q0 107 78.5 179.5t234.5 142.5q-72 40 -251 106v146h579v-146q-182 -68 -251 -107q75 -34 128 -65.5t97.5 -70t66.5 -85t22 -100.5q0 -119 -93.5 -182.5t-258.5 -63.5zM408 565q56 27 117 52v159h-234v-159q51 -21 117 -52z
M408 4q70 0 107 53.5t37 153.5q0 117 -35 189.5t-109 122.5q-74 -50 -109 -122.5t-35 -189.5q0 -100 37 -153.5t107 -53.5z" />
    <glyph glyph-name="periodcentered.case" horiz-adv-x="306" 
d="M236 400l-83 -83l-83 83l83 83z" />
    <glyph glyph-name="bullet.case" horiz-adv-x="545" 
d="M476 400l-203 -203l-203 203l203 203z" />
    <glyph glyph-name="parenleft.case" horiz-adv-x="470" 
d="M451 -49v-21q-162 46 -271.5 175t-109.5 305q0 88 32 166t86.5 134.5t122 97t144.5 62.5v-21q-96 -67 -150.5 -184.5t-54.5 -254.5q0 -144 51.5 -269t149.5 -190z" />
    <glyph glyph-name="parenright.case" horiz-adv-x="470" 
d="M20 -70v21q98 65 149.5 190.5t51.5 268.5q0 136 -54.5 254t-150.5 185v21q76 -22 143.5 -62.5t122 -97t86.5 -134.5t32 -166q0 -176 -109 -305t-271 -175z" />
    <glyph glyph-name="braceleft.case" horiz-adv-x="440" 
d="M424 -49v-21q-139 0 -210 63.5t-44 185.5q12 54 13 92.5t-6.5 61.5t-24 36t-35.5 17t-47 4v21q28 0 47 4t36 17t24 35.5t6 61t-13 92.5q-27 122 44 185.5t210 63.5v-21q-34 0 -54.5 -8t-31 -22t-11.5 -42t3 -57t14 -78q7 -47 5 -82.5t-18 -62t-34 -44t-43 -29
t-45.5 -16.5t-40.5 -7v-1q20 -2 40 -7.5t45 -17t43.5 -29t34.5 -44t18 -62t-5 -82.5q-27 -110 -13 -158.5t93 -48.5z" />
    <glyph glyph-name="braceright.case" horiz-adv-x="440" 
d="M16 -70v21q79 0 93 48.5t-13 158.5q-7 47 -5 82.5t18 62t34.5 44t43.5 29t45 17t40 7.5v1q-20 2 -40.5 7t-45.5 16.5t-43 29t-34 44t-18 62t5 82.5q27 110 13 158.5t-93 48.5v21q139 0 210 -63.5t44 -185.5q-12 -54 -13 -92.5t6 -61t24 -35.5t36 -17t47 -4v-21
q-28 0 -47 -4t-36 -17t-24 -36t-6 -61.5t13 -92.5q27 -122 -44 -185.5t-210 -63.5z" />
    <glyph glyph-name="bracketleft.case" horiz-adv-x="429" 
d="M413 -70h-343v940h343v-21h-179v-898h179v-21z" />
    <glyph glyph-name="bracketright.case" horiz-adv-x="429" 
d="M359 870v-940h-343v21h179v898h-179v21h343z" />
    <glyph glyph-name="hyphen.case" horiz-adv-x="710" 
d="M70 364v72q286 -16 570 0v-72q-284 17 -570 0z" />
    <glyph glyph-name="endash.case" horiz-adv-x="1006" 
d="M70 364v72q433 -16 866 0v-72q-433 17 -866 0z" />
    <glyph glyph-name="emdash.case" horiz-adv-x="1363" 
d="M70 364v72q612 -15 1223 0v-72q-612 17 -1223 0z" />
    <glyph glyph-name="guillemotleft.001" horiz-adv-x="634" 
d="M302 21q-43 62 -105.5 123t-126.5 100q64 39 126.5 100t105.5 123q27 0 40.5 -19t10 -42t-21.5 -36q-16 -12 -43 -21t-77 -33t-117 -72q67 -47 117 -71t77 -33t43 -21q18 -13 21.5 -36t-10 -42t-40.5 -20zM513 21q-43 62 -105.5 123t-126.5 100q64 39 126.5 100
t105.5 123q27 0 40.5 -19t10 -42t-21.5 -36q-16 -12 -43 -21t-76.5 -33t-116.5 -72q67 -47 116.5 -71t76.5 -33t43 -21q18 -13 21.5 -36t-10 -42t-40.5 -20z" />
    <glyph glyph-name="guillemotright.001" horiz-adv-x="634" 
d="M127 21q-27 1 -41 20t-10 42t22 36q16 12 43 21t76.5 33t116.5 71q-67 48 -116.5 72t-76.5 33t-43 21q-18 13 -22 36t10 42t41 19q43 -62 105 -123t126 -100q-64 -39 -126 -100t-105 -123zM338 21q-27 1 -40.5 20t-10 42t21.5 36q16 12 43 21t76.5 33t116.5 71
q-67 48 -116.5 72t-76.5 33t-43 21q-18 13 -21.5 36t10 42t40.5 19q43 -62 105.5 -123t126.5 -100q-64 -39 -126.5 -100t-105.5 -123z" />
    <glyph glyph-name="guilsinglleft.001" horiz-adv-x="423" 
d="M302 23q-43 62 -105.5 123t-126.5 100q64 38 126.5 99t105.5 123q27 0 40.5 -19t10 -42t-21.5 -36q-16 -12 -43 -21t-77 -33t-117 -71q67 -48 117 -72t77 -33t43 -21q18 -13 21.5 -36t-10 -42t-40.5 -19z" />
    <glyph glyph-name="guilsinglright.001" horiz-adv-x="423" 
d="M121 23q-27 0 -40.5 19t-10 42t21.5 36q16 12 43 21t76.5 33t116.5 72q-67 47 -116.5 71t-76.5 33t-43 21q-18 13 -21.5 36t10 42t40.5 19q43 -62 105.5 -123t126.5 -99q-64 -39 -126.5 -100t-105.5 -123z" />
    <glyph glyph-name="arrowright.case" horiz-adv-x="755" 
d="M458 181h-63l1 63q57 30 142.5 79t116.5 66q-398 -16 -548 -43l-57 53l57 54q150 -25 547 -41q-23 12 -110.5 62.5t-147.5 81.5l-1 63l63 1q82 -92 247 -220q-165 -128 -247 -219z" />
    <glyph glyph-name="arrowleft.case" horiz-adv-x="755" 
d="M360 181h-63q-82 91 -247 219q165 128 247 220l63 -1l-1 -63q-60 -31 -147.5 -81.5t-110.5 -62.5q397 16 547 41l57 -54l-57 -53q-150 27 -548 43q31 -17 116.5 -66t142.5 -79z" />
    <glyph glyph-name="arrowright.ss01.case" horiz-adv-x="1000" 
d="M764 228l-47 35q76 90 182 126h-463q-61 -74 -98 -154l-40 28q2 2 44.5 47.5t74.5 78.5h-62q-60 -73 -99 -154l-39 28q51 55 119 126h-63q-61 -74 -98 -154l-39 28q69 75 119 126h-63q-61 -74 -98 -154l-40 28q2 2 44.5 47.5t74.5 78.5q-41 -1 -110 -6v32q54 -5 109 -5
q-69 71 -118 125l40 28q37 -80 98 -153h62q-82 83 -118 125l39 28q37 -80 98 -153h62q-69 71 -118 125l39 28q39 -82 99 -153h62q-68 68 -119 125l40 28q37 -80 98 -153h461q-105 36 -180 125l47 35q37 -62 79 -101.5t107 -58.5v-21q-65 -19 -106.5 -58.5t-79.5 -102.5z" />
    <glyph glyph-name="arrowleft.ss01.case" horiz-adv-x="1000" 
d="M283 262l-46 -35q-37 63 -79.5 102.5t-107.5 58.5v21q66 19 108 58.5t79 101.5l46 -35q-75 -89 -180 -125h461q60 71 99 153l39 -28q-69 -75 -118 -125h62q61 73 98 153l39 -28q-47 -53 -118 -125h62q61 73 98 153l40 -28q-68 -74 -119 -125h62q58 68 99 153l39 -28
q-69 -75 -118 -125q38 0 110 5v-31q-44 3 -111 5q87 -90 119 -126l-39 -28q-41 85 -99 154h-62q66 -68 119 -126l-40 -28q-37 80 -98 154h-63q70 -72 119 -126l-39 -28q-37 80 -98 154h-63q87 -90 119 -126l-39 -28q-39 81 -99 154h-463q106 -35 182 -126z" />
    <glyph glyph-name="arrowright.ss02.case" horiz-adv-x="1717" 
d="M854 3q-14 1 -37 12.5t-35 13.5q-15 3 -44 3.5t-41 1.5q-83 8 -174 38q-110 36 -158 45q-1 -7 -8 -14q-1 -1 -31 -16q-4 -2 -17 -2l-20 2q-20 2 -21 -2l-42 -13q-46 -13 -78 6q-20 12 -35 38t-20.5 45.5t-12.5 51.5q-15 72 -6 188q10 118 53 162q137 6 139 6
q46 4 63.5 -4.5t18.5 -38.5q72 3 121 28q12 6 50 37q18 14 59 39q50 30 113 50q35 12 127 18l126 18q50 7 64 13q2 1 44 26q67 41 108 42q25 1 33.5 -21.5t0.5 -66.5q-12 -63 -46 -97t-93 -49q51 -4 160 -17.5t165 -17.5q121 -8 166 -17q98 -19 101 -69q1 -24 -15 -39
t-34 -19.5t-42 -5.5q-10 -2 -75.5 -0.5t-76.5 1.5q-260 0 -294 -1q40 -20 65 -50.5t19 -67.5t-39 -59.5t-70 -14.5q21 -36 -3 -69.5t-63 -38.5q-12 -2 -29 1t-23 1q-6 -6 -15.5 -24t-25.5 -32q-27 -24 -72 -21zM1078 745h1q31 0 48 7q20 9 48 25q-13 13 -97 -32zM757 48
q-46 31 -63 72q-9 19 -6 45t19 43q19 14 42 9q-18 40 10 69t69 26q-1 3 -3 6.5t-5 8t-4 6.5q-104 -33 -172 -26q-98 10 -130 77h7q30 -60 126 -66q60 -4 164 33q-11 49 14 74q24 24 77 7q13 -4 35.5 -18t34.5 -18q23 -7 87 -3q46 3 185 3h283q97 0 97 46q0 25 -34 37.5
t-95 20.5q-31 4 -90.5 8.5t-70.5 5.5q-47 4 -155 17t-166 18q-58 -18 -75 -18q-16 0 -36 -5q-7 -2 -29.5 -10.5t-37.5 -10.5v6l53 19q18 9 55.5 15.5t45.5 8.5q55 15 96 34q39 18 63.5 54.5t29.5 83.5q2 23 0 41q-22 -20 -53 -30t-56 3q-7 -2 -18.5 -9.5t-15.5 -9.5
q-34 -17 -96 -26q-83 -13 -97 -13q-91 0 -188 -33q-35 -12 -84 -41q-14 -8 -39 -27.5t-35 -26.5q-63 -44 -184 -38q-35 -72 -31 -185q3 -105 36 -193q33 2 70.5 -7t82.5 -25t67 -21q72 -18 118 -27q41 -8 102 -10zM198 80q12 2 37.5 10.5t40.5 8.5q12 0 36 -4q-3 10 -10 30
q-13 36 -26.5 112t-11.5 120q3 68 19 116q17 59 46 76q-9 13 -26 13q-16 0 -48 -3.5t-38 -3.5l-86 -5q-5 -6 -10 -14.5t-8 -15.5t-6 -19t-5 -18.5t-4 -21t-3 -18.5t-3 -20t-2 -17q-12 -97 1 -170q16 -89 50 -132q23 -29 57 -24zM317 526h21q0 12 -5 18q-1 -1 -16 -18z
M828 360q9 -7 12.5 -5.5t13.5 14.5q30 38 22 51q-25 7 -41 -12q-12 -15 -7 -48zM1126 205q31 11 46 39q35 67 -76 134q-58 -5 -73 -5q6 -2 45 -9v-9q-51 3 -82 12q-38 10 -71 38q-9 8 -25 13q2 -12 -9 -31l-20 -35q-4 -7 -13.5 -9t-15.5 2q4 -16 24 -36q30 -30 98.5 -48.5
t92.5 -33.5q2 -1 9.5 -6t9.5 -6l9 -4.5t10 -4.5l9 -3t10.5 -1.5t10 1t11.5 2.5zM1006 94q29 0 48 15.5t22 38.5q4 34 -41 62q-25 15 -90 35t-98 45q-10 8 -31 4q3 -3 -1 -15q-1 -2 -4 -12.5t-5.5 -16.5t-7 -14t-9.5 -11q-9 -6 -21 -3q5 -9 15 -18.5t16 -14.5t22 -16t18 -12
q16 -11 61 -27t65 -35q8 1 21.5 -2t19.5 -3zM763 235q9 -7 16 0q11 11 14 19q0 1 6.5 12.5t8 16.5t-0.5 10q-16 -3 -36 -22q-16 -14 -8 -36zM705 161q3 -4 14.5 2.5t19.5 17.5t4 19q-16 2 -27 -8.5t-11 -30.5zM867 22q30 0 62 32q3 3 22 33q-9 8 -22.5 15.5t-22.5 11t-26 9
t-24 8.5q-46 18 -93 65q-2 2 -6 2q-1 -15 -21.5 -32.5t-30.5 -15.5q1 -11 4.5 -21.5t9 -19t12 -16.5t14 -14.5t14 -11.5t14 -9.5t12 -7t9.5 -4.5l4 -3q38 -21 69 -21zM322 119l11 -20q18 8 24 18q-15 4 -35 2z" />
    <glyph glyph-name="arrowleft.ss02.case" horiz-adv-x="1717" 
d="M863 -4q-45 -3 -72 21q-16 14 -25.5 32t-15.5 24q-6 2 -23 -1t-29 -1q-39 5 -63 38.5t-3 69.5q-37 -8 -70 14.5t-39 59.5t19 67.5t65 50.5q-34 1 -294 1q-11 0 -76.5 -1.5t-75.5 0.5q-24 1 -42 5.5t-34 19.5t-15 39q3 50 101 69q45 9 166 17q56 4 165 17.5t160 17.5
q-59 15 -93 49t-46 97q-8 44 0.5 66.5t33.5 21.5q41 -1 108 -42q42 -25 44 -26q14 -6 64 -13q14 -2 39.5 -6.5t46.5 -7.5t40 -4q92 -6 127 -18q63 -20 113 -50q41 -25 59 -39q38 -31 50 -37q49 -25 121 -28q1 30 18.5 38.5t63.5 4.5q2 0 139 -6q43 -44 53 -162
q9 -116 -6 -188q-7 -32 -12.5 -51.5t-20.5 -45.5t-35 -38q-32 -19 -78 -6l-42 13q-1 4 -21 2l-20 -2q-13 0 -17 2q-30 15 -31 16q-6 6 -8 14q-48 -9 -158 -45q-91 -30 -174 -38q-12 -1 -41 -1.5t-44 -3.5q-12 -2 -35 -13.5t-37 -12.5zM638 738h1q-84 45 -97 32
q28 -16 48 -25q18 -7 48 -7zM960 41q61 2 102 10q46 9 118 27q22 5 67 21t82.5 25t70.5 7q33 88 36 193q4 113 -31 185q-121 -6 -184 38q-10 7 -35 26.5t-39 27.5q-49 29 -84 41q-97 33 -188 33q-14 0 -97 13q-62 9 -96 26q-4 2 -15.5 9.5t-18.5 9.5q-25 -13 -56 -3t-53 30
q-2 -18 0 -41q5 -47 29.5 -83.5t63.5 -54.5q41 -19 96 -34q8 -2 45.5 -8.5t55.5 -15.5l53 -19v-6q-15 2 -37.5 10.5t-29.5 10.5q-20 5 -36 5q-17 0 -75 18q-58 -5 -166 -18t-155 -17q-11 -1 -70.5 -5.5t-90.5 -8.5q-61 -8 -95 -20.5t-34 -37.5q0 -46 97 -46h283
q139 0 185 -3q64 -4 87 3q12 4 34.5 18t35.5 18q53 17 77 -7q25 -25 14 -74q104 -37 164 -33q96 6 126 66h7q-32 -67 -130 -77q-68 -7 -172 26q-1 -2 -4 -6.5t-5 -8t-3 -6.5q41 3 69 -26t10 -69q23 5 42 -9q16 -17 19 -43t-6 -45q-17 -41 -63 -72zM1519 73q34 -5 57 24
q34 43 50 132q13 73 1 170q0 1 -2 17t-3 20t-3 18.5t-4 21t-5 18.5t-6 19t-8 15.5t-10 14.5l-86 5q-6 0 -38 3.5t-48 3.5q-17 0 -26 -13q29 -17 46 -76q16 -48 19 -116q2 -44 -11.5 -120t-26.5 -112q-7 -20 -10 -30q24 4 36 4q15 0 40.5 -8.5t37.5 -10.5zM1379 519h21
q-15 17 -16 18q-5 -6 -5 -18zM889 353q5 33 -7 48q-16 19 -41 12q-8 -13 22 -51q10 -13 13.5 -14.5t12.5 5.5zM591 198q6 -2 11.5 -2.5t10 -1t10.5 1.5l9 3t10 4.5l9 4.5t9.5 6t9.5 6q24 15 92.5 33.5t98.5 48.5q20 20 24 36q-6 -4 -15.5 -2t-13.5 9l-20 35q-11 19 -9 31
q-16 -5 -25 -13q-33 -28 -71 -38q-31 -9 -82 -12v9q39 7 45 9q-16 0 -73 5q-111 -67 -76 -134q15 -28 46 -39zM711 87q6 0 19.5 3t21.5 2q20 19 65 35t61 27q2 1 18 12t22 16t16 14.5t15 18.5q-12 -3 -21 3q-5 3 -9.5 11t-7 14t-5.5 16.5t-4 12.5q-4 12 -1 15q-21 4 -31 -4
q-33 -25 -98 -45t-90 -35q-45 -28 -41 -62q3 -23 22 -38.5t48 -15.5zM954 228q8 22 -8 36q-20 19 -36 22q-2 -5 -0.5 -10t8 -16.5t6.5 -12.5q3 -8 14 -19q7 -7 16 0zM1012 154q0 20 -11 30.5t-27 8.5q-4 -8 4 -19t19.5 -17.5t14.5 -2.5zM850 15q31 0 69 21l5 2q4 3 8.5 5.5
t12 7t14 9.5t14 11.5t14 14.5t12 16.5t9 19t4.5 21.5q-10 -2 -30.5 15.5t-21.5 32.5q-4 0 -6 -2q-47 -47 -93 -65q-7 -3 -24 -8.5t-26 -9t-22.5 -11t-22.5 -15.5q19 -30 22 -33q32 -32 62 -32zM1384 92l11 20q-20 2 -35 -2q6 -10 24 -18z" />
    <glyph glyph-name="arrowup.ss01" horiz-adv-x="443" 
d="M393 521l-36 -46q-90 76 -126 182v-463q73 -60 154 -99l-28 -39q-55 51 -126 119v-63q74 -61 154 -98l-28 -39q-75 69 -126 119v-63q74 -61 154 -98l-28 -40q-2 2 -47.5 44.5t-78.5 74.5l1 -63q68 -57 153 -98l-28 -39q-74 68 -125 119q2 -67 5 -111h-32q5 54 5 110
q-83 -82 -125 -118l-28 39q85 41 153 98l1 63q-72 -70 -126 -119l-28 40q80 37 154 98v62q-89 -86 -126 -118l-28 39q80 37 154 98v62q-76 -73 -126 -118l-28 39q81 39 154 99v461q-38 -106 -126 -180l-35 46q63 37 102.5 79.5t58.5 107.5h20q19 -65 59 -107t103 -80z" />
    <glyph glyph-name="arrowright.ss01" horiz-adv-x="1000" 
d="M764 69l-47 35q78 92 182 126h-463q-61 -74 -98 -154l-40 28q53 58 119 126h-62q-60 -73 -99 -154l-39 28q32 36 119 126h-63q-61 -74 -98 -154l-39 28q49 54 119 126h-63q-61 -74 -98 -154l-40 28q53 58 119 126q-41 -1 -110 -6v32q72 -5 109 -5q-69 71 -118 125l40 28
q37 -80 98 -153h62q-82 83 -118 125l39 28q37 -80 98 -153h62q-69 71 -118 125l39 28q39 -82 99 -153h62q-68 68 -119 125l40 28q37 -80 98 -153h461q-105 36 -180 125l47 35q37 -62 79 -101.5t107 -58.5v-21q-65 -19 -106.5 -58.5t-79.5 -102.5z" />
    <glyph glyph-name="arrowdown.ss01" horiz-adv-x="443" 
d="M357 22l36 -46q-63 -38 -103 -80t-59 -107h-20q-19 65 -58.5 107.5t-102.5 79.5l35 46q88 -74 126 -180v461q-73 60 -154 99l28 39q50 -45 126 -118v62q-74 61 -154 98l28 39q37 -32 126 -118v62q-74 61 -154 98l28 40q54 -49 126 -119l-1 63q-68 57 -153 98l28 39
q42 -36 125 -118q0 56 -5 110h32q-3 -44 -5 -111q51 51 125 119l28 -39q-85 -41 -153 -98l-1 -63q33 32 78.5 74.5t47.5 44.5l28 -40q-80 -37 -154 -98v-63q51 50 126 119l28 -39q-80 -37 -154 -98v-63q71 68 126 119l28 -39q-81 -39 -154 -99v-463q36 106 126 182z" />
    <glyph glyph-name="arrowleft.ss01" horiz-adv-x="1000" 
d="M283 104l-46 -35q-37 63 -79.5 102.5t-107.5 58.5v21q66 19 108 58.5t79 101.5l46 -35q-75 -89 -180 -125h461q60 71 99 153l39 -28q-49 -54 -118 -125h62q61 73 98 153l39 -28q-36 -42 -118 -125h62q61 73 98 153l40 -28q-51 -57 -119 -125h62q58 68 99 153l39 -28
q-49 -54 -118 -125q38 0 110 5v-32q-69 5 -111 6q87 -90 119 -126l-39 -28q-41 85 -99 154h-62q66 -68 119 -126l-40 -28q-37 80 -98 154h-63q70 -72 119 -126l-39 -28q-37 80 -98 154h-63q87 -90 119 -126l-39 -28q-39 81 -99 154h-463q104 -34 182 -126z" />
    <glyph glyph-name="arrowup.ss02" horiz-adv-x="934" 
d="M70 245q-3 45 21 72q14 16 32 25.5t24 15.5q2 6 -1 23t-1 29q5 39 38.5 63t69.5 3q-8 37 14.5 70t59.5 39t67.5 -19t50.5 -65q1 34 1 294q0 11 -1.5 76.5t0.5 75.5q1 24 5.5 42t19.5 34t39 15q50 -3 69 -101q9 -45 17 -166q4 -56 17.5 -165t17.5 -160q15 59 49 93t97 46
q44 8 66.5 -0.5t21.5 -33.5q-1 -41 -42 -108q-25 -42 -26 -44q-6 -14 -13 -64l-18 -126q-6 -92 -18 -127q-20 -63 -50 -113q-25 -41 -39 -59q-31 -38 -37 -50q-25 -49 -28 -121q30 -1 38.5 -18.5t4.5 -63.5q0 -2 -6 -139q-44 -43 -162 -53q-116 -9 -188 6q-32 7 -51.5 12.5
t-45.5 20.5t-38 35q-19 32 -6 78l13 42q4 1 2 21l-2 20q0 13 2 17q15 30 16 31q6 6 14 8q-9 48 -45 158q-30 91 -38 174q-1 12 -1.5 41t-3.5 44q-2 12 -13.5 35t-12.5 37zM115 148q2 -61 10 -102q9 -46 27 -118q5 -22 21 -67t25 -82.5t7 -70.5q88 -33 193 -36q113 -4 185 31
q-6 121 38 184q7 10 26.5 35t27.5 39q29 49 41 84q33 97 33 188q0 14 13 97q9 62 26 96q2 4 9.5 15.5t9.5 18.5q-13 25 -3 56t30 53q-18 2 -41 0q-47 -5 -83.5 -29.5t-54.5 -63.5q-19 -41 -34 -96q-2 -8 -8.5 -45.5t-15.5 -55.5l-19 -53h-6q2 15 10.5 37.5t10.5 29.5
q5 20 5 36q0 17 18 75q-5 58 -18 166t-17 155q-1 11 -5.5 70.5t-8.5 90.5q-8 61 -20.5 95t-37.5 34q-46 0 -46 -97v-283q0 -139 -3 -185q-4 -64 3 -87q4 -12 18 -34.5t18 -35.5q17 -53 -7 -77q-25 -25 -74 -14q-37 -104 -33 -164q6 -96 66 -126v-7q-67 32 -77 130
q-7 68 26 172q-2 1 -6.5 4t-8 5t-6.5 3q3 -41 -26 -69t-69 -10q5 -23 -9 -42q-17 -16 -43 -19t-45 6q-41 17 -72 63zM272 517q-2 -6 -2.5 -11.5t-1 -10t1.5 -10.5l3 -9t4.5 -10l4.5 -9t6 -9.5t6 -9.5q15 -24 33.5 -92.5t48.5 -98.5q20 -20 36 -24q-4 6 -2 15.5t9 13.5l35 20
q19 11 31 9q-5 16 -13 25q-28 33 -38 71q-9 31 -12 82h9q7 -39 9 -45q0 16 5 73q-67 111 -134 76q-28 -15 -39 -46zM812 470v-1q45 84 32 97q-16 -28 -25 -48q-7 -17 -7 -48zM161 397q0 -6 3 -19.5t2 -21.5q19 -20 35 -65t27 -61q1 -2 12 -18t16 -22t14.5 -16t18.5 -15
q-3 12 3 21q3 5 11 9.5t14 7t16.5 5.5t12.5 4q12 4 15 1q3 21 -4 31q-25 33 -45 98t-35 90q-28 45 -62 41q-23 -3 -38.5 -22t-15.5 -48zM89 258q0 -31 21 -69l2 -5q3 -4 5.5 -8.5t7 -12t9.5 -14t11.5 -14t14.5 -14t16.5 -12t19 -9t21.5 -4.5q-2 10 15.5 30.5t32.5 21.5
q0 4 -2 6q-47 47 -65 93q-3 7 -8.5 24t-9 26t-11 22.5t-15.5 22.5q-30 -19 -33 -22q-32 -32 -32 -62zM427 219q33 -5 48 7q19 16 12 41q-13 8 -51 -22q-13 -10 -14.5 -13.5t5.5 -12.5zM302 154q22 -8 36 8q19 20 22 36q-5 2 -10 0.5t-16.5 -8t-12.5 -6.5q-8 -3 -19 -14
q-7 -7 0 -16zM228 96q20 0 30.5 11t8.5 27q-8 4 -19 -4t-17.5 -19.5t-2.5 -14.5zM166 -276l20 -11q2 20 -2 35q-10 -6 -18 -24zM593 -271v-21q17 15 18 16q-6 5 -18 5zM147 -411q-5 -34 24 -57q43 -34 132 -50q73 -13 170 -1q1 0 17 2t20 3t18.5 3t21 4t18.5 5t19 6t15.5 8
t14.5 10l5 86q0 6 3.5 38t3.5 48q0 17 -13 26q-17 -29 -76 -46q-48 -16 -116 -19q-44 -2 -120 11.5t-112 26.5q-20 7 -30 10q4 -24 4 -36q0 -15 -8.5 -40.5t-10.5 -37.5z" />
    <glyph glyph-name="arrowright.ss02" horiz-adv-x="1717" 
d="M854 -145q-14 1 -37 12.5t-35 13.5q-15 3 -44 3.5t-41 1.5q-83 8 -174 38q-110 36 -158 45q-1 -8 -8 -14q-1 -1 -31 -16q-4 -2 -17 -2l-20 2q-20 2 -21 -2l-42 -13q-46 -13 -78 6q-20 12 -35 38t-20.5 45.5t-12.5 51.5q-15 72 -6 188q10 118 53 162q137 6 139 6
q46 4 63.5 -4.5t18.5 -38.5q72 3 121 28q12 6 50 37q18 14 59 39q50 30 113 50q35 12 127 18l126 18q50 7 64 13q2 1 44 26q67 41 108 42q25 1 33.5 -21.5t0.5 -66.5q-12 -63 -46 -97t-93 -49q51 -4 160 -17.5t165 -17.5q121 -8 166 -17q98 -19 101 -69q1 -24 -15 -39
t-34 -19.5t-42 -5.5q-10 -2 -75.5 -0.5t-76.5 1.5q-260 0 -294 -1q40 -20 65 -50.5t19 -67.5t-39 -59.5t-70 -14.5q21 -36 -3 -69.5t-63 -38.5q-12 -2 -29 1t-23 1q-6 -6 -15.5 -24t-25.5 -32q-27 -24 -72 -21zM1078 597h1q31 0 48 7q20 9 48 25q-13 13 -97 -32zM757 -100
q-46 31 -63 72q-9 19 -6 45t19 43q19 14 42 9q-18 40 10 69t69 26q-1 3 -3 6.5t-5 8t-4 6.5q-104 -33 -172 -26q-98 10 -130 77h7q30 -60 126 -66q60 -4 164 33q-11 49 14 74q24 24 77 7q13 -4 35.5 -18t34.5 -18q23 -7 87 -3q46 3 185 3h283q97 0 97 46q0 25 -34 37.5
t-95 20.5q-31 4 -90.5 8.5t-70.5 5.5q-47 4 -155 17t-166 18q-58 -18 -75 -18q-16 0 -36 -5q-7 -2 -29.5 -10.5t-37.5 -10.5v6l53 19q18 9 55.5 15.5t45.5 8.5q55 15 96 34q39 18 63.5 54.5t29.5 83.5q2 23 0 41q-22 -20 -53 -30t-56 3q-7 -2 -18.5 -9.5t-15.5 -9.5
q-34 -17 -96 -26q-83 -13 -97 -13q-91 0 -188 -33q-35 -12 -84 -41q-14 -8 -39 -27.5t-35 -26.5q-63 -44 -184 -38q-35 -72 -31 -185q3 -105 36 -193q33 2 70.5 -7t82.5 -25t67 -21q72 -18 118 -27q41 -8 102 -10zM198 -68q12 2 37.5 10.5t40.5 8.5q12 0 36 -4q-3 10 -10 30
q-13 36 -26.5 112t-11.5 120q3 68 19 116q17 59 46 76q-9 13 -26 13q-16 0 -48 -3.5t-38 -3.5l-86 -5q-5 -6 -10 -14.5t-8 -15.5t-6 -19t-5 -18.5t-4 -21t-3 -18.5t-3 -20t-2 -17q-12 -97 1 -170q16 -89 50 -132q23 -29 57 -24zM317 378h21q0 12 -5 18q-1 -1 -16 -18z
M828 212q9 -7 12.5 -5.5t13.5 14.5q30 38 22 51q-25 7 -41 -12q-12 -15 -7 -48zM1126 57q31 11 46 39q35 67 -76 134q-58 -5 -73 -5q6 -2 45 -9v-9q-51 3 -82 12q-38 10 -71 38q-9 8 -25 13q2 -12 -9 -31l-20 -35q-4 -7 -13.5 -9t-15.5 2q4 -16 24 -36q30 -30 98.5 -48.5
t92.5 -33.5q2 -1 9.5 -6t9.5 -6l9 -4.5t10 -4.5l9 -3t10.5 -1.5t10 1t11.5 2.5zM1006 -54q29 0 48 15.5t22 38.5q4 34 -41 62q-25 15 -90 35t-98 45q-10 8 -31 4q3 -3 -1 -15q-1 -2 -4 -12.5t-5.5 -16.5t-7 -14t-9.5 -11q-9 -6 -21 -3q5 -9 15 -18.5t16 -14.5t22 -16t18 -12
q16 -11 61 -27t65 -35q8 1 21.5 -2t19.5 -3zM763 87q9 -7 16 0q11 11 14 19q0 1 6.5 12.5t8 16.5t-0.5 10q-16 -3 -36 -22q-16 -14 -8 -36zM705 13q3 -4 14.5 2.5t19.5 17.5t4 19q-16 2 -27 -8.5t-11 -30.5zM867 -126q30 0 62 32q3 3 22 33q-9 8 -22.5 15.5t-22.5 11t-26 9
t-24 8.5q-46 18 -93 65q-2 2 -6 2q-1 -15 -21.5 -32.5t-30.5 -15.5q1 -11 4.5 -21.5t9 -19t12 -16.5t14 -14.5t14 -11.5t14 -9.5t12 -7t9.5 -4.5l4 -3q38 -21 69 -21zM322 -29l11 -20q18 8 24 18q-15 4 -35 2z" />
    <glyph glyph-name="arrowdown.ss02" horiz-adv-x="934" 
d="M70 255q1 14 12.5 37t13.5 35q3 15 3.5 44t1.5 41q8 83 38 174q36 110 45 158q-7 2 -14 8q-1 1 -16 31q-2 4 -2 17l2 20q2 20 -2 21l-13 42q-13 46 6 78q12 20 38 35t45.5 20.5t51.5 12.5q72 15 188 6q118 -10 162 -53q6 -137 6 -139q4 -46 -4.5 -63.5t-38.5 -18.5
q3 -72 28 -121q6 -12 37 -50q14 -18 39 -59q30 -50 50 -113q12 -35 18 -127l18 -126q7 -50 13 -64q1 -2 26 -44q41 -67 42 -108q1 -25 -21.5 -33.5t-66.5 -0.5q-63 12 -97 46t-49 93q-4 -51 -17.5 -160t-17.5 -165q-8 -121 -17 -166q-19 -98 -69 -101q-24 -1 -39 15
t-19.5 34t-5.5 42q-2 10 -0.5 75.5t1.5 76.5q0 260 -1 294q-20 -40 -50.5 -65t-67.5 -19t-59.5 39t-14.5 70q-36 -21 -69.5 3t-38.5 63q-2 12 1 29t1 23q-6 6 -24 15.5t-32 25.5q-24 27 -21 72zM147 911q2 -12 10.5 -37.5t8.5 -40.5q0 -12 -4 -36q10 3 30 10q36 13 112 26.5
t120 11.5q68 -3 116 -19q59 -17 76 -46q13 9 13 26q0 16 -3.5 48t-3.5 38l-5 86q-6 5 -14.5 10t-15.5 8t-19 6t-18.5 5t-21 4t-18.5 3t-20 3t-17 2q-97 12 -170 -1q-89 -16 -132 -50q-29 -23 -24 -57zM115 352q31 46 72 63q19 9 45 6t43 -19q14 -19 9 -42q40 18 69 -10
t26 -69q3 1 6.5 3t8 5t6.5 4q-33 104 -26 172q10 98 77 130v-7q-60 -30 -66 -126q-4 -60 33 -164q49 11 74 -14q24 -24 7 -77q-4 -13 -18 -35.5t-18 -34.5q-7 -23 -3 -87q3 -46 3 -185v-283q0 -97 46 -97q25 0 37.5 34t20.5 95q4 31 8.5 90.5t5.5 70.5q4 47 17 155t18 166
q-18 59 -18 75t-5 36q-2 7 -10.5 29.5t-10.5 37.5h6l19 -53q9 -18 15.5 -55.5t8.5 -45.5q15 -55 34 -96q18 -39 54.5 -63.5t83.5 -29.5q23 -2 41 0q-20 22 -30 53t3 56q-2 7 -9.5 18.5t-9.5 15.5q-17 34 -26 96q-13 83 -13 97q0 91 -33 188q-12 35 -41 84q-8 14 -27.5 39
t-26.5 35q-44 63 -38 184q-72 35 -185 31q-105 -3 -193 -36q2 -33 -7 -70.5t-25 -82.5t-21 -67q-18 -72 -27 -118q-8 -41 -10 -102zM593 792v-21q12 0 18 5q-1 1 -18 16zM186 787l-20 -11q8 -18 18 -24q4 15 2 35zM89 242q0 -30 32 -62q3 -3 33 -22q8 9 15.5 22.5t11 22.5
t9 26t8.5 24q18 46 65 93q2 2 2 6q-15 1 -32.5 21.5t-15.5 30.5q-11 -1 -21.5 -4.5t-19 -9t-16.5 -12t-14.5 -14t-11.5 -14t-9.5 -14t-7 -12t-5.5 -8.5l-2 -5q-21 -38 -21 -69zM228 404q-4 -3 2.5 -14.5t17.5 -19.5t19 -4q2 16 -8.5 27t-30.5 11zM302 346q-7 -9 0 -16
q11 -11 19 -14q1 0 12.5 -6.5t16.5 -8t10 0.5q-3 16 -22 36q-14 16 -36 8zM161 103q0 -29 15.5 -48t38.5 -22q34 -4 62 41q15 25 35 90t45 98q7 10 4 31q-3 -3 -15 1q-2 1 -12.5 4t-16.5 5.5t-14 7t-11 9.5q-6 9 -3 21q-9 -5 -18.5 -15t-14.5 -16t-16 -22t-12 -18
q-11 -16 -27 -61t-35 -65q1 -8 -2 -21.5t-3 -19.5zM427 281q-7 -9 -5.5 -12.5t14.5 -13.5q38 -30 51 -22q7 25 -12 41q-15 12 -48 7zM272 -17q11 -31 39 -46q67 -35 134 76q-5 57 -5 73q-2 -6 -9 -45h-9q3 51 12 82q10 38 38 71q8 9 13 25q-12 -2 -31 9l-35 20q-7 4 -9 13.5
t2 15.5q-16 -4 -36 -24q-30 -30 -48.5 -98.5t-33.5 -92.5q-1 -2 -6 -9.5t-6 -9.5l-4.5 -9t-4.5 -10l-3 -9t-1.5 -10.5t1 -10t2.5 -11.5zM812 31v-1q0 -31 7 -48q9 -20 25 -48q13 13 -32 97z" />
    <glyph glyph-name="arrowleft.ss02" horiz-adv-x="1717" 
d="M863 -147q-45 -3 -72 21q-16 14 -25.5 32t-15.5 24q-6 2 -23 -1t-29 -1q-39 5 -63 38.5t-3 69.5q-37 -8 -70 14.5t-39 59.5t19 67.5t65 50.5q-34 1 -294 1q-11 0 -76.5 -1.5t-75.5 0.5q-24 1 -42 5.5t-34 19.5t-15 39q3 50 101 69q45 9 166 17q56 4 165 17.5t160 17.5
q-59 15 -93 49t-46 97q-8 44 0.5 66.5t33.5 21.5q41 -1 108 -42q42 -25 44 -26q14 -6 64 -13q14 -2 39.5 -6.5t46.5 -7.5t40 -4q92 -6 127 -18q63 -20 113 -50q41 -25 59 -39q38 -31 50 -37q49 -25 121 -28q1 30 18.5 38.5t63.5 4.5q2 0 139 -6q43 -44 53 -162
q9 -116 -6 -188q-7 -32 -12.5 -51.5t-20.5 -45.5t-35 -38q-32 -19 -78 -6l-42 13q-1 4 -21 2l-20 -2q-13 0 -17 2q-30 15 -31 16q-6 7 -8 14q-48 -9 -158 -45q-91 -30 -174 -38q-12 -1 -41 -1.5t-44 -3.5q-12 -2 -35 -13.5t-37 -12.5zM638 595h1q-84 45 -97 32
q28 -16 48 -25q18 -7 48 -7zM960 -102q61 2 102 10q46 9 118 27q22 5 67 21t82.5 25t70.5 7q33 88 36 193q4 113 -31 185q-121 -6 -184 38q-10 7 -35 26.5t-39 27.5q-49 29 -84 41q-97 33 -188 33q-14 0 -97 13q-62 9 -96 26q-4 2 -15.5 9.5t-18.5 9.5q-25 -13 -56 -3
t-53 30q-2 -18 0 -41q5 -47 29.5 -83.5t63.5 -54.5q41 -19 96 -34q8 -2 45.5 -8.5t55.5 -15.5l53 -19v-6q-15 2 -37.5 10.5t-29.5 10.5q-20 5 -36 5q-17 0 -75 18q-58 -5 -166 -18t-155 -17q-11 -1 -70.5 -5.5t-90.5 -8.5q-61 -8 -95 -20.5t-34 -37.5q0 -46 97 -46h283
q139 0 185 -3q64 -4 87 3q12 4 34.5 18t35.5 18q53 17 77 -7q25 -25 14 -74q104 -37 164 -33q96 6 126 66h7q-32 -67 -130 -77q-68 -7 -172 26q-1 -2 -4 -6.5t-5 -8t-3 -6.5q41 3 69 -26t10 -69q23 5 42 -9q16 -17 19 -43t-6 -45q-17 -41 -63 -72zM1519 -70q34 -5 57 24
q34 43 50 132q13 73 1 170q0 1 -2 17t-3 20t-3 18.5t-4 21t-5 18.5t-6 19t-8 15.5t-10 14.5l-86 5q-6 0 -38 3.5t-48 3.5q-17 0 -26 -13q29 -17 46 -76q16 -48 19 -116q2 -44 -11.5 -120t-26.5 -112q-7 -20 -10 -30q24 4 36 4q15 0 40.5 -8.5t37.5 -10.5zM1379 376h21
q-15 17 -16 18q-5 -6 -5 -18zM889 210q5 33 -7 48q-16 19 -41 12q-8 -13 22 -51q10 -13 13.5 -14.5t12.5 5.5zM591 55q6 -2 11.5 -2.5t10 -1t10.5 1.5l9 3t10 4.5l9 4.5t9.5 6t9.5 6q24 15 92.5 33.5t98.5 48.5q20 20 24 36q-6 -4 -15.5 -2t-13.5 9l-20 35q-11 19 -9 31
q-16 -5 -25 -13q-33 -28 -71 -38q-31 -9 -82 -12v9q39 7 45 9q-16 0 -73 5q-111 -67 -76 -134q15 -28 46 -39zM711 -56q6 0 19.5 3t21.5 2q20 19 65 35t61 27q2 1 18 12t22 16t16 14.5t15 18.5q-12 -3 -21 3q-5 3 -9.5 11t-7 14t-5.5 16.5t-4 12.5q-4 12 -1 15q-21 4 -31 -4
q-33 -25 -98 -45t-90 -35q-45 -28 -41 -62q3 -23 22 -38.5t48 -15.5zM954 85q8 22 -8 36q-20 19 -36 22q-2 -5 -0.5 -10t8 -16.5t6.5 -12.5q3 -8 14 -19q7 -7 16 0zM1012 11q0 20 -11 30.5t-27 8.5q-4 -8 4 -19t19.5 -17.5t14.5 -2.5zM850 -128q31 0 69 21l5 3q4 2 8.5 4.5
t12 7t14 9.5t14 11.5t14 14.5t12 16.5t9 19t4.5 21.5q-10 -2 -30.5 15.5t-21.5 32.5q-4 0 -6 -2q-47 -47 -93 -65q-7 -3 -24 -8.5t-26 -9t-22.5 -11t-22.5 -15.5q19 -30 22 -33q32 -32 62 -32zM1384 -51l11 20q-20 2 -35 -2q6 -10 24 -18z" />
    </font>
</defs>
</svg>
